<?xml version="1.0" encoding="UTF-8"?>
<svg id="b" data-name="圖層 2" xmlns="http://www.w3.org/2000/svg" width="184.3" height="140.97" viewBox="0 0 184.3 140.97">
  <defs>
    <style>
      .d {
        stroke: #9e3147;
        stroke-miterlimit: 10;
      }

      .d, .e {
        fill: #9e3147;
      }
    </style>
  </defs>
  <g id="c" data-name="圖層 1">
    <g>
      <path class="e" d="M63.33,81.56h-14.83v36.14h4.64v-15.54h10.24c6.67,0,11.7-4.43,11.7-10.3s-4.83-10.3-11.75-10.3Zm7.11,10.3c0,5-4.18,9.08-9.32,9.08h-7.98v-18.15h7.98c5.14,0,9.32,4.07,9.32,9.07Z"/>
      <rect class="e" x="145.7" y="81.56" width="4.64" height="36.14"/>
      <path class="e" d="M179.09,100l-13.01-6.94c-1.84-.87-3.71-2.09-3.71-4.55,0-2.79,3.01-5.82,7.49-5.87,5.03,0,7.57,1.86,10.02,4.86l.4,.5,2.3-3.21-.46-.26c-3.5-2.04-7.69-3.11-12.11-3.11-1.24,0-2.55,.12-4.13,.38-5.19,.94-7.62,4.6-7.73,7.82,0,3.12,1.43,5.32,4.51,6.93l12.34,6.62c2.74,1.46,4.38,3.66,4.38,5.88,0,4.76-4.77,7.6-9.38,7.6s-8.24-4.1-9.1-5.97l-.32-.69-2.64,3.03,.36,.31c1.98,1.75,6.91,4.53,11.7,4.53,5.57,0,8.94-1.8,10.79-3.31,2.19-1.79,3.5-4.23,3.5-6.52,0-3.46-1.8-6.24-5.22-8.04Z"/>
      <path class="e" d="M100.82,107.6l-9.05-25.71-.11-.32h-3.71l-12.74,36.14h1.68l2.86-8.18c1.16-1.7,2.71-3.09,4.6-4.12,2.9-1.58,6.38-2.06,10.34-1.41l1.16,3.29h-.02l3.64,10.41h4.91l-3.47-9.91-.1-.2Zm-7.07-6.26c-3.82,.31-7.34,1.4-10.49,3.25-.86,.51-1.66,1.05-2.37,1.63l7.29-20.66,5.57,15.78Z"/>
      <path class="e" d="M126.63,102.13c6.22-.38,10.81-4.66,10.81-10.27,0-6.06-4.83-10.3-11.75-10.3h-14.83v36.14h4.64v-15.54s3.02,.04,5.26,.06c2.48,.03,4.76,1.42,5.86,3.64,2.51,5.05,3.75,12.12,10.17,12.12,1.01,0,1.19-.2,2.44-.55-5.72,.68-5.27-11.4-12.6-15.29Zm-11.13-19.35h7.98c5.14,0,9.32,4.07,9.32,9.07s-4.18,9.08-9.32,9.08h-7.98v-18.15Z"/>
      <path class="e" d="M0,117.53c4.12-.8,8.73-1.26,13.61-1.26,5.23,0,10.15,.52,14.48,1.43l.04-4.03c-5.34-.28-13.97-.32-20.92,.86l20.74-31.98,.08-.12v-.89H.05v1.23H22.33L0,117.53Z"/>
      <path class="e" d="M39.9,117.71h-3.78v-4.06h2.37c.93,0,1.4,.5,1.4,1.55v2.52Z"/>
      <g>
        <path class="e" d="M54.55,131.87h1.56v7.54h4.71v1.42h-6.27v-8.96Z"/>
        <path class="e" d="M74.21,136.95c0,.67-.09,1.25-.28,1.75s-.44,.92-.77,1.26-.74,.59-1.21,.76c-.47,.17-1,.25-1.59,.25s-1.1-.08-1.57-.25-.87-.42-1.2-.75-.59-.74-.77-1.23-.27-1.06-.27-1.71v-5.16h1.56v5.09c0,.84,.2,1.47,.6,1.91s.96,.65,1.67,.65,1.26-.21,1.66-.63,.6-1.04,.6-1.87v-5.16h1.56v5.08Z"/>
        <path class="e" d="M86.57,140.83l-2.35-3.39-2.37,3.39h-1.8l3.26-4.56-3.14-4.4h1.86l2.23,3.21,2.24-3.21h1.8l-3.12,4.38,3.25,4.58h-1.86Z"/>
        <path class="e" d="M101.93,136.95c0,.67-.09,1.25-.28,1.75s-.44,.92-.77,1.26-.74,.59-1.21,.76c-.47,.17-1,.25-1.59,.25s-1.1-.08-1.57-.25-.87-.42-1.2-.75-.59-.74-.77-1.23-.27-1.06-.27-1.71v-5.16h1.56v5.09c0,.84,.2,1.47,.6,1.91s.96,.65,1.67,.65,1.26-.21,1.66-.63,.6-1.04,.6-1.87v-5.16h1.56v5.08Z"/>
        <path class="e" d="M114.32,140.83l-2.21-3.12h-1.98v3.12h-1.56v-8.96h3.99c.51,0,.97,.07,1.39,.2,.41,.13,.76,.32,1.05,.56,.29,.24,.51,.54,.66,.9s.23,.75,.23,1.18c0,.38-.05,.71-.16,1-.11,.29-.25,.55-.44,.78-.19,.23-.41,.42-.67,.58-.26,.16-.55,.28-.86,.36l2.42,3.39h-1.86Zm-.51-7.16c-.32-.25-.78-.38-1.37-.38h-2.3v3.02h2.31c.56,0,1.01-.14,1.35-.41,.33-.27,.5-.64,.5-1.11,0-.5-.16-.87-.49-1.12Z"/>
        <path class="e" d="M126.2,140.83h-1.59v-3.53l-3.56-5.43h1.86l2.51,3.97,2.53-3.97h1.8l-3.56,5.39v3.57Z"/>
      </g>
    </g>
    <g>
      <path class="e" d="M80.28,.5h10.02c7.21,0,13.08,5.75,13.08,12.81v.1c-.03,4.3-2.83,8.15-7.13,9.8-1.88,.73-11.03,4.48-15.98,10.79V.5Z"/>
      <path class="e" d="M93.07,58.2c-3.42,0-6.63-1.33-9.05-3.75s-3.74-5.63-3.74-9.05c0-2.67,.9-5.34,2.6-7.73,4.58-6.42,15.05-10.68,20.02-11.95v24.85c0,2.59,.38,5.15,1.13,7.62h-10.96Z"/>
      <path class="d" d="M80.28,.5h10.02c7.21,0,13.08,5.75,13.08,12.81v.1c-.03,4.3-2.83,8.15-7.13,9.8-1.88,.73-11.03,4.48-15.98,10.79V.5Z"/>
      <path class="d" d="M93.07,58.2c-3.42,0-6.63-1.33-9.05-3.75s-3.74-5.63-3.74-9.05c0-2.67,.9-5.34,2.6-7.73,4.58-6.42,15.05-10.68,20.02-11.95v24.85c0,2.59,.38,5.15,1.13,7.62h-10.96Z"/>
    </g>
  </g>
</svg>