<?xml version="1.0" encoding="UTF-8"?>
<svg id="b" data-name="圖層 2" xmlns="http://www.w3.org/2000/svg" width="109.45" height="33.6" viewBox="0 0 109.45 33.6">
  <defs>
    <style>
      .d {
        fill: #fff;
      }
    </style>
  </defs>
  <g id="c" data-name="文字">
    <g>
      <polygon points="95.7 0 0 0 0 33.6 95.7 33.6 109.45 16.8 95.7 0"/>
      <g>
        <path class="d" d="M16.72,13.05s-.01,.5-.03,.69c-.19,5.33-.38,7.3-.82,7.89-.29,.44-.57,.59-.97,.67-.35,.08-.88,.08-1.44,.06-.02-.45-.19-1.12-.43-1.55,.44,.04,.84,.05,1.07,.05,.19,0,.3-.05,.44-.24,.28-.37,.47-1.93,.62-6.1h-1.24c-.15,3.18-.62,6.08-2.12,8.08-.26-.37-.77-.86-1.19-1.07,1.34-1.71,1.71-4.24,1.82-7.01h-1.47v-1.46h1.51c.01-.72,.01-1.46,.01-2.19h1.51c0,.73-.01,1.47-.02,2.19h2.73Zm5.32-.79v9.98h-1.56v-.78h-1.69v.87h-1.5V12.27h4.75Zm-1.56,7.75v-6.31h-1.69v6.31h1.69Z"/>
        <path class="d" d="M32.09,11.54c0,2.38,.34,6.98,4.98,9.72-.33,.26-.95,.92-1.21,1.31-2.61-1.58-3.95-3.96-4.64-6.21-.95,2.82-2.46,4.92-4.65,6.23-.28-.32-.98-.93-1.37-1.22,2.62-1.32,4.12-3.76,4.81-7.07l.77,.14c-.09-.48-.14-.93-.18-1.36h-2.87v-1.53h4.36Z"/>
        <path class="d" d="M44.52,14.09h-4.71v-1.18h2.05c-.2-.48-.54-1.11-.83-1.59l1.06-.59c.35,.52,.76,1.21,.96,1.66l-.79,.52h2.27v1.18Zm6.78-1.49s0,.52-.01,.69c-.14,5.81-.25,7.88-.72,8.52-.3,.47-.63,.6-1.08,.68-.44,.08-1.11,.08-1.75,.05-.03-.43-.21-1.07-.47-1.49,.66,.05,1.24,.06,1.52,.06,.21,0,.35-.06,.49-.24,.33-.39,.47-2.24,.58-6.92h-3.47c-.18,.33-.37,.62-.55,.91h2.9v5.21h-2.47v.45h-1.18v-4.84c-.29-.25-.77-.6-1.1-.82v.92h-3.68v-1.13h3.68v.11c.91-.92,1.65-2.39,2.03-3.89l1.5,.34c-.14,.48-.3,.93-.49,1.39h4.27Zm-10.99,3.74h3.69v1.13h-3.69v-1.13Zm3.69,5.56h-2.52v.53h-1.16v-4.35h3.68v3.82Zm-2.52-2.62v1.41h1.32v-1.41h-1.32Zm4.79-3.23v.86h1.26v-.86h-1.26Zm1.26,2.83v-.84h-1.26v.84h1.26Z"/>
        <path class="d" d="M57.85,11.26c-.26,.81-.59,1.64-.96,2.45v8.89h-1.42v-6.3c-.25,.38-.52,.73-.78,1.03-.11-.35-.48-1.22-.72-1.61,1.01-1.17,1.94-3.01,2.5-4.87l1.39,.42Zm5.65,9.48c.97,.33,2.03,.74,2.66,1.06l-1.29,.84c-.61-.37-1.68-.86-2.71-1.21l.81-.69h-2.47l.83,.59c-.82,.58-2.09,1.03-3.2,1.29-.18-.3-.52-.76-.79-1.02,.93-.18,1.97-.5,2.67-.86h-1.78v-4.7h7.13v4.7h-1.87Zm-.18-8.27v.54h2.17v2.6h-7.45v-2.6h2.07v-.54h-2.29v-1.08h8.05v1.08h-2.55Zm-3.98,2.27h.77v-.86h-.77v.86Zm.28,2.61h4.29v-.45h-4.29v.45Zm0,1.26h4.29v-.45h-4.29v.45Zm0,1.29h4.29v-.48h-4.29v.48Zm2.5-7.42h-.82v.54h.82v-.54Zm-.82,2.27h.82v-.86h-.82v.86Zm2.03-.86v.86h.81v-.86h-.81Z"/>
        <path class="d" d="M80.21,21h-4.9v1.6h-1.54v-1.6h-4.79v-1.29h4.79v-.66h-3.59v-4.73h8.94v4.73h-3.81v.66h4.9v1.29Zm-5.99-7.16h-4.5v-2.52h4.5v2.52Zm-1.4-1.63h-1.76v.73h1.76v-.73Zm-1.18,3.95h2.13v-.67h-2.13v.67Zm2.13,1.75v-.68h-2.13v.68h2.13Zm5.75-4.07h-4.52v-2.52h4.52v2.52Zm-1.94,1.65h-2.27v.67h2.27v-.67Zm0,1.74h-2.27v.68h2.27v-.68Zm.54-5.02h-1.8v.73h1.8v-.73Z"/>
      </g>
    </g>
  </g>
</svg>