<?xml version="1.0" encoding="UTF-8"?>
<svg id="b" data-name="圖層 2" xmlns="http://www.w3.org/2000/svg" width="109.45" height="33.6" viewBox="0 0 109.45 33.6">
  <g id="c" data-name="文字">
    <g>
      <polygon points="95.7 0 0 0 0 33.6 95.7 33.6 109.45 16.8 95.7 0"/>
      <g>
        <path d="M16.72,13.05s-.01,.5-.03,.69c-.19,5.33-.38,7.3-.82,7.89-.29,.44-.57,.59-.97,.67-.35,.08-.88,.08-1.44,.06-.02-.45-.19-1.12-.43-1.55,.44,.04,.84,.05,1.07,.05,.19,0,.3-.05,.44-.24,.28-.37,.47-1.93,.62-6.1h-1.24c-.15,3.18-.62,6.08-2.12,8.08-.26-.37-.77-.86-1.19-1.07,1.34-1.71,1.71-4.24,1.82-7.01h-1.47v-1.46h1.51c.01-.72,.01-1.46,.01-2.19h1.51c0,.73-.01,1.47-.02,2.19h2.73Zm5.32-.79v9.98h-1.56v-.78h-1.69v.87h-1.5V12.27h4.75Zm-1.56,7.75v-6.31h-1.69v6.31h1.69Z" style="fill: #fff;"/>
        <path d="M32.09,11.54c0,2.38,.34,6.98,4.98,9.72-.33,.26-.95,.92-1.21,1.31-2.61-1.58-3.95-3.96-4.64-6.21-.95,2.82-2.46,4.92-4.65,6.23-.28-.32-.98-.93-1.37-1.22,2.62-1.32,4.12-3.76,4.81-7.07l.77,.14c-.09-.48-.14-.93-.18-1.36h-2.87v-1.53h4.36Z" style="fill: #fff;"/>
        <path d="M42.2,19.8c-.33,1.06-.91,2.14-1.5,2.82-.25-.21-.79-.57-1.11-.73,.57-.59,1.05-1.5,1.3-2.38l1.31,.29Zm1.92-.38h-3.83V11.3h3.83v8.13Zm-1.31-6.94h-1.25v1.16h1.25v-1.16Zm0,2.28h-1.25v1.17h1.25v-1.17Zm0,2.28h-1.25v1.18h1.25v-1.18Zm.67,2.45c.42,.63,.88,1.47,1.08,2.03l-1.16,.57c-.18-.58-.63-1.47-1.03-2.13l1.11-.47Zm7.98,1.08h-.58v.67c0,.63-.13,.95-.54,1.15-.42,.2-1.01,.21-1.83,.21-.05-.35-.23-.87-.39-1.2,.49,.01,1.03,.01,1.19,.01,.16,0,.21-.05,.21-.19v-.66h-3.24v2.04h-1.31v-2.04h-.68v-1.05h.68v-3.18h2.27v-.48h-2.89v-1.06h1.58v-.49h-1.07v-1h1.07v-.47h-1.36v-1.06h1.36v-.96h1.31v.96h1.29v-.96h1.34v.96h1.36v1.06h-1.36v.47h1.17v1h-1.17v.49h1.59v1.06h-2.91v.48h2.34v3.18h.58v1.05Zm-5.18-3.18v.58h.96v-.58h-.96Zm0,2.13h.96v-.63h-.96v.63Zm.96-6.2h1.29v-.47h-1.29v.47Zm0,1.49h1.29v-.49h-1.29v.49Zm1.3,2.58v.58h.98v-.58h-.98Zm.98,2.13v-.63h-.98v.63h.98Z" style="fill: #fff;"/>
        <path d="M59.15,17.71c-.45,.13-.89,.28-1.36,.42v4.49h-1.37v-4.07c-.68,.2-1.31,.4-1.89,.55l-.37-1.42c.63-.14,1.4-.34,2.26-.58v-2.41h-.84c-.14,.62-.29,1.16-.47,1.61-.23-.19-.78-.53-1.06-.69,.39-1,.61-2.57,.72-4.06l1.25,.21c-.05,.5-.11,1-.19,1.5h.59v-2.42h1.37v2.42h1.05v1.42h-1.05v2.03l1.16-.33,.2,1.32Zm6.78-4.93s-.01,.5-.03,.68c-.24,5.62-.47,7.68-.95,8.31-.29,.43-.57,.57-.98,.66-.35,.06-.88,.06-1.42,.04-.04-.43-.19-1.05-.42-1.46,.47,.05,.88,.05,1.12,.05,.19,0,.31-.05,.47-.24,.32-.4,.54-2.12,.74-6.64h-.06c-.62,3.18-1.92,6.45-3.95,8.13-.29-.29-.81-.66-1.22-.87,2.02-1.45,3.28-4.31,3.91-7.26h-.59c-.55,2.05-1.61,4.31-2.89,5.52-.28-.29-.76-.63-1.15-.84,1.25-.98,2.23-2.85,2.79-4.68h-.64c-.37,.87-.81,1.65-1.3,2.26-.24-.24-.83-.66-1.13-.84,1-1.1,1.69-2.9,2.07-4.75l1.36,.25c-.13,.58-.29,1.15-.47,1.7h4.74Z" style="fill: #fff;"/>
        <path d="M80.33,20.91h-5.03v1.7h-1.54v-1.7h-4.88v-1.35h4.88v-.68h-3.63v-5.05h3.63v-.6h-4.58v-1.36h4.58v-1.02h1.54v1.02h4.66v1.36h-4.66v.6h3.72v5.05h-3.72v.68h5.03v1.35Zm-8.76-5.12h2.19v-.77h-2.19v.77Zm2.19,1.89v-.77h-2.19v.77h2.19Zm1.54-2.66v.77h2.21v-.77h-2.21Zm2.21,1.89h-2.21v.77h2.21v-.77Z" style="fill: #fff;"/>
      </g>
    </g>
  </g>
</svg>