<?xml version="1.0" encoding="UTF-8"?>
<svg id="b" data-name="圖層 2" xmlns="http://www.w3.org/2000/svg" width="72.05" height="21.53" viewBox="0 0 72.05 21.53">
  <defs>
    <style>
      .d {
        fill: none;
        stroke: #e95529;
        stroke-miterlimit: 10;
        stroke-width: 1.5px;
      }

      .e {
        fill: #e95529;
      }
    </style>
  </defs>
  <g id="c" data-name="圖層 1">
    <polyline class="d" points="71.83 20.78 1.17 20.78 6.98 8.24"/>
    <g>
      <path class="e" d="M29.28,.22h3.49c2.39,0,4.03,.8,4.03,2.87,0,1.17-.62,2.19-1.73,2.54v.08c1.41,.27,2.4,1.2,2.4,2.8,0,2.3-1.82,3.44-4.45,3.44h-3.75V.22Zm3.23,4.99c2.02,0,2.83-.75,2.83-1.94,0-1.38-.94-1.89-2.77-1.89h-1.81v3.83h1.74Zm.3,5.55c2.02,0,3.2-.72,3.2-2.3,0-1.46-1.15-2.11-3.2-2.11h-2.05v4.42h2.05Z"/>
      <path class="e" d="M46.45,8.37h-4.29l-1.14,3.58h-1.5L43.5,.22h1.65l3.99,11.73h-1.57l-1.12-3.58Zm-.37-1.18l-.56-1.79c-.43-1.33-.8-2.61-1.18-3.97h-.06c-.37,1.38-.75,2.64-1.17,3.97l-.58,1.79h3.55Z"/>
      <path class="e" d="M51.21,6.1c0-3.79,2.23-6.1,5.2-6.1,1.42,0,2.54,.7,3.22,1.46l-.8,.96c-.61-.66-1.39-1.12-2.4-1.12-2.23,0-3.7,1.82-3.7,4.75s1.41,4.82,3.65,4.82c1.12,0,1.97-.5,2.72-1.31l.82,.93c-.93,1.07-2.08,1.68-3.6,1.68-2.91,0-5.11-2.26-5.11-6.07Z"/>
      <path class="e" d="M63.37,.22h1.49V6.11h.05L69.81,.22h1.66l-3.67,4.47,4.24,7.27h-1.67l-3.51-6.11-2.02,2.4v3.71h-1.49V.22Z"/>
    </g>
  </g>
</svg>