<?xml version="1.0" encoding="UTF-8"?>
<svg id="b" data-name="圖層 2" xmlns="http://www.w3.org/2000/svg" width="67.15" height="67.15" viewBox="0 0 67.15 67.15">
  <g id="c" data-name="文字">
    <g>
      <circle cx="33.57" cy="33.57" r="33.57" style="fill: #fff;"/>
      <g>
        <path d="M31.48,0c1.4,0,2.8,0,4.2,0,1.12,.14,2.25,.25,3.36,.44,6.3,1.07,11.89,3.69,16.68,7.94,5.87,5.21,9.54,11.67,10.92,19.41,.22,1.22,.35,2.46,.52,3.69v4.2c-.1,.82-.19,1.64-.31,2.46-.96,6.71-3.65,12.63-8.16,17.68-5.17,5.8-11.6,9.43-19.26,10.81-1.24,.22-2.5,.35-3.75,.52h-4.2c-.82-.1-1.64-.19-2.46-.31-6.68-.96-12.59-3.63-17.63-8.12C5.56,53.55,1.92,47.11,.52,39.42,.3,38.18,.17,36.92,0,35.67c0-1.4,0-2.8,0-4.2,.1-.82,.19-1.64,.3-2.46,1.06-7.32,4.14-13.65,9.32-18.93C14.65,4.97,20.71,1.76,27.79,.52c1.22-.21,2.46-.35,3.68-.52Zm2.1,52.06c5.68,0,11.37,0,17.05,0,2.82,0,4.59-1.77,4.59-4.58,0-7.48,0-14.95,0-22.43,0-2.78-1.77-4.56-4.54-4.56-2.27,0-4.55,0-6.82,0-.39,0-.58-.11-.71-.48-.43-1.19-.89-2.37-1.35-3.55-.39-1-.92-1.36-1.99-1.36-4.15,0-8.31,0-12.46,0-1.07,0-1.6,.37-1.99,1.37-.45,1.16-.91,2.31-1.32,3.49-.15,.43-.36,.55-.8,.55-2.23-.02-4.46-.01-6.69,0-2.86,0-4.6,1.76-4.6,4.63,0,7.41,0,14.82,0,22.23,0,3,1.72,4.71,4.72,4.71,5.64,0,11.28,0,16.92,0Z" style="fill: #9e9e9f;"/>
        <path d="M33.52,48.56c-5.62,0-11.23,0-16.85,0-1.12,0-1.25-.13-1.25-1.24,0-7.37,0-14.73,0-22.1,0-1.12,.14-1.25,1.24-1.25,2.64,0,5.29,0,7.93,0,1.25,0,1.73-.33,2.17-1.48,.44-1.14,.89-2.28,1.3-3.43,.13-.37,.33-.49,.71-.48,3.19,.01,6.38,.02,9.57,0,.42,0,.61,.13,.75,.53,.39,1.11,.84,2.2,1.26,3.3,.49,1.28,.91,1.57,2.31,1.57,2.62,0,5.25,0,7.87,0,1.05,0,1.2,.15,1.2,1.23,0,7.37,0,14.73,0,22.1,0,1.12-.13,1.26-1.23,1.26-5.66,0-11.32,0-16.98,0Zm.03-2.62c6,.02,10.9-4.85,10.91-10.84,.01-6-4.83-10.89-10.83-10.94-5.97-.04-10.92,4.86-10.94,10.82-.02,6.05,4.82,10.94,10.86,10.95Z" style="fill: #9e9e9f;"/>
        <path d="M26.16,34.98c.1-4.2,3.45-7.41,7.65-7.31,4.01,.09,7.29,3.53,7.18,7.52-.11,4.15-3.49,7.39-7.62,7.3-4-.09-7.3-3.53-7.21-7.51Z" style="fill: #9e9e9f;"/>
      </g>
    </g>
  </g>
</svg>