<?xml version="1.0" encoding="UTF-8"?>
<svg id="b" data-name="圖層 2" xmlns="http://www.w3.org/2000/svg" width="16.95" height="16.95" viewBox="0 0 16.95 16.95">
  <g id="c" data-name="圖層 2">
    <g>
      <circle cx="8.47" cy="8.47" r="8.47" style="fill: #fff;"/>
      <g>
        <path d="M7.94,0c.35,0,.71,0,1.06,0,.28,.04,.57,.06,.85,.11,1.59,.27,3,.93,4.21,2,1.48,1.31,2.41,2.95,2.76,4.9,.05,.31,.09,.62,.13,.93v1.06c-.03,.21-.05,.41-.08,.62-.24,1.69-.92,3.19-2.06,4.46-1.31,1.46-2.93,2.38-4.86,2.73-.31,.06-.63,.09-.95,.13h-1.06c-.21-.03-.41-.05-.62-.08-1.69-.24-3.18-.92-4.45-2.05C1.4,13.51,.48,11.89,.13,9.95,.08,9.64,.04,9.32,0,9c0-.35,0-.71,0-1.06,.03-.21,.05-.41,.08-.62,.27-1.85,1.05-3.44,2.35-4.78C3.7,1.25,5.23,.44,7.01,.13c.31-.05,.62-.09,.93-.13Zm.53,13.14c1.43,0,2.87,0,4.3,0,.71,0,1.16-.45,1.16-1.16,0-1.89,0-3.77,0-5.66,0-.7-.45-1.15-1.15-1.15-.57,0-1.15,0-1.72,0-.1,0-.15-.03-.18-.12-.11-.3-.22-.6-.34-.9-.1-.25-.23-.34-.5-.34-1.05,0-2.1,0-3.14,0-.27,0-.4,.09-.5,.34-.11,.29-.23,.58-.33,.88-.04,.11-.09,.14-.2,.14-.56,0-1.13,0-1.69,0-.72,0-1.16,.44-1.16,1.17,0,1.87,0,3.74,0,5.61,0,.76,.43,1.19,1.19,1.19,1.42,0,2.85,0,4.27,0Z" style="fill: #9e9e9f;"/>
        <path d="M8.46,12.25c-1.42,0-2.83,0-4.25,0-.28,0-.32-.03-.32-.31,0-1.86,0-3.72,0-5.58,0-.28,.03-.32,.31-.32,.67,0,1.33,0,2,0,.32,0,.44-.08,.55-.37,.11-.29,.22-.57,.33-.86,.03-.09,.08-.12,.18-.12,.81,0,1.61,0,2.42,0,.11,0,.15,.03,.19,.13,.1,.28,.21,.56,.32,.83,.12,.32,.23,.4,.58,.4,.66,0,1.32,0,1.99,0,.27,0,.3,.04,.3,.31,0,1.86,0,3.72,0,5.58,0,.28-.03,.32-.31,.32-1.43,0-2.86,0-4.29,0Zm0-.66c1.51,0,2.75-1.22,2.75-2.74,0-1.51-1.22-2.75-2.73-2.76-1.51-.01-2.76,1.23-2.76,2.73,0,1.53,1.22,2.76,2.74,2.76Z" style="fill: #9e9e9f;"/>
        <path d="M6.6,8.83c.02-1.06,.87-1.87,1.93-1.85,1.01,.02,1.84,.89,1.81,1.9-.03,1.05-.88,1.86-1.92,1.84-1.01-.02-1.84-.89-1.82-1.89Z" style="fill: #9e9e9f;"/>
      </g>
    </g>
  </g>
</svg>