<?xml version="1.0" encoding="UTF-8"?>
<svg id="b" data-name="圖層 2" xmlns="http://www.w3.org/2000/svg" width="17.37" height="17.18" viewBox="0 0 17.37 17.18">
  <defs>
    <style>
      .d {
        fill: #fff;
      }
    </style>
  </defs>
  <g id="c" data-name="文字">
    <g>
      <path class="d" d="M8.81,0c.18,.01,.49,.02,.8,.05,.75,.08,1.48,.25,2.19,.52,.84,.32,1.61,.75,2.31,1.31,.42,.33,.81,.7,1.17,1.11,.58,.67,1.05,1.41,1.4,2.22,.23,.53,.41,1.09,.52,1.66,.05,.27,.09,.55,.13,.83,.05,.37,.06,.74,.05,1.12-.01,.39-.05,.78-.11,1.17-.2,1.21-.65,2.33-1.33,3.35-.38,.57-.82,1.08-1.32,1.54-.66,.61-1.39,1.1-2.2,1.48-.59,.28-1.19,.49-1.83,.62-.31,.06-.61,.11-.92,.16-.42,.06-.84,.07-1.27,.05-.28-.01-.56-.03-.84-.07-1.47-.2-2.81-.73-4.02-1.6-.48-.35-.92-.75-1.32-1.19-.62-.68-1.12-1.45-1.49-2.29-.25-.56-.44-1.14-.55-1.75-.06-.3-.1-.6-.14-.9-.04-.38-.05-.76-.03-1.14,.06-1.33,.41-2.58,1.05-3.74,.3-.55,.66-1.07,1.08-1.54,.82-.92,1.78-1.64,2.9-2.15,.59-.27,1.21-.47,1.84-.61,.25-.05,.5-.09,.75-.12,.35-.05,.7-.06,1.17-.07Zm-.29,16.05c.47,0,.8-.02,1.12-.07,.23-.04,.47-.07,.7-.12,.69-.15,1.35-.4,1.97-.74,.9-.49,1.66-1.14,2.3-1.94,.51-.65,.91-1.36,1.19-2.14,.24-.66,.38-1.34,.42-2.03,.02-.39,.03-.77-.02-1.16-.03-.26-.06-.53-.11-.79-.09-.49-.24-.96-.43-1.42-.49-1.17-1.23-2.16-2.22-2.96-.66-.54-1.39-.95-2.19-1.24-.48-.18-.98-.3-1.48-.37-.26-.04-.53-.05-.79-.07-.4-.03-.81,0-1.21,.04-.26,.03-.52,.08-.78,.14-.57,.12-1.12,.32-1.64,.57-.64,.31-1.22,.7-1.75,1.18-.39,.35-.74,.73-1.05,1.15-.87,1.19-1.35,2.53-1.45,4-.02,.31-.02,.62,0,.94,.02,.32,.07,.64,.13,.96,.12,.59,.3,1.16,.56,1.71,.49,1.05,1.19,1.94,2.1,2.67,.53,.43,1.11,.78,1.73,1.05,.67,.29,1.37,.48,2.1,.57,.31,.04,.62,.05,.79,.06Z"/>
      <g>
        <path class="d" d="M9.55,11.26h-1.86c0-.1-.01-.2,0-.31,0-.22,0-.43,.02-.65,.05-.5,.18-.97,.5-1.38,.17-.21,.34-.42,.55-.59,.28-.25,.57-.48,.85-.72,.21-.18,.42-.37,.61-.56,.17-.17,.27-.39,.31-.63,.07-.4-.02-.76-.28-1.08-.23-.28-.52-.46-.87-.55-.28-.07-.57-.09-.86-.06-.35,.03-.66,.14-.95,.34-.32,.22-.53,.53-.68,.89-.07,.18-.11,.36-.17,.54v.04l-1.91-.24c.02-.28,.07-.56,.16-.82,.16-.48,.43-.89,.78-1.24,.51-.52,1.13-.84,1.85-.99,.4-.08,.81-.12,1.22-.11,.52,.01,1.04,.08,1.53,.26,.6,.21,1.11,.56,1.53,1.05,.3,.35,.51,.73,.61,1.18,.18,.79,.02,1.5-.48,2.13-.25,.32-.53,.6-.83,.86-.29,.26-.59,.51-.88,.76-.17,.15-.34,.32-.48,.5-.13,.17-.2,.37-.22,.58-.02,.26-.04,.52-.06,.79Z"/>
        <path class="d" d="M9.75,14.04h-2.06v-2.06h2.06v2.06Z"/>
      </g>
    </g>
  </g>
</svg>