<?xml version="1.0" encoding="UTF-8"?>
<svg id="b" data-name="圖層 2" xmlns="http://www.w3.org/2000/svg" width="36.57" height="36.16" viewBox="0 0 36.57 36.16">
  <defs>
    <style>
      .d {
        fill: #fff;
      }
    </style>
  </defs>
  <g id="c" data-name="bar">
    <g>
      <path class="d" d="M18.55,0c.39,.02,1.03,.04,1.68,.11,1.58,.16,3.12,.53,4.6,1.09,1.76,.67,3.39,1.59,4.87,2.76,.89,.7,1.71,1.48,2.46,2.34,1.22,1.41,2.21,2.97,2.95,4.68,.49,1.12,.86,2.28,1.1,3.49,.11,.58,.19,1.16,.27,1.75,.1,.78,.12,1.56,.1,2.35-.02,.82-.1,1.64-.24,2.46-.43,2.55-1.36,4.9-2.8,7.05-.79,1.19-1.72,2.27-2.77,3.24-1.38,1.27-2.92,2.31-4.62,3.11-1.23,.58-2.51,1.03-3.85,1.31-.64,.13-1.29,.24-1.94,.33-.88,.12-1.78,.14-2.67,.1-.59-.02-1.18-.07-1.77-.14-3.1-.41-5.92-1.53-8.45-3.37-1.01-.74-1.94-1.57-2.78-2.5-1.3-1.44-2.35-3.05-3.13-4.83-.52-1.18-.93-2.41-1.16-3.68-.12-.63-.21-1.26-.28-1.9-.09-.8-.1-1.6-.06-2.4,.13-2.8,.86-5.43,2.21-7.88,.64-1.16,1.4-2.24,2.28-3.24,1.72-1.94,3.76-3.45,6.11-4.53,1.25-.57,2.54-1,3.88-1.27,.52-.11,1.05-.18,1.58-.26,.73-.1,1.47-.13,2.46-.14Zm-.61,33.8c.99-.01,1.68-.04,2.36-.14,.49-.08,.99-.15,1.48-.26,1.46-.32,2.84-.85,4.16-1.57,1.89-1.03,3.5-2.39,4.84-4.08,1.08-1.36,1.92-2.86,2.5-4.5,.5-1.39,.79-2.81,.89-4.28,.05-.81,.06-1.63-.04-2.44-.07-.55-.13-1.11-.24-1.66-.19-1.02-.5-2.02-.91-2.98-1.04-2.46-2.59-4.54-4.67-6.23-1.39-1.13-2.93-1.99-4.61-2.6-1.01-.37-2.05-.64-3.12-.78-.55-.08-1.11-.11-1.66-.15-.85-.06-1.7-.02-2.54,.09-.55,.07-1.1,.17-1.65,.28-1.2,.25-2.35,.67-3.46,1.2-1.35,.65-2.58,1.48-3.69,2.47-.82,.73-1.56,1.54-2.2,2.43-1.83,2.51-2.85,5.32-3.04,8.43-.04,.66-.03,1.31,.01,1.97,.05,.68,.14,1.36,.27,2.03,.25,1.25,.64,2.45,1.18,3.6,1.04,2.21,2.51,4.09,4.42,5.63,1.12,.9,2.34,1.64,3.65,2.21,1.42,.62,2.89,1.02,4.42,1.2,.65,.08,1.31,.1,1.66,.13Z"/>
      <g>
        <path class="d" d="M20.1,23.69h-3.91c0-.21-.02-.43-.02-.64,0-.45,0-.91,.04-1.36,.1-1.06,.38-2.05,1.04-2.91,.35-.45,.72-.88,1.15-1.25,.59-.52,1.2-1.01,1.79-1.53,.44-.38,.88-.77,1.29-1.18,.37-.36,.57-.82,.66-1.32,.14-.84-.05-1.6-.59-2.27-.48-.59-1.09-.96-1.82-1.15-.59-.15-1.19-.18-1.8-.13-.73,.06-1.4,.29-2,.71-.67,.47-1.13,1.11-1.42,1.86-.15,.37-.24,.76-.36,1.14l-.03,.08-3.99-.5c.04-.6,.14-1.18,.33-1.74,.34-1,.9-1.86,1.65-2.61,1.08-1.09,2.39-1.76,3.89-2.08,.85-.18,1.7-.24,2.56-.22,1.1,.03,2.18,.18,3.23,.55,1.27,.45,2.34,1.18,3.21,2.21,.62,.73,1.08,1.55,1.29,2.49,.37,1.65,.04,3.16-1.01,4.49-.52,.66-1.12,1.26-1.75,1.82-.61,.54-1.23,1.07-1.85,1.6-.37,.32-.71,.67-1.01,1.06-.28,.36-.41,.77-.46,1.21-.05,.55-.08,1.1-.12,1.66Z"/>
        <path class="d" d="M20.52,29.56h-4.34v-4.35h4.34v4.35Z"/>
      </g>
    </g>
  </g>
</svg>