<?xml version="1.0" encoding="UTF-8"?>
<svg id="b" data-name="圖層 2" xmlns="http://www.w3.org/2000/svg" width="10.74" height="10.7" viewBox="0 0 10.74 10.7">
  <defs>
    <style>
      .d {
        fill: #dbdcdc;
      }
    </style>
  </defs>
  <g id="c" data-name="文字">
    <g>
      <path class="d" d="M10.74,1.93c-.06,.23-.22,.4-.38,.56-.31,.3-.61,.61-.9,.9L7.27,1.2s.03-.03,.05-.05c.28-.28,.55-.55,.83-.83,.43-.43,1.01-.43,1.43,0,.27,.26,.53,.53,.8,.79,.16,.16,.31,.32,.37,.55v.27Z"/>
      <path class="d" d="M0,10.37c.06-.27,.13-.54,.19-.81,.12-.54,.24-1.08,.36-1.6l2.16,2.16-.48,.12c-.62,.15-1.24,.3-1.86,.45-.17,.04-.28,0-.37-.15v-.17Z"/>
      <path class="d" d="M6.69,1.82l2.15,2.15L3.33,9.49,1.18,7.33,6.69,1.82Z"/>
    </g>
  </g>
</svg>