<?xml version="1.0" encoding="UTF-8"?>
<svg id="b" data-name="圖層 2" xmlns="http://www.w3.org/2000/svg" width="50.41" height="50.41" viewBox="0 0 50.41 50.41">
  <defs>
    <style>
      .f {
        fill: #9e9e9f;
      }
    </style>
  </defs>
  <g id="c" data-name="b">
    <g id="d" data-name="c">
      <g id="e" data-name="d">
        <circle cx="25.21" cy="25.21" r="25.21"/>
        <path class="f" d="M25.21,.15C11.29,.15,0,11.44,0,25.36c0,12.56,9.21,22.99,21.25,24.89v-17.61h-6.41v-7.28h6.41v-5.56c0-6.31,3.75-9.8,9.52-9.8,2.75,0,5.64,.48,5.64,.48v6.2h-3.17c-3.13,0-4.1,1.93-4.1,3.93v4.72h6.99l-1.12,7.28h-5.87v17.61c12.04-1.9,21.25-12.31,21.25-24.89C50.4,11.44,39.12,.15,25.21,.15Z"/>
      </g>
    </g>
  </g>
</svg>