<?xml version="1.0" encoding="UTF-8"?>
<svg id="b" data-name="圖層 2" xmlns="http://www.w3.org/2000/svg" width="65.65" height="65.65" viewBox="0 0 65.65 65.65">
  <defs>
    <style>
      .e {
        fill: #9e9e9f;
      }
    </style>
  </defs>
  <g id="c" data-name="b">
    <g id="d" data-name="c">
      <circle cx="32.83" cy="32.83" r="32.83"/>
      <path class="e" d="M32.83,.2C14.7,.2,0,14.9,0,33.03c0,16.36,12,29.95,27.68,32.42v-22.94h-8.35v-9.48h8.35v-7.24c0-8.22,4.89-12.76,12.4-12.76,3.58,0,7.34,.63,7.34,.63v8.07h-4.13c-4.08,0-5.34,2.52-5.34,5.12v6.15h9.1l-1.46,9.48h-7.64v22.94c15.68-2.47,27.68-16.03,27.68-32.42C65.65,14.9,50.95,.2,32.83,.2Z"/>
    </g>
  </g>
</svg>