<?xml version="1.0" encoding="UTF-8"?>
<svg id="b" data-name="圖層 2" xmlns="http://www.w3.org/2000/svg" width="26.03" height="25.96" viewBox="0 0 26.03 25.96">
  <defs>
    <style>
      .d {
        fill: #fff;
      }

      .e {
        fill: #9e3147;
      }
    </style>
  </defs>
  <g id="c" data-name="b">
    <circle class="e" cx="13.02" cy="13.13" r="12.83"/>
    <path class="d" d="M13.02,0C5.83,0,0,5.83,0,13.02c0,6.49,4.76,11.88,10.98,12.86v-9.1h-3.31v-3.76h3.31v-2.87c0-3.26,1.94-5.06,4.92-5.06,1.42,0,2.91,.25,2.91,.25v3.2h-1.64c-1.62,0-2.12,1-2.12,2.03v2.44h3.61l-.58,3.76h-3.03v9.1c6.22-.98,10.98-6.36,10.98-12.86,.01-7.18-5.82-13.01-13.01-13.01Z"/>
  </g>
</svg>