<?xml version="1.0" encoding="UTF-8"?>
<svg id="b" data-name="圖層 2" xmlns="http://www.w3.org/2000/svg" width="26.04" height="26.04" viewBox="0 0 26.04 26.04">
  <defs>
    <style>
      .d {
        fill: #9e9e9f;
      }
    </style>
  </defs>
  <g id="c" data-name="照片">
    <circle cx="13.02" cy="13.02" r="13.02"/>
    <path class="d" d="M13.02,.08C5.83,.08,0,5.91,0,13.1,0,19.59,4.76,24.98,10.98,25.96v-9.1h-3.31v-3.76h3.31v-2.87c0-3.26,1.94-5.06,4.92-5.06,1.42,0,2.91,.25,2.91,.25v3.2h-1.64c-1.62,0-2.12,1-2.12,2.03v2.44h3.61l-.58,3.76h-3.03v9.1c6.22-.98,10.98-6.36,10.98-12.86C26.04,5.91,20.21,.08,13.02,.08Z"/>
  </g>
</svg>