<?xml version="1.0" encoding="UTF-8"?>
<svg id="b" data-name="圖層 2" xmlns="http://www.w3.org/2000/svg" width="36.39" height="33.93" viewBox="0 0 36.39 33.93">
  <g id="c" data-name="bar">
    <path d="M18.18,33.93l-1.78-1.64c-.6-.56-1.2-1.12-1.81-1.65l-3.1-2.73c-1.73-1.52-3.46-3.04-5.17-4.58-1.62-1.46-3.44-3.27-4.68-5.66-.85-1.63-1.35-3.39-1.53-5.38-.15-1.7-.25-3.51,.36-5.33C1.69,3.26,4.31,.92,8.04,.22c3.99-.75,7.43,.53,10.14,3.77,1.77-2.14,3.97-3.44,6.54-3.86,.55-.09,1.11-.13,1.66-.13,4.86,0,8.85,3.22,9.71,7.84,.99,5.3-.51,10.06-4.32,13.78-1.43,1.4-2.93,2.73-4.42,4.07l-9.17,8.25ZM10.2,2.73c-.53,0-1.09,.06-1.66,.16-2.77,.52-4.57,2.13-5.49,4.92-.44,1.33-.36,2.76-.23,4.24,.14,1.63,.55,3.06,1.23,4.36,1.05,2,2.66,3.6,4.09,4.89,1.7,1.53,3.42,3.05,5.15,4.56l3.11,2.74c.61,.54,1.2,1.09,1.8,1.65l7.34-6.6c1.46-1.31,2.93-2.62,4.33-3.99,3.18-3.1,4.37-6.91,3.55-11.33-.72-3.86-4.15-5.62-7.04-5.62-.41,0-.82,.03-1.23,.1-2.15,.35-3.89,1.49-5.34,3.5l-1.67,2.39-1.44-2.18c-1.83-2.55-3.96-3.79-6.5-3.79Z" style="fill: #595757;"/>
  </g>
</svg>