<?xml version="1.0" encoding="UTF-8"?>
<svg id="b" data-name="圖層 2" xmlns="http://www.w3.org/2000/svg" width="19.71" height="18.27" viewBox="0 0 19.71 18.27">
  <defs>
    <style>
      .e {
        fill: none;
        stroke: #000;
        stroke-miterlimit: 10;
        stroke-width: 1.1px;
      }
    </style>
  </defs>
  <g id="c" data-name="b">
    <g id="d" data-name="c">
      <path class="e" d="M8.37,16.16c-1.52-1.35-3.06-2.68-4.57-4.04-.95-.85-1.83-1.77-2.43-2.92-.44-.85-.68-1.75-.76-2.69-.08-.89-.12-1.78,.16-2.64C1.35,2.11,2.56,.99,4.38,.65c2.25-.43,3.96,.5,5.26,2.31,.06,.09,.12,.18,.2,.31,.11-.16,.2-.29,.3-.42,.86-1.19,1.98-2,3.44-2.24,2.38-.38,4.93,.97,5.43,3.66,.49,2.65-.21,5.03-2.18,6.94-1.1,1.07-2.26,2.07-3.39,3.1-1.12,1.01-2.24,2.01-3.36,3.02-.07,.06-.14,.13-.24,.21,0,0-.97-.93-1.47-1.38Z"/>
    </g>
  </g>
</svg>