<?xml version="1.0" encoding="UTF-8"?>
<svg id="b" data-name="圖層 2" xmlns="http://www.w3.org/2000/svg" width="39.06" height="36.22" viewBox="0 0 39.06 36.22">
  <defs>
    <style>
      .f {
        fill: none;
        stroke: #fff;
        stroke-miterlimit: 10;
        stroke-width: 2.18px;
      }
    </style>
  </defs>
  <g id="c" data-name="照片">
    <g id="d" data-name="c">
      <g id="e" data-name="d">
        <path class="f" d="M16.59,32.04c-3.01-2.68-6.06-5.31-9.06-8.01-1.88-1.68-3.63-3.51-4.82-5.79-.87-1.68-1.35-3.47-1.51-5.33-.16-1.76-.24-3.53,.32-5.23C2.67,4.19,5.07,1.97,8.68,1.3c4.46-.85,7.85,.99,10.43,4.58,.12,.18,.24,.36,.4,.61,.22-.32,.4-.57,.59-.83,1.7-2.36,3.92-3.96,6.82-4.44,4.72-.75,9.77,1.92,10.76,7.25,.97,5.25-.42,9.97-4.32,13.75-2.18,2.12-4.48,4.1-6.72,6.14-2.22,2-4.44,3.98-6.66,5.99-.14,.12-.28,.26-.48,.42,0,0-1.92-1.84-2.91-2.74Z"/>
      </g>
    </g>
  </g>
</svg>