<?xml version="1.0" encoding="UTF-8"?>
<svg id="b" data-name="圖層 2" xmlns="http://www.w3.org/2000/svg" width="26.03" height="26.03" viewBox="0 0 26.03 26.03">
  <g id="c" data-name="圖層 2">
    <g>
      <circle cx="13.02" cy="13.02" r="13.02" style="fill: #fff;"/>
      <g>
        <path d="M19.41,8.18c-.15-.38-.33-.66-.61-.94s-.56-.46-.94-.61c-.29-.11-.72-.25-1.52-.28-.86-.04-1.12-.05-3.31-.05s-2.45,0-3.31,.05c-.8,.04-1.23,.17-1.52,.28-.38,.15-.66,.33-.94,.61s-.46,.56-.61,.94c-.11,.29-.25,.72-.28,1.52-.04,.86-.05,1.12-.05,3.31s0,2.45,.05,3.31c.04,.8,.17,1.23,.28,1.52,.15,.38,.33,.66,.61,.94s.56,.46,.94,.61c.29,.11,.72,.25,1.52,.28,.86,.04,1.12,.05,3.31,.05s2.45,0,3.31-.05c.8-.04,1.23-.17,1.52-.28,.38-.15,.66-.33,.94-.61s.46-.56,.61-.94c.11-.29,.25-.72,.28-1.52,.04-.86,.05-1.12,.05-3.31s0-2.45-.05-3.31c-.04-.8-.17-1.23-.28-1.52Zm-6.39,9.04c-2.32,0-4.21-1.88-4.21-4.21s1.88-4.21,4.21-4.21,4.21,1.88,4.21,4.21-1.88,4.21-4.21,4.21Zm4.38-7.6c-.54,0-.98-.44-.98-.98s.44-.98,.98-.98,.98,.44,.98,.98-.44,.98-.98,.98Z" style="fill: #9e9e9f;"/>
        <path d="M13.02,10.29c-1.51,0-2.73,1.22-2.73,2.73s1.22,2.73,2.73,2.73,2.73-1.22,2.73-2.73-1.22-2.73-2.73-2.73Z" style="fill: #9e9e9f;"/>
        <path d="M13.02,0C5.83,0,0,5.83,0,13.02s5.83,13.02,13.02,13.02,13.02-5.83,13.02-13.02S20.21,0,13.02,0Zm8.15,16.4c-.04,.87-.18,1.47-.38,1.99-.21,.54-.49,1-.95,1.45s-.91,.74-1.45,.95c-.52,.2-1.12,.34-1.99,.38-.87,.04-1.15,.05-3.38,.05s-2.5,0-3.38-.05c-.87-.04-1.47-.18-1.99-.38-.54-.21-1-.49-1.45-.95-.46-.46-.74-.91-.95-1.45-.2-.52-.34-1.12-.38-1.99-.04-.87-.05-1.15-.05-3.38s0-2.51,.05-3.38c.04-.87,.18-1.47,.38-1.99,.21-.54,.49-1,.95-1.45s.91-.74,1.45-.95c.52-.2,1.12-.34,1.99-.38,.87-.04,1.15-.05,3.38-.05s2.51,0,3.38,.05c.87,.04,1.47,.18,1.99,.38,.54,.21,1,.49,1.45,.95,.46,.46,.74,.91,.95,1.45,.2,.52,.34,1.12,.38,1.99,.04,.87,.05,1.15,.05,3.38s0,2.51-.05,3.38Z" style="fill: #9e9e9f;"/>
      </g>
    </g>
  </g>
</svg>