<?xml version="1.0" encoding="UTF-8"?>
<svg id="b" data-name="圖層 2" xmlns="http://www.w3.org/2000/svg" width="50.58" height="50.58" viewBox="0 0 50.58 50.58">
  <defs>
    <style>
      .f {
        fill: #9e9e9f;
      }
    </style>
  </defs>
  <g id="c" data-name="b">
    <g id="d" data-name="c">
      <g id="e" data-name="d">
        <circle cx="25.29" cy="25.29" r="25.29"/>
        <g>
          <path class="f" d="M37.71,15.89c-.29-.74-.64-1.28-1.18-1.83-.56-.56-1.09-.89-1.83-1.18-.56-.21-1.4-.48-2.96-.55-1.67-.08-2.17-.1-6.43-.1s-4.76,0-6.43,.1c-1.55,.08-2.39,.33-2.96,.55-.74,.29-1.28,.64-1.83,1.18s-.89,1.09-1.18,1.83c-.21,.56-.48,1.4-.55,2.96-.08,1.67-.1,2.17-.1,6.43s0,4.76,.1,6.43c.08,1.55,.33,2.39,.55,2.96,.29,.74,.64,1.28,1.18,1.83s1.09,.89,1.83,1.18c.56,.21,1.4,.48,2.96,.55,1.67,.08,2.17,.1,6.43,.1s4.76,0,6.43-.1c1.55-.08,2.39-.33,2.96-.55,.74-.29,1.28-.64,1.83-1.18s.89-1.09,1.18-1.83c.21-.56,.48-1.4,.55-2.96,.08-1.67,.1-2.17,.1-6.43s0-4.76-.1-6.43c-.08-1.55-.33-2.39-.55-2.96Zm-12.41,17.56c-4.51,0-8.18-3.65-8.18-8.18s3.65-8.18,8.18-8.18,8.18,3.65,8.18,8.18-3.65,8.18-8.18,8.18Zm8.51-14.76c-1.05,0-1.9-.85-1.9-1.9s.85-1.9,1.9-1.9,1.9,.85,1.9,1.9-.85,1.9-1.9,1.9Z"/>
          <circle class="f" cx="25.29" cy="25.29" r="5.31"/>
          <path class="f" d="M25.29,0C11.32,0,0,11.32,0,25.29s11.32,25.29,25.29,25.29,25.29-11.32,25.29-25.29S39.26,0,25.29,0Zm15.83,31.86c-.08,1.69-.35,2.86-.74,3.87-.41,1.05-.95,1.94-1.84,2.82-.89,.89-1.77,1.44-2.82,1.84-1.01,.39-2.17,.66-3.87,.74-1.69,.08-2.23,.1-6.56,.1s-4.88,0-6.56-.1c-1.69-.08-2.86-.35-3.87-.74-1.05-.41-1.94-.95-2.82-1.84-.89-.89-1.44-1.77-1.84-2.82-.39-1.01-.66-2.17-.74-3.87-.08-1.69-.1-2.23-.1-6.56s0-4.88,.1-6.56c.08-1.69,.35-2.86,.74-3.87,.41-1.05,.95-1.94,1.84-2.82,.89-.89,1.77-1.44,2.82-1.84,1.01-.39,2.17-.66,3.87-.74s2.23-.1,6.56-.1,4.88,0,6.56,.1c1.69,.08,2.86,.35,3.87,.74,1.05,.41,1.94,.95,2.82,1.84,.89,.89,1.44,1.77,1.84,2.82,.39,1.01,.66,2.17,.74,3.87,.08,1.69,.1,2.23,.1,6.56s0,4.88-.1,6.56Z"/>
        </g>
      </g>
    </g>
  </g>
</svg>