<?xml version="1.0" encoding="UTF-8"?>
<svg id="b" data-name="圖層 2" xmlns="http://www.w3.org/2000/svg" width="48.76" height="48.76" viewBox="0 0 48.76 48.76">
  <g id="c" data-name="bar">
    <g>
      <path d="M36.35,15.33c-.28-.72-.61-1.23-1.15-1.76s-1.05-.87-1.76-1.15c-.54-.21-1.35-.46-2.85-.53-1.62-.07-2.1-.09-6.2-.09s-4.58,.02-6.2,.09c-1.5,.07-2.31,.32-2.85,.53-.72,.28-1.23,.61-1.76,1.15s-.87,1.05-1.15,1.76c-.21,.54-.46,1.35-.53,2.85-.07,1.62-.09,2.1-.09,6.2s.02,4.58,.09,6.2c.07,1.5,.32,2.31,.53,2.85,.28,.72,.61,1.23,1.15,1.76s1.05,.87,1.76,1.15c.54,.21,1.35,.46,2.85,.53,1.62,.07,2.1,.09,6.2,.09s4.58-.02,6.2-.09c1.5-.07,2.31-.32,2.85-.53,.72-.28,1.23-.61,1.76-1.15s.87-1.05,1.15-1.76c.21-.54,.46-1.35,.53-2.85,.07-1.62,.09-2.1,.09-6.2s-.02-4.58-.09-6.2c-.07-1.5-.32-2.31-.53-2.85Zm-11.97,16.94c-4.35,0-7.88-3.53-7.88-7.88s3.53-7.88,7.88-7.88,7.88,3.53,7.88,7.88-3.53,7.88-7.88,7.88Zm8.19-14.23c-1.02,0-1.84-.82-1.84-1.84s.82-1.84,1.84-1.84,1.84,.82,1.84,1.84-.82,1.84-1.84,1.84Z" style="fill: #9e9e9f;"/>
      <path d="M24.38,19.26c-2.83,0-5.12,2.29-5.12,5.12s2.29,5.12,5.12,5.12,5.12-2.29,5.12-5.12-2.29-5.12-5.12-5.12Z" style="fill: #9e9e9f;"/>
      <path d="M24.38,0C10.91,0,0,10.92,0,24.38s10.91,24.38,24.38,24.38,24.38-10.91,24.38-24.38S37.84,0,24.38,0Zm15.26,30.71c-.07,1.63-.33,2.75-.71,3.73-.39,1.01-.92,1.87-1.77,2.72s-1.71,1.38-2.72,1.77c-.98,.38-2.09,.64-3.73,.71-1.64,.07-2.16,.09-6.33,.09s-4.69-.02-6.33-.09c-1.63-.07-2.75-.33-3.73-.71-1.01-.39-1.87-.92-2.72-1.77-.85-.85-1.38-1.71-1.77-2.72-.38-.98-.64-2.09-.71-3.73-.07-1.64-.09-2.16-.09-6.33s.02-4.69,.09-6.33c.07-1.63,.33-2.75,.71-3.73,.39-1.01,.92-1.87,1.77-2.72s1.71-1.38,2.72-1.77c.98-.38,2.09-.64,3.73-.71,1.64-.07,2.16-.09,6.33-.09s4.69,.02,6.33,.09c1.63,.07,2.75,.33,3.73,.71,1.01,.39,1.87,.92,2.72,1.77,.85,.85,1.38,1.71,1.77,2.72,.38,.98,.64,2.09,.71,3.73,.07,1.64,.09,2.16,.09,6.33s-.02,4.69-.09,6.33Z" style="fill: #9e9e9f;"/>
    </g>
  </g>
</svg>