<?xml version="1.0" encoding="UTF-8"?>
<svg id="b" data-name="圖層 2" xmlns="http://www.w3.org/2000/svg" width="65.89" height="65.89" viewBox="0 0 65.89 65.89">
  <defs>
    <style>
      .e {
        fill: #9e9e9f;
      }
    </style>
  </defs>
  <g id="c" data-name="b">
    <g id="d" data-name="c">
      <circle cx="32.94" cy="32.94" r="32.94"/>
      <g>
        <path class="e" d="M49.11,20.7c-.38-.96-.84-1.67-1.54-2.38-.73-.73-1.42-1.16-2.38-1.54-.73-.28-1.82-.63-3.85-.71-2.18-.1-2.83-.13-8.38-.13s-6.2,0-8.38,.13c-2.02,.1-3.11,.43-3.85,.71-.96,.38-1.67,.84-2.38,1.54s-1.16,1.42-1.54,2.38c-.28,.73-.63,1.82-.71,3.85-.1,2.18-.13,2.83-.13,8.38s0,6.2,.13,8.38c.1,2.02,.43,3.11,.71,3.85,.38,.96,.84,1.67,1.54,2.38s1.42,1.16,2.38,1.54c.73,.28,1.82,.63,3.85,.71,2.18,.1,2.83,.13,8.38,.13s6.2,0,8.38-.13c2.02-.1,3.11-.43,3.85-.71,.96-.38,1.67-.84,2.38-1.54s1.16-1.42,1.54-2.38c.28-.73,.63-1.82,.71-3.85,.1-2.18,.13-2.83,.13-8.38s0-6.2-.13-8.38c-.1-2.02-.43-3.11-.71-3.85Zm-16.17,22.87c-5.87,0-10.65-4.76-10.65-10.65s4.76-10.65,10.65-10.65,10.65,4.76,10.65,10.65-4.76,10.65-10.65,10.65Zm11.08-19.23c-1.37,0-2.48-1.11-2.48-2.48s1.11-2.48,2.48-2.48,2.48,1.11,2.48,2.48-1.11,2.48-2.48,2.48Z"/>
        <circle class="e" cx="32.94" cy="32.94" r="6.91"/>
        <path class="e" d="M32.94,0C14.75,0,0,14.75,0,32.94s14.75,32.94,32.94,32.94,32.94-14.75,32.94-32.94S51.14,0,32.94,0Zm20.62,41.5c-.1,2.2-.46,3.72-.96,5.04-.53,1.37-1.24,2.53-2.4,3.67-1.16,1.16-2.3,1.87-3.67,2.4-1.32,.51-2.83,.86-5.04,.96-2.2,.1-2.91,.13-8.55,.13s-6.35,0-8.55-.13c-2.2-.1-3.72-.46-5.04-.96-1.37-.53-2.53-1.24-3.67-2.4-1.16-1.16-1.87-2.3-2.4-3.67-.51-1.32-.86-2.83-.96-5.04-.1-2.2-.13-2.91-.13-8.55s0-6.35,.13-8.55c.1-2.2,.46-3.72,.96-5.04,.53-1.37,1.24-2.53,2.4-3.67,1.16-1.16,2.3-1.87,3.67-2.4,1.32-.51,2.83-.86,5.04-.96s2.91-.13,8.55-.13,6.35,0,8.55,.13c2.2,.1,3.72,.46,5.04,.96,1.37,.53,2.53,1.24,3.67,2.4,1.16,1.16,1.87,2.3,2.4,3.67,.51,1.32,.86,2.83,.96,5.04,.1,2.2,.13,2.91,.13,8.55s0,6.35-.13,8.55Z"/>
      </g>
    </g>
  </g>
</svg>