<?xml version="1.0" encoding="UTF-8"?>
<svg id="b" data-name="圖層 2" xmlns="http://www.w3.org/2000/svg" width="26.04" height="26.04" viewBox="0 0 26.04 26.04">
  <defs>
    <style>
      .d {
        fill: #fff;
      }

      .e {
        fill: #9e3147;
      }
    </style>
  </defs>
  <g id="c" data-name="b">
    <circle class="e" cx="13.02" cy="13.05" r="12.39"/>
    <path class="d" d="M19.41,8.18c-.15-.38-.33-.66-.61-.94-.29-.29-.56-.46-.94-.61-.29-.11-.72-.25-1.52-.28-.86-.04-1.12-.05-3.31-.05s-2.45,0-3.31,.05c-.8,.04-1.23,.17-1.52,.28-.38,.15-.66,.33-.94,.61s-.46,.56-.61,.94c-.11,.29-.25,.72-.28,1.52-.04,.86-.05,1.12-.05,3.31s0,2.45,.05,3.31c.04,.8,.17,1.23,.28,1.52,.15,.38,.33,.66,.61,.94s.56,.46,.94,.61c.29,.11,.72,.25,1.52,.28,.86,.04,1.12,.05,3.31,.05s2.45,0,3.31-.05c.8-.04,1.23-.17,1.52-.28,.38-.15,.66-.33,.94-.61s.46-.56,.61-.94c.11-.29,.25-.72,.28-1.52,.04-.86,.05-1.12,.05-3.31s0-2.45-.05-3.31c-.04-.8-.17-1.23-.28-1.52Zm-6.39,9.04c-2.32,0-4.21-1.88-4.21-4.21s1.88-4.21,4.21-4.21,4.21,1.88,4.21,4.21-1.88,4.21-4.21,4.21Zm4.38-7.6c-.54,0-.98-.44-.98-.98s.44-.98,.98-.98,.98,.44,.98,.98-.44,.98-.98,.98Z"/>
    <circle class="d" cx="13.02" cy="13.02" r="2.73"/>
    <path class="d" d="M13.02,0C5.83,0,0,5.83,0,13.02s5.83,13.02,13.02,13.02,13.02-5.83,13.02-13.02S20.21,0,13.02,0Zm8.15,16.4c-.04,.87-.18,1.47-.38,1.99-.21,.54-.49,1-.95,1.45-.46,.46-.91,.74-1.45,.95-.52,.2-1.12,.34-1.99,.38-.87,.04-1.15,.05-3.38,.05s-2.51,0-3.38-.05c-.87-.04-1.47-.18-1.99-.38-.54-.21-1-.49-1.45-.95-.46-.46-.74-.91-.95-1.45-.2-.52-.34-1.12-.38-1.99-.04-.87-.05-1.15-.05-3.38s0-2.51,.05-3.38c.04-.87,.18-1.47,.38-1.99,.21-.54,.49-1,.95-1.45,.46-.46,.91-.74,1.45-.95,.52-.2,1.12-.34,1.99-.38s1.15-.05,3.38-.05,2.51,0,3.38,.05c.87,.04,1.47,.18,1.99,.38,.54,.21,1,.49,1.45,.95,.46,.46,.74,.91,.95,1.45,.2,.52,.34,1.12,.38,1.99,.04,.87,.05,1.15,.05,3.38s0,2.51-.05,3.38Z"/>
  </g>
</svg>