<?xml version="1.0" encoding="UTF-8"?>
<svg id="b" data-name="圖層 2" xmlns="http://www.w3.org/2000/svg" width="300" height="105.96" viewBox="0 0 300 105.96">
  <g id="c" data-name="b">
    <g id="d" data-name="c">
      <g>
        <path d="M73.27,43.45h-7.16V1.33h23.51c1.69,0,3.52,.1,5.49,.33s3.85,.77,5.57,1.67c1.75,.9,3.18,2.26,4.36,4.06s1.75,4.29,1.75,7.44c0,2.64-.41,4.83-1.26,6.54s-2,3.05-3.49,4.06-3.29,1.72-5.42,2.1-4.44,.62-6.98,.62h-16.35v15.3h-.03Zm16.35-22.46c1.69,0,3.13-.05,4.39-.15,1.23-.1,2.28-.38,3.13-.82s1.46-1.05,1.87-1.87,.62-1.92,.62-3.34c0-1.57-.23-2.8-.72-3.67-.49-.87-1.18-1.49-2.08-1.9s-1.95-.64-3.16-.69c-1.23-.05-2.57-.08-4.03-.08h-16.35v12.52h16.32Z" style="fill: #221714;"/>
        <path d="M161.05,43.45h-8.47l-5.36-9.86h-25.69l-5.21,9.86h-8.14L130.94,1.33h7.16l22.94,42.12h0Zm-26.61-34.06l-9.19,17.07h18.38l-9.19-17.07Z" style="fill: #221714;"/>
        <path d="M215.95,43.45h-8.93l-12.11-17.25h-14.81v17.25h-7.16V1.33h26.02c2.1,0,4.13,.21,6.06,.62s3.64,1.08,5.13,2,2.67,2.16,3.54,3.7,1.31,3.49,1.31,5.83-.36,4.26-1.05,5.83c-.69,1.54-1.62,2.77-2.72,3.7-1.1,.92-2.34,1.62-3.67,2.08s-2.62,.8-3.88,1l12.29,17.4h0l-.03-.03Zm-16.27-24.38c2.39,0,4.34-.41,5.85-1.18,1.51-.8,2.28-2.21,2.28-4.26,0-1.21-.18-2.13-.56-2.8-.38-.67-.95-1.21-1.67-1.54-.72-.36-1.62-.56-2.67-.67s-2.26-.13-3.62-.13h-19.2v10.55h19.61l-.03,.03Z" style="fill: #221714;"/>
        <path d="M238.97,43.45h-7.16V1.33h7.16V43.45Z" style="fill: #221714;"/>
        <path d="M294.38,12.09c-.87-.49-1.82-1-2.87-1.59s-2.28-1.1-3.67-1.59-2.95-.9-4.72-1.23c-1.77-.33-3.8-.49-6.13-.49-3.9,0-6.85,.49-8.83,1.46-1.98,.98-2.98,2.36-2.98,4.16,0,1.03,.13,1.87,.41,2.57s.87,1.23,1.82,1.62c.95,.41,2.31,.69,4.11,.9,1.77,.18,4.18,.28,7.24,.28,4.77,0,8.55,.33,11.34,1,2.8,.69,4.93,1.59,6.39,2.72s2.41,2.46,2.85,3.93c.44,1.49,.67,3.05,.67,4.67,0,3.03-.64,5.49-1.9,7.37s-2.9,3.31-4.93,4.31-4.23,1.69-6.7,2.03c-2.46,.36-4.88,.54-7.21,.54-3.59,0-6.75-.28-9.52-.85s-5.16-1.23-7.21-2c-2.03-.74-3.7-1.54-5-2.36s-2.31-1.46-3-1.95l3.41-6.26c1.21,.74,2.44,1.49,3.75,2.23s2.77,1.39,4.39,2,3.52,1.08,5.65,1.46,4.7,.56,7.7,.56c1.9,0,3.64-.1,5.21-.33,1.57-.21,2.93-.56,4.06-1.05s2.03-1.13,2.64-1.95c.62-.82,.95-1.82,.95-3,0-1.36-.23-2.39-.69-3.13-.46-.72-1.36-1.28-2.67-1.67-1.33-.38-3.21-.64-5.6-.77-2.41-.13-5.6-.26-9.55-.36-2.39-.05-4.57-.28-6.6-.69-2-.41-3.72-1.05-5.16-1.95s-2.54-2.08-3.34-3.54c-.8-1.46-1.18-3.31-1.18-5.54,0-1.77,.36-3.49,1.05-5.13,.69-1.62,1.82-3.05,3.39-4.31,1.54-1.23,3.54-2.26,6.03-3,2.46-.74,5.47-1.13,8.98-1.13,2.54,0,4.93,.23,7.16,.69s4.23,.98,6.03,1.59c1.77,.59,3.34,1.21,4.65,1.82,1.31,.62,2.31,1.13,3,1.49l-3.34,6.42h0l-.08,.08Z" style="fill: #221714;"/>
        <polygon points="8.47 36.32 34.67 10.83 34.65 1.33 0 1.33 0 8.5 27.31 8.5 .08 35.26 0 43.45 34.67 43.45 38.55 36.32 8.47 36.32" style="fill: #221714;"/>
        <polygon points="52.77 43.45 45.61 43.45 49.41 36.32 56.57 36.32 52.77 43.45" style="fill: #ea5529;"/>
      </g>
      <g>
        <path d="M96.22,71.3v1.18h9.73v-1.18c0-.92,.05-1.23,.18-1.92,.03-.15-.1-.28-.23-.28h-9.68c-.15,0-.28,.15-.23,.31,.15,.74,.26,1,.26,1.92h0l-.03-.03Z" style="fill: #070001;"/>
        <path d="M123.09,95.32h-9.68c-.15,0-.28,.21-.23,.38,.15,1,.26,1.36,.26,2.62v.1c-.28,.03-2.62,.38-3.46,.44-.46,.03-1.23,.13-2.41,.15-.77,0-1.75-.05-2.52-.15-1.28-.13-2.36-.28-2.98-.36v-3.72l15.6-2.49h.38s.21-.08,.21-.15l-.51-5.36s-.1-.13-.21-.1c-.15,.05-.26,.1-.36,.13h0c-.62,.23-4.85,1.72-10.16,3.31-1.46,.44-3.23,.87-4.95,1.23v-5.08h11.37v-6.03s-3.21,.49-7.29,.92c-1.54,.15-3.62,.28-5.21,.28-2.52,0-4.06-.21-5.03-.28-1.87-.13-7.29-.92-7.29-.92v6.03h5.85v6.06c-.85,.03-1.54,.05-2.1,.1-2.54,.15-9.65,0-10.47-.03h-.38s-.21,.08-.21,.15l.51,5.36s.1,.15,.21,.1c.13-.03,.23-.08,.33-.1l12.09-1.9v5.67c0,2.03,1.64,3.67,3.67,3.67h19.07c3.08,0,5.62-2.36,5.9-5.36h0v-.56h0v-1.05c0-1.23,.05-1.67,.18-2.64,.03-.21-.1-.38-.23-.38h0l.05-.03Z" style="fill: #070001;"/>
        <path d="M123.04,72.32c-.72,.15-1.03,.21-1.95,.21h-42.35c-.15,0-.31,.1-.31,.26v9.8c0,.15,.15,.28,.31,.26,.77-.15,1.03-.26,1.95-.26h5.85v-3.34c2.1-.33,4.08-.59,5.31-.69,1.75-.15,4.57-.59,9.03-.62,2.87,0,6.54,.26,9.34,.62,1.9,.23,3.67,.49,5.31,.72v3.23h6.52c.33,.03,.59,.1,1,.21,.15,.03,.31-.1,.31-.26v-9.86c0-.15-.15-.28-.31-.26l-.03-.03Z" style="fill: #070001;"/>
        <path d="M170.01,70.71h-40.76c-.15,0-.26,.15-.21,.28,.15,.74,.23,1,.23,1.92v1.03h-.03v24.66c0,3.75,2.75,6.83,6.19,6.83h28.28c3.44,0,6.26-3.05,6.26-6.8h0v-2.28c0-1.54,.03-2.03,.18-3.23,.03-.26-.08-.49-.21-.49h-8.88c-.15,0-.26,.23-.21,.51,.15,1.23,.23,1.69,.23,3.23v1.69c-1.9,.26-4.16,.54-5.29,.62-1.18,.1-3.03,.33-5.98,.33-1.9,0-4.34-.15-6.21-.33-2.31-.23-4.36-.51-5.9-.69v-9.24h32.42v-14.65h0v-1.18c0-.92,.03-1.21,.15-1.92,.03-.15-.08-.28-.21-.28h-.08Zm-16.84,11.99h-.21c-.08-.64-.15-1.28-.18-1.62-.03-.41-.13-1.1-.13-2.16,0-.69,.05-1.57,.13-2.23v-.15h8.29v.15c.1,.67,.15,1.54,.15,2.23,0,1.08-.1,1.75-.13,2.16,0,.36-.1,1-.18,1.62h-7.75Zm-14.94,0h-.21c-.08-.64-.15-1.28-.18-1.62-.03-.41-.13-1.1-.13-2.16,0-.69,.05-1.57,.13-2.23v-.15h8.29v.15c.1,.67,.15,1.54,.15,2.23,0,1.08-.1,1.75-.13,2.16,0,.36-.1,1-.18,1.62h-7.75Z" style="fill: #070001;"/>
        <path d="M219.8,98.37c-3.44,1.23-12.04,1.28-12.04,1.28l4.7-6.49-10.29-2.49,.46,12.58s14.37,3.39,17.76,2.59c-.54-2.67-.67-4.75-.56-7.44h0l-.03-.03Z" style="fill: #070001;"/>
        <path d="M186.61,99.63s-8.57-.05-12.04-1.28c.1,2.69-.05,4.77-.56,7.44,3.39,.82,17.73-2.64,17.76-2.59l.46-12.58-10.29,2.49,4.7,6.49h0l-.03,.03Z" style="fill: #070001;"/>
        <rect x="194.11" y="89.16" width="6.16" height="16.19" style="fill: #070001;"/>
        <path d="M215.13,88.98c-.85-.15-2.21-.28-4.34-.82-.62-.15-1.31-.33-2-.56,1.98,.13,2.87,.15,4.11,.15,3.13,0,4.83-.64,5.8-2.21,.87-1.44,1.49-12.52,1.49-12.52h-13.24l.56-1.18c.64-1.67,.77-1.64,.85-1.9,.03-.1-.03-.18-.15-.21l-6.65-.69s-.21,.08-.18,.15c0,.03-.31,.62-.77,1.46-1.23,2.23-3.62,6.26-4.26,6.57,0,0,2.03,2.03,3.11,3.05,.18,.18,.46,.46,.82,.77,1.98-1.54,2.82-2.28,4.11-3.85h2.28c-.64,1.1-2.46,3.39-4.72,4.83,1.77,1.18,3.44,2.05,4.36,3.31,.28-.21,.51-.23,1.46-1.18,.51,1.18,.74,2.03,.87,3.34-.77-.23-1.54-.49-2.21-.72-3.16-1.13-5.65-2.16-5.95-2.28h0v-.74c0-.56,.03-.74,.1-1.18,0-.1-.05-.18-.15-.18h-5.9s-.15,.1-.15,.18c.1,.46,.15,.62,.15,1.18v.72h-.08c-.46,.21-2.75,1.15-5.62,2.21v-2.8h0v-2.82h6.62v-4.65s-3.67,.64-5.18,.74c-.33,0-.77,.08-1.26,.1v-2.52l6.47-.51-.15-1.85c-.1-1.41-.05-1.9,.1-3,.03-.23-.21-.46-.46-.41l-17.73,1.36c-.28,0-.49,.28-.41,.49,.36,1.13,.56,1.51,.69,2.95l.15,1.85,5.57-.44v2.08c-.44-.03-.85-.08-1.23-.1-3.31-.33-5.9-.74-5.9-.74v3.23h0v1.51l4.75-.13-4.77,2.8,2.77,4.06,4.13-3.62v1.31c0,1.28-.03,1.72-.1,2.69v.15c-1.36,.28-2.31,.38-2.95,.51-1.62,.28-6.36,.74-6.36,.74l.82,3.39,20.84-5.13c1.67-.33,3.36-.28,5,.08l20.56,5.06,.82-3.39s-4.75-.46-6.36-.74l-.08,.05h-.03Zm-2.8-11.68h1.57c-.15,2.75-.56,4.72-1.1,5.6-.23,.36-.69,.51-1.67,.51-.64,0-1.33-.03-2.39-.18,1.62-1.85,2.77-3.77,3.62-5.9h0l-.03-.03Z" style="fill: #070001;"/>
      </g>
    </g>
  </g>
</svg>