<?xml version="1.0" encoding="UTF-8"?>
<svg id="b" data-name="圖層 2" xmlns="http://www.w3.org/2000/svg" width="116.89" height="41.26" viewBox="0 0 116.89 41.26">
  <g id="c" data-name="b">
    <g>
      <path d="M28.55,16.91h-2.79V.5h9.16c.66,0,1.37,.04,2.14,.13s1.5,.3,2.17,.65c.68,.35,1.24,.88,1.7,1.58s.68,1.67,.68,2.9c0,1.03-.16,1.88-.49,2.55-.33,.67-.78,1.19-1.36,1.58-.58,.39-1.28,.67-2.11,.82s-1.73,.24-2.72,.24h-6.37v5.96h-.01Zm6.37-8.75c.66,0,1.22-.02,1.71-.06,.48-.04,.89-.15,1.22-.32,.33-.17,.57-.41,.73-.73,.16-.32,.24-.75,.24-1.3,0-.61-.09-1.09-.28-1.43-.19-.34-.46-.58-.81-.74s-.76-.25-1.23-.27c-.48-.02-1-.03-1.57-.03h-6.37v4.88h6.36Z" style="fill: #221714;"/>
      <path d="M62.75,16.91h-3.3l-2.09-3.84h-10.01l-2.03,3.84h-3.17L51.02,.5h2.79l8.94,16.41h0ZM52.38,3.64l-3.58,6.65h7.16l-3.58-6.65Z" style="fill: #221714;"/>
      <path d="M84.14,16.91h-3.48l-4.72-6.72h-5.77v6.72h-2.79V.5h10.14c.82,0,1.61,.08,2.36,.24s1.42,.42,2,.78,1.04,.84,1.38,1.44,.51,1.36,.51,2.27-.14,1.66-.41,2.27c-.27,.6-.63,1.08-1.06,1.44-.43,.36-.91,.63-1.43,.81-.52,.18-1.02,.31-1.51,.39l4.79,6.78h0Zm-6.34-9.5c.93,0,1.69-.16,2.28-.46,.59-.31,.89-.86,.89-1.66,0-.47-.07-.83-.22-1.09-.15-.26-.37-.47-.65-.6-.28-.14-.63-.22-1.04-.26s-.88-.05-1.41-.05h-7.48V7.4h7.64Z" style="fill: #221714;"/>
      <path d="M93.11,16.91h-2.79V.5h2.79V16.91Z" style="fill: #221714;"/>
      <path d="M114.7,4.69c-.34-.19-.71-.39-1.12-.62s-.89-.43-1.43-.62-1.15-.35-1.84-.48c-.69-.13-1.48-.19-2.39-.19-1.52,0-2.67,.19-3.44,.57-.77,.38-1.16,.92-1.16,1.62,0,.4,.05,.73,.16,1,.11,.27,.34,.48,.71,.63,.37,.16,.9,.27,1.6,.35,.69,.07,1.63,.11,2.82,.11,1.86,0,3.33,.13,4.42,.39,1.09,.27,1.92,.62,2.49,1.06s.94,.96,1.11,1.53c.17,.58,.26,1.19,.26,1.82,0,1.18-.25,2.14-.74,2.87s-1.13,1.29-1.92,1.68-1.65,.66-2.61,.79c-.96,.14-1.9,.21-2.81,.21-1.4,0-2.63-.11-3.71-.33s-2.01-.48-2.81-.78c-.79-.29-1.44-.6-1.95-.92s-.9-.57-1.17-.76l1.33-2.44c.47,.29,.95,.58,1.46,.87s1.08,.54,1.71,.78,1.37,.42,2.2,.57,1.83,.22,3,.22c.74,0,1.42-.04,2.03-.13,.61-.08,1.14-.22,1.58-.41s.79-.44,1.03-.76c.24-.32,.37-.71,.37-1.17,0-.53-.09-.93-.27-1.22-.18-.28-.53-.5-1.04-.65-.52-.15-1.25-.25-2.18-.3-.94-.05-2.18-.1-3.72-.14-.93-.02-1.78-.11-2.57-.27-.78-.16-1.45-.41-2.01-.76s-.99-.81-1.3-1.38c-.31-.57-.46-1.29-.46-2.16,0-.69,.14-1.36,.41-2,.27-.63,.71-1.19,1.32-1.68,.6-.48,1.38-.88,2.35-1.17,.96-.29,2.13-.44,3.5-.44,.99,0,1.92,.09,2.79,.27,.87,.18,1.65,.38,2.35,.62,.69,.23,1.3,.47,1.81,.71,.51,.24,.9,.44,1.17,.58l-1.3,2.5h0Z" style="fill: #221714;"/>
      <polygon points="3.3 14.13 13.51 4.2 13.5 .5 0 .5 0 3.29 10.64 3.29 .03 13.72 0 16.91 13.51 16.91 15.02 14.13 3.3 14.13" style="fill: #221714;"/>
      <polygon points="20.56 16.91 17.77 16.91 19.25 14.13 22.04 14.13 20.56 16.91" style="fill: #ea5529;"/>
    </g>
    <g>
      <path d="M37.49,27.76v.46h3.79v-.46c0-.36,.02-.48,.07-.75,.01-.06-.04-.11-.09-.11h-3.77c-.06,0-.11,.06-.09,.12,.06,.29,.1,.39,.1,.75h0Z" style="fill: #070001;"/>
      <path d="M47.96,37.12h-3.77c-.06,0-.11,.08-.09,.15,.06,.39,.1,.53,.1,1.02v.04c-.11,.01-1.02,.15-1.35,.17-.18,.01-.48,.05-.94,.06-.3,0-.68-.02-.98-.06-.5-.05-.92-.11-1.16-.14v-1.45l6.08-.97h.15s.08-.03,.08-.06l-.2-2.09s-.04-.05-.08-.04c-.06,.02-.1,.04-.14,.05h0c-.24,.09-1.89,.67-3.96,1.29-.57,.17-1.26,.34-1.93,.48v-1.98h4.43v-2.35s-1.25,.19-2.84,.36c-.6,.06-1.41,.11-2.03,.11-.98,0-1.58-.08-1.96-.11-.73-.05-2.84-.36-2.84-.36v2.35h2.28v2.36c-.33,.01-.6,.02-.82,.04-.99,.06-3.76,0-4.08-.01h-.15s-.08,.03-.08,.06l.2,2.09s.04,.06,.08,.04c.05-.01,.09-.03,.13-.04l4.71-.74v2.21c0,.79,.64,1.43,1.43,1.43h7.43c1.2,0,2.19-.92,2.3-2.09h0v-.22h0v-.41c0-.48,.02-.65,.07-1.03,.01-.08-.04-.15-.09-.15h0Z" style="fill: #070001;"/>
      <path d="M47.94,28.16c-.28,.06-.4,.08-.76,.08H30.68c-.06,0-.12,.04-.12,.1v3.82c0,.06,.06,.11,.12,.1,.3-.06,.4-.1,.76-.1h2.28v-1.3c.82-.13,1.59-.23,2.07-.27,.68-.06,1.78-.23,3.52-.24,1.12,0,2.55,.1,3.64,.24,.74,.09,1.43,.19,2.07,.28v1.26h2.54c.13,.01,.23,.04,.39,.08,.06,.01,.12-.04,.12-.1v-3.84c0-.06-.06-.11-.12-.1Z" style="fill: #070001;"/>
      <path d="M66.24,27.53h-15.88c-.06,0-.1,.06-.08,.11,.06,.29,.09,.39,.09,.75v.4h-.01v9.61c0,1.46,1.07,2.66,2.41,2.66h11.02c1.34,0,2.44-1.19,2.44-2.65h0v-.89c0-.6,.01-.79,.07-1.26,.01-.1-.03-.19-.08-.19h-3.46c-.06,0-.1,.09-.08,.2,.06,.48,.09,.66,.09,1.26v.66c-.74,.1-1.62,.21-2.06,.24-.46,.04-1.18,.13-2.33,.13-.74,0-1.69-.06-2.42-.13-.9-.09-1.7-.2-2.3-.27v-3.6h12.63v-5.71h0v-.46c0-.36,.01-.47,.06-.75,.01-.06-.03-.11-.08-.11h-.01Zm-6.56,4.67h-.08c-.03-.25-.06-.5-.07-.63-.01-.16-.05-.43-.05-.84,0-.27,.02-.61,.05-.87v-.06h3.23v.06c.04,.26,.06,.6,.06,.87,0,.42-.04,.68-.05,.84,0,.14-.04,.39-.07,.63h-3.02Zm-5.82,0h-.08c-.03-.25-.06-.5-.07-.63-.01-.16-.05-.43-.05-.84,0-.27,.02-.61,.05-.87v-.06h3.23v.06c.04,.26,.06,.6,.06,.87,0,.42-.04,.68-.05,.84,0,.14-.04,.39-.07,.63h-3.02Z" style="fill: #070001;"/>
      <path d="M85.64,38.31c-1.34,.48-4.69,.5-4.69,.5l1.83-2.53-4.01-.97,.18,4.9s5.6,1.32,6.92,1.01c-.21-1.04-.26-1.85-.22-2.9h0Z" style="fill: #070001;"/>
      <path d="M72.71,38.8s-3.34-.02-4.69-.5c.04,1.05-.02,1.86-.22,2.9,1.32,.32,6.91-1.03,6.92-1.01l.18-4.9-4.01,.97,1.83,2.53h0Z" style="fill: #070001;"/>
      <rect x="75.63" y="34.72" width="2.4" height="6.31" style="fill: #070001;"/>
      <path d="M83.82,34.65c-.33-.06-.86-.11-1.69-.32-.24-.06-.51-.13-.78-.22,.77,.05,1.12,.06,1.6,.06,1.22,0,1.88-.25,2.26-.86,.34-.56,.58-4.88,.58-4.88h-5.16l.22-.46c.25-.65,.3-.64,.33-.74,.01-.04-.01-.07-.06-.08l-2.59-.27s-.08,.03-.07,.06c0,.01-.12,.24-.3,.57-.48,.87-1.41,2.44-1.66,2.56,0,0,.79,.79,1.21,1.19,.07,.07,.18,.18,.32,.3,.77-.6,1.1-.89,1.6-1.5h.89c-.25,.43-.96,1.32-1.84,1.88,.69,.46,1.34,.8,1.7,1.29,.11-.08,.2-.09,.57-.46,.2,.46,.29,.79,.34,1.3-.3-.09-.6-.19-.86-.28-1.23-.44-2.2-.84-2.32-.89h0v-.29c0-.22,.01-.29,.04-.46,0-.04-.02-.07-.06-.07h-2.3s-.06,.04-.06,.07c.04,.18,.06,.24,.06,.46v.28h-.03c-.18,.08-1.07,.45-2.19,.86,0-.12,0-.25,0-.44v-.65h0v-1.1h2.58v-1.81s-1.43,.25-2.02,.29c-.13,0-.3,.03-.49,.04v-.98l2.52-.2-.06-.72c-.04-.55-.02-.74,.04-1.17,.01-.09-.08-.18-.18-.16l-6.91,.53c-.11,0-.19,.11-.16,.19,.14,.44,.22,.59,.27,1.15l.06,.72,2.17-.17v.81c-.17-.01-.33-.03-.48-.04-1.29-.13-2.3-.29-2.3-.29v1.26h0v.59l1.85-.05-1.86,1.09,1.08,1.58,1.61-1.41v.51c0,.5-.01,.67-.04,1.05v.06c-.53,.11-.9,.15-1.15,.2-.63,.11-2.48,.29-2.48,.29l.32,1.32,8.12-2c.65-.13,1.31-.11,1.95,.03l8.01,1.97,.32-1.32s-1.85-.18-2.48-.29l-.03,.02Zm-1.09-4.55h.61c-.06,1.07-.22,1.84-.43,2.18-.09,.14-.27,.2-.65,.2-.25,0-.52-.01-.93-.07,.63-.72,1.08-1.47,1.41-2.3h0Z" style="fill: #070001;"/>
    </g>
  </g>
</svg>