<?xml version="1.0" encoding="UTF-8"?>
<svg id="b" data-name="圖層 2" xmlns="http://www.w3.org/2000/svg" width="50.41" height="50.41" viewBox="0 0 50.41 50.41">
  <defs>
    <style>
      .f {
        fill-rule: evenodd;
      }

      .f, .g {
        fill: #9e9e9f;
      }
    </style>
  </defs>
  <g id="c" data-name="b">
    <g id="d" data-name="c">
      <g id="e" data-name="d">
        <circle cx="25.21" cy="25.21" r="25.21"/>
        <g>
          <path class="g" d="M20.42,20.19h1.2c.19,0,.33,.15,.33,.33v7.49c0,.19-.15,.33-.33,.33h-1.2c-.19,0-.33-.15-.33-.33v-7.47c0-.19,.15-.33,.33-.33v-.02Z"/>
          <path class="f" d="M18.72,26.46h-3.27v-5.94c0-.19-.15-.33-.33-.33h-1.2c-.19,0-.33,.15-.33,.33v7.47h0s.04,.18,.1,.23h0s.14,.1,.23,.1h4.82c.19,0,.33-.15,.33-.33v-1.2c0-.19-.15-.33-.33-.33h-.02Z"/>
          <path class="f" d="M29.93,20.19h-1.2c-.19,0-.33,.15-.33,.33v4.45l-3.42-4.63v-.04h-.06v-.04h-.06v-.04h-.1v-.04h-1.27c-.19,0-.33,.14-.33,.33v7.49c0,.19,.15,.33,.33,.33h1.2c.19,0,.33-.15,.33-.33v-4.45l3.42,4.64,.08,.08h.06v.04h.06s.06,.02,.08,.02h1.2c.19,0,.33-.15,.33-.33v-7.49c0-.19-.15-.33-.33-.33h.02Z"/>
          <path class="f" d="M36.57,20.19h-4.82s-.18,.04-.23,.1h0s-.1,.15-.1,.23h0v7.47h0s.04,.18,.1,.23h0s.14,.1,.23,.1h4.82c.19,0,.33-.15,.33-.33v-1.2c0-.19-.15-.33-.33-.33h-3.27v-1.26h3.27c.19,0,.33-.15,.33-.33v-1.2c0-.19-.15-.33-.33-.33h-3.27v-1.26h3.27c.19,0,.33-.15,.33-.33v-1.2c0-.19-.15-.33-.33-.33v-.04Z"/>
          <path class="f" d="M25.21,0C11.29,0,0,11.29,0,25.21s11.29,25.21,25.21,25.21,25.21-11.29,25.21-25.21S39.13,0,25.21,0Zm13.41,32.46c-3.6,4.15-11.65,9.2-13.49,9.97-1.84,.78-1.57-.48-1.49-.93,.04-.25,.25-1.47,.25-1.47,.06-.45,.12-1.12-.06-1.55-.19-.48-.95-.74-1.51-.85-8.25-1.08-14.36-6.86-14.36-13.74,0-7.69,7.7-13.93,17.17-13.93s17.17,6.25,17.17,13.93c0,3.08-1.2,5.84-3.68,8.58h0Z"/>
        </g>
      </g>
    </g>
  </g>
</svg>