<?xml version="1.0" encoding="UTF-8"?>
<svg id="b" data-name="圖層 2" xmlns="http://www.w3.org/2000/svg" width="26.03" height="26.03" viewBox="0 0 26.03 26.03">
  <g id="c" data-name="圖層 2">
    <g>
      <circle cx="13.02" cy="13.02" r="13.02" style="fill: #fff;"/>
      <g>
        <path d="M10.55,10.43h.62c.1,0,.17,.08,.17,.17v3.87c0,.1-.08,.17-.17,.17h-.62c-.1,0-.17-.08-.17-.17v-3.87c0-.1,.08-.17,.17-.17Z" style="fill: #9e9e9f;"/>
        <path d="M9.67,13.67h-1.69v-3.07c0-.1-.08-.17-.17-.17h-.62c-.1,0-.17,.08-.17,.17v3.87h0s.02,.09,.05,.12h0s.07,.05,.12,.05h2.49c.1,0,.17-.08,.17-.17v-.62c0-.1-.08-.17-.17-.17Z" style="fill: #9e9e9f; fill-rule: evenodd;"/>
        <path d="M15.46,10.43h-.62c-.1,0-.17,.08-.17,.17v2.3l-1.77-2.39v-.02h-.03v-.02h-.03v-.02h-.05v-.02h-.66c-.1,0-.17,.07-.17,.17v3.87c0,.1,.08,.17,.17,.17h.62c.1,0,.17-.08,.17-.17v-2.3l1.77,2.4s.03,.03,.04,.04h.03v.02h.03s.03,.01,.04,.01h.62c.1,0,.17-.08,.17-.17v-3.87c0-.1-.08-.17-.17-.17Z" style="fill: #9e9e9f; fill-rule: evenodd;"/>
        <path d="M18.89,10.43h-2.49s-.09,.02-.12,.05h0s-.05,.08-.05,.12h0v3.86h0s.02,.09,.05,.12h0s.07,.05,.12,.05h2.49c.1,0,.17-.08,.17-.17v-.62c0-.1-.08-.17-.17-.17h-1.69v-.65h1.69c.1,0,.17-.08,.17-.17v-.62c0-.1-.08-.17-.17-.17h-1.69v-.65h1.69c.1,0,.17-.08,.17-.17v-.62c0-.1-.08-.17-.17-.17Z" style="fill: #9e9e9f; fill-rule: evenodd;"/>
        <path d="M13.02,0C5.83,0,0,5.83,0,13.02s5.83,13.02,13.02,13.02,13.02-5.83,13.02-13.02S20.21,0,13.02,0Zm6.93,16.77c-1.86,2.14-6.02,4.75-6.97,5.15-.95,.4-.81-.25-.77-.48,.02-.13,.13-.76,.13-.76,.03-.23,.06-.58-.03-.8-.1-.25-.49-.38-.78-.44-4.26-.56-7.42-3.54-7.42-7.1,0-3.97,3.98-7.2,8.87-7.2s8.87,3.23,8.87,7.2c0,1.59-.62,3.02-1.9,4.43h0Z" style="fill: #9e9e9f; fill-rule: evenodd;"/>
      </g>
    </g>
  </g>
</svg>