<?xml version="1.0" encoding="UTF-8"?>
<svg id="b" data-name="圖層 2" xmlns="http://www.w3.org/2000/svg" width="65.66" height="65.66" viewBox="0 0 65.66 65.66">
  <defs>
    <style>
      .e {
        fill-rule: evenodd;
      }

      .e, .f {
        fill: #9e9e9f;
      }
    </style>
  </defs>
  <g id="c" data-name="b">
    <g id="d" data-name="c">
      <circle cx="32.83" cy="32.83" r="32.83"/>
      <g>
        <path class="f" d="M26.6,26.3h1.56c.25,0,.43,.2,.43,.43v9.76c0,.25-.2,.43-.43,.43h-1.56c-.25,0-.43-.2-.43-.43v-9.73c0-.25,.2-.43,.43-.43v-.03Z"/>
        <path class="e" d="M24.38,34.47h-4.26v-7.74c0-.25-.2-.43-.43-.43h-1.56c-.25,0-.43,.2-.43,.43v9.73h0s.05,.23,.13,.3h0s.18,.13,.3,.13h6.28c.25,0,.43-.2,.43-.43v-1.56c0-.25-.2-.43-.43-.43h-.03Z"/>
        <path class="e" d="M38.98,26.3h-1.56c-.25,0-.43,.2-.43,.43v5.8l-4.46-6.03v-.05h-.08v-.05h-.08v-.05h-.13v-.05h-1.66c-.25,0-.43,.18-.43,.43v9.76c0,.25,.2,.43,.43,.43h1.56c.25,0,.43-.2,.43-.43v-5.8l4.46,6.05,.1,.1h.08v.05h.08s.08,.03,.1,.03h1.56c.25,0,.43-.2,.43-.43v-9.76c0-.25-.2-.43-.43-.43h.03Z"/>
        <path class="e" d="M47.63,26.3h-6.28s-.23,.05-.3,.13h0s-.13,.2-.13,.3h0v9.73h0s.05,.23,.13,.3h0s.18,.13,.3,.13h6.28c.25,0,.43-.2,.43-.43v-1.56c0-.25-.2-.43-.43-.43h-4.26v-1.64h4.26c.25,0,.43-.2,.43-.43v-1.56c0-.25-.2-.43-.43-.43h-4.26v-1.64h4.26c.25,0,.43-.2,.43-.43v-1.56c0-.25-.2-.43-.43-.43v-.05Z"/>
        <path class="e" d="M32.83,0C14.7,0,0,14.7,0,32.83s14.7,32.83,32.83,32.83,32.83-14.7,32.83-32.83S50.96,0,32.83,0Zm17.47,42.28c-4.69,5.4-15.18,11.98-17.57,12.98-2.4,1.01-2.04-.63-1.94-1.21,.05-.33,.33-1.92,.33-1.92,.08-.58,.15-1.46-.08-2.02-.25-.63-1.24-.96-1.97-1.11-10.74-1.41-18.71-8.93-18.71-17.9,0-10.01,10.03-18.15,22.36-18.15s22.36,8.14,22.36,18.15c0,4.01-1.56,7.61-4.79,11.17h0Z"/>
      </g>
    </g>
  </g>
</svg>