<?xml version="1.0" encoding="UTF-8"?>
<svg id="b" data-name="圖層 2" xmlns="http://www.w3.org/2000/svg" width="48.76" height="48.76" viewBox="0 0 48.76 48.76">
  <g id="c" data-name="bar">
    <g>
      <rect x="19.44" y="19.53" width="1.81" height="7.89" rx=".32" ry=".32" style="fill: #9e9e9f;"/>
      <path d="M18.12,25.6h-3.17v-5.75c0-.18-.14-.32-.32-.32h-1.17c-.18,0-.32,.14-.32,.32v7.24h0c0,.09,.03,.17,.09,.22h0c.06,.07,.14,.1,.22,.1h4.66c.18,0,.32-.15,.32-.32v-1.17c0-.18-.14-.32-.32-.32Z" style="fill: #9e9e9f; fill-rule: evenodd;"/>
      <path d="M28.95,19.53h-1.17c-.18,0-.32,.14-.32,.32v4.3l-3.32-4.48s-.02-.02-.03-.03h0l-.02-.02h0l-.02-.02h0l-.02-.02h0l-.02-.02h-.03v-.02h-.07l-.02-.02h-1.2c-.18,0-.32,.14-.32,.32v7.24c0,.18,.15,.32,.32,.32h1.17c.18,0,.32-.14,.32-.32v-4.3l3.32,4.49s.05,.06,.08,.08h.02v.02h.04v.02h.04s.05,.02,.08,.02h1.17c.18,0,.32-.14,.32-.32v-7.24c0-.18-.14-.32-.32-.32Z" style="fill: #9e9e9f; fill-rule: evenodd;"/>
      <path d="M35.38,19.53h-4.66c-.09,0-.17,.03-.22,.09h0c-.06,.07-.09,.15-.09,.23h0v7.24h0c0,.09,.03,.17,.09,.22h0c.06,.06,.14,.1,.22,.1h4.66c.18,0,.32-.14,.32-.32v-1.17c0-.18-.14-.32-.32-.32h-3.17v-1.22h3.17c.18,0,.32-.14,.32-.32v-1.17c0-.18-.14-.32-.32-.32h-3.17v-1.22h3.17c.18,0,.32-.14,.32-.32v-1.17c0-.18-.14-.32-.32-.32Z" style="fill: #9e9e9f; fill-rule: evenodd;"/>
      <path d="M24.38,0C10.92,0,0,10.91,0,24.38s10.92,24.38,24.38,24.38,24.38-10.91,24.38-24.38S37.84,0,24.38,0Zm12.97,31.41c-3.49,4.01-11.28,8.9-13.05,9.65-1.77,.75-1.51-.48-1.44-.9,.04-.25,.24-1.42,.24-1.42,.06-.42,.11-1.08-.05-1.5-.19-.46-.92-.7-1.46-.82-7.98-1.06-13.89-6.64-13.89-13.3,0-7.43,7.45-13.48,16.61-13.48s16.61,6.05,16.61,13.48c0,2.98-1.15,5.66-3.56,8.3h0Z" style="fill: #9e9e9f; fill-rule: evenodd;"/>
    </g>
  </g>
</svg>