<?xml version="1.0" encoding="UTF-8"?>
<svg id="b" data-name="圖層 2" xmlns="http://www.w3.org/2000/svg" width="23.7" height="14.17" viewBox="0 0 23.7 14.17">
  <g id="c" data-name="圖層 2">
    <g>
      <path d="M11.8,1.79c.64-.42,1.25-.88,1.96-1.2,2.63-1.21,6.03-.5,8.01,1.62,3.27,3.49,2.28,9.26-2.19,11.27-2.63,1.18-5.14,.82-7.44-.93-.09-.07-.19-.15-.28-.22-.04-.25,.26-.35,.29-.6-.21-.09-.44-.06-.65-.05-.39,.01-.64-.18-.81-.51-.17-.33-.1-.5,.29-.53,.47-.04,.95,0,1.42-.02,.15,0,.3,0,.44-.02,.17-.03,.34-.12,.33-.3-.01-.21-.23-.14-.36-.14-.75-.01-1.51,0-2.26-.01-.41-.01-.6-.19-.68-.56-.03-.16-.02-.29,.16-.36,1-.07,2.01-.02,3.01-.04,.19,0,.38,.03,.57-.05,.19-.1,.19-.36,.38-.46,.35,.02,.55,.36,.91,.39,.3,.02,.58,.03,.84-.15,.09-.07,.18-.12,.29-.11,.39,.2,.77,.48,1.21,.13,.04-.02,.08-.03,.12-.03,.28,.08,.56,.22,.84,.01,.06-.02,.12-.02,.18,0,.27,.12,.53,.2,.78-.05,.29-.43,.21-.95,.36-1.41,.07-.22,.07-.53,.44-.49,.06,.04,.09,.11,.1,.18-.03,.31-.08,.61-.06,.92,.03,.84,.55,1.18,1.31,.87,.04-.01,.08-.02,.12-.02,.28,.07,.56,.26,.81-.06,.31-1.03,.41-2.09,.56-3.14,.04-.29-.09-.33-.53-.18-.26,.11-.19,.4-.32,.58-.01,0-.03,.03-.04,.02-.61-.17-1.1,.1-1.56,.46-.29-.05-.11-.27-.14-.42-.13-.06-.23,.1-.36,.06-.21-.14-.4-.3-.67-.14-.06,.05-.12,.1-.17,.15-.13,.09-.17,.26-.32,.34-.04,0-.08,0-.12-.02-.59-.62-1.17-.7-1.88-.26-.04,.02-.09,.02-.13,.01-.09-.05-.13-.12-.16-.21,0-.03-.02-.06-.02-.09-.03-.59-.19-.73-.8-.68-.45,.04-.8,.27-1.1,.58-.12,.12-.2,.35-.45,.25-.06-.08-.08-.18-.11-.27-.16-.25-.42-.19-.64-.19-1.19-.01-2.37,0-3.56,0-.26-.02-.54,.06-.79-.1-.05-.27,.17-.22,.3-.24,.21-.03,.37-.1,.43-.32,.09-.33,.35-.41,.65-.41,.89,0,1.78,0,2.66,0,.17,0,.45,.11,.47-.17,.01-.27-.26-.27-.47-.27-.71,0-1.42,0-2.13,0-.25,0-.61,.12-.66-.31-.03-.3,.33-.68,.67-.72,.34-.04,.68,0,1.02-.02,.26,0,.53,.04,.82-.04-.08-.3-.29-.39-.55-.4-.25-.01-.5,.01-.75-.03-.27-.04-.32-.19-.16-.4,.16-.19,.3-.41,.56-.48Z" style="fill: #fd9801;"/>
      <path d="M11.8,1.79c-.1,.31-.43,.43-.59,.74,.62,.16,1.5-.31,1.77,.77-.68,0-1.33,0-1.99,0-.14,0-.32-.05-.41,.1-.12,.19-.38,.38-.28,.61,.07,.17,.35,.07,.53,.07,.79,0,1.57,.03,2.36,0,.44-.02,.46,.32,.52,.57,.05,.23-.19,.16-.32,.16-1.02,0-2.05,.01-3.07,0-.31,0-.52,.06-.54,.41-.02,.23-.14,.33-.39,.31-.14-.01-.29,.02-.44,.03,.03,.1-.01,.18-.08,.25-.11,.09-.22,.17-.35,.22-.04,.01-.09,.03-.13,.03-.67-.06-1.25,.11-1.76,.56-.05,0-.09,0-.13-.01-.53-.61-1.15-.72-1.86-.33-.15,.09-.22,.27-.39,.34-.05,0-.08-.03-.1-.07-.1-.27,.03-.52,.05-.78,.02-.21-.05-.31-.26-.31-.29,0-.6-.05-.82,.21-.21,.15-.22,.4-.31,.61-.09,.21-.09,.47-.32,.6-.05,0-.09-.02-.12-.06-.12-.25-.07-.52-.07-.78-.01-.55-.1-.63-.66-.57-.14,.01-.26,.05-.36,.14-.21,.17-.19,.43-.23,.65-.08,.46-.16,.92-.23,1.38-.07,.29-.11,.59-.15,.89-.04,.2-.08,.41-.12,.61-.03,.07-.07,.12-.16,.11C-.31,7.17-.05,5.21,1.06,3.36,3.32-.38,8.58-1.14,11.8,1.79Z" style="fill: #cc0100;"/>
      <path d="M.38,9.24l.07-.06c.18-.26,.55-.04,.73-.28,.16-.17,.18-.39,.22-.6,.03-.18,.04-.38,.21-.5,.23,.04,.19,.23,.2,.39,.02,.18,0,.35,0,.53,0,.34,.15,.39,.41,.2,.29-.19,.21-.63,.53-.79,.04,0,.08,.01,.12,.04,.09,.13,.09,.27,.08,.42-.03,.5,.03,.54,.55,.35,.1-.07,.2-.14,.33-.18,.11,0,.2,.05,.27,.12,.32,.28,.65,.29,1,.07,.04-.02,.08-.03,.12-.03,.28,.09,.55,.22,.84,.02,.04,0,.08,0,.12,0,.48,.15,.96,.21,1.43-.05,.19-.1,.36-.24,.59-.24,.08,.02,.12,.07,.17,.12,.35,.41,.51,.43,1.01,.15,.15-.11,.2-.3,.33-.42,.32,.17,.55,.44,.82,.68-.14,.21-.38,.03-.55,.13-.04,.52,.12,.73,.58,.73,.78,0,1.57,0,2.35,0,.17,0,.41-.13,.5,.11,.07,.19-.34,.61-.58,.61-.31,0-.62,0-.93,0-.22,0-.45-.02-.67,0-.19,.03-.47-.15-.57,.14-.05,.15,.46,.63,.65,.63,.37,0,.73,0,1.15,0-.15,.36-.43,.54-.63,.77-2.24,1.83-4.72,2.34-7.43,1.27-2.02-.8-3.4-2.25-4.05-4.36Z" style="fill: #cc0100;"/>
      <path d="M22.18,5.51c.17-.34,.49-.19,.7-.15,.25,.05,.07,.3,.05,.45-.14,.95-.3,1.9-.44,2.85-.02,.16-.06,.29-.24,.33-.29,.22-.58-.07-.87-.02h0c-.59,.3-1.2,0-1.38-.76-.06-.25-.05-.5-.03-.74,.05-.12,.08-.26,.09-.39,.04-.14,.11-.26,.17-.39,.02-.03,.05-.06,.08-.09,.65-.68,.9-.76,1.56-.47,.27-.12,.11-.45,.3-.61Z" style="fill: #fcfbfc;"/>
      <path d="M16.63,6.3c.04-.07,.06-.2,.12-.22,.52-.18,1.05-.25,1.57,.02,.17,.09,.25,.28,.31,.46,.13,.16,.11,.34,.11,.53,0,.51-.16,1-.21,1.51-.01,.13-.07,.25-.18,.33l-.2,.04c-.16,.13-.32,.08-.48,.02-.13-.05-.26-.12-.4-.02h.01c-.64,.21-.9,.1-1.17-.52-.04-.2-.03-.4-.02-.6,.11-.48,.48-.69,.9-.83,.15-.05,.32-.06,.47-.11,.07-.03,.15-.08,0-.12-.19-.04-.38-.02-.57,0-.15,.02-.3,.05-.39-.11-.07-.15-.03-.28,.1-.39Z" style="fill: #fbfbfc;"/>
      <path d="M14.09,6.22c.31-.34,.59-.73,1.05-.89,.12-.04,.26-.06,.39-.09,.3-.05,.61,0,.86,.13,.33,.17-.02,.51,.09,.75-.07,.16-.2,.13-.33,.1-.3-.09-.58-.13-.82,.14-.49,.33-.47,.82-.4,1.31,.05,.29,.27,.41,.55,.41,.19,0,.38-.08,.57-.05,.25,.18,0,.43,.08,.63-.01,.07-.04,.13-.1,.18l-.25,.13c-1.08,.41-1.88-.42-1.92-1.25-.02-.44-.03-.88,.09-1.31,.02-.08,.05-.15,.12-.2Z" style="fill: #fcfbfb;"/>
      <path d="M9.74,8.49c-.06,.18-.02,.43-.29,.48-.64,.22-.93,.09-1.09-.51,0-.18,0-.36,.01-.54,.07-.34,.13-.68,.17-1.02,.12-.38,.05-.8,.29-1.15,.04-.07,.08-.14,.12-.21,.25,0,.49,.02,.73,.03,.24,.36,.56,.7,.24,1.17-.04,.04-.09,.07-.15,.08-.11,.02-.21,.05-.21,.19-.03,.22-.06,.44-.11,.66-.07,.28,.02,.45,.28,.56,.06,.08,.06,.17,0,.25Z" style="fill: #fbfbfb;"/>
      <path d="M16.27,6.16c.09,.06,.16,.03,.22-.04l.09,.17c-.17,.49-.12,.54,.38,.48,.23-.03,.54-.14,.64,.24-.56,.07-1.1,.17-1.37,.77-.06,.11-.08,.23-.19,.3-.62,.23-1.01,.14-1.18-.26-.23-.54,0-1.32,.46-1.52,.12-.14,.27-.15,.44-.11,.17,.04,.34,.07,.51-.02Z" style="fill: #fc9802;"/>
      <path d="M14.09,6.22v.12c-.12,.17-.14,.39-.27,.55-.25,.18-.37,.44-.43,.74-.06,.33-.11,.66-.17,.99-.05,.26-.16,.43-.45,.46-.53-.02-.61-.11-.61-.63,0-.34,.11-.67,.12-1.01,.14-.39,.19-.79,.25-1.19,.04-.23,.17-.42,.4-.39,.38,.06,.75,.09,1.13,.08l.02,.28Z" style="fill: #fbfafa;"/>
      <path d="M20.32,6.59v.06c-.05,.08-.1,.16-.16,.23-.07,.07-.12,.16-.24,.13-.26,.1-.25,.34-.29,.55-.07,.36-.13,.72-.17,1.08-.02,.17-.06,.32-.27,.33-.54,.17-.72,.05-.62-.48,.14-.77,.11-1.56,.42-2.3l.12-.17c.3-.12,.55-.04,.77,.19l.1-.09c.11-.1,.27-.22,.38-.15,.17,.1,0,.25-.04,.38-.02,.08-.09,.16,.02,.23Z" style="fill: #fbfbfb;"/>
      <path d="M14.07,5.94c-.26,0-.44,.14-.62,.32-.06-.12,0-.34-.23-.28-.2,.05-.5-.17-.57,.22-.16,.17-.07,.49-.34,.59-.1,0-.16-.08-.19-.17-.24-.7-1.15-.7-1.64-.25-.16,.15-.26,.37-.5,.42-.05,0-.08-.02-.11-.06,.04-.17,.08-.34,.11-.52,.01-.08,.03-.22-.08-.22-.39,0-.19-.26-.21-.42,1.32,0,2.65,0,3.97-.01,.29,0,.41,.11,.41,.38Z" style="fill: #cc0302;"/>
      <path d="M12.86,8.98c.23,0,.23-.18,.25-.34,.06-.41,.12-.82,.21-1.22,.06-.25,.13-.54,.48-.55,.06,.05,.09,.12,.08,.2-.06,.48-.05,.95,.15,1.4,.04,.08,.04,.17-.02,.25l-.21,.53c-.34,.05-.67,.12-1-.05-.03-.08-.02-.16,.05-.22Z" style="fill: #cc0302;"/>
      <path d="M14.01,8.71c-.31-.59-.32-1.21-.21-1.85,.07-.19,.09-.41,.28-.52-.07,.41-.15,.81-.12,1.23,.07,.99,.58,1.45,1.56,1.4,.09,0,.18,0,.26,0-.33,.32-1.1,.31-1.52-.03-.09-.07-.17-.16-.26-.23Z" style="fill: #11216a;"/>
      <path d="M18.98,6.19c-.1,.71-.19,1.42-.29,2.13-.09,.6-.09,.6,.49,.65-.2,.3-.64,.28-.82-.04l.28-1.84c.08-.17-.04-.37,.08-.53,.08-.13-.03-.39,.26-.38Z" style="fill: #1a296c;"/>
      <path d="M20.07,7.39c0,.13,0,.27,0,.4,.03,.88,.45,1.26,1.32,1.17-.63,.46-1.31,.21-1.49-.55-.1-.41-.08-.82,.07-1.23,.17,0,.11,.11,.1,.2Z" style="fill: #122268;"/>
      <path d="M12.83,9.14c.31,.21,.65,.05,.97,.1-.09,.12-.21,.07-.33,.07-1.16,0-2.32,0-3.48,0,.14-.16,.38,.02,.52-.15,.18-.16,.39,0,.59-.05,.21-.05,.43-.07,.61-.21,.1-.06,.21-.1,.33-.05,.19,.3,.54,.13,.78,.28Z" style="fill: #b6040f;"/>
      <path d="M17.6,7.01c-.24-.26-.52-.15-.8-.1-.13,.02-.36,.11-.38-.04-.02-.18-.19-.47,.16-.58,.02,.01,.04,.02,.06,.01-.07,.34-.02,.52,.39,.38,.2-.07,.43-.05,.65,0,.11,.03,.18,.1,.17,.22-.01,.19-.15,.13-.26,.11Z" style="fill: #16276c;"/>
      <path d="M16.05,8.85v-.14c.11-.06-.06-.29,.17-.27,.19,.52,.59,.61,1.08,.53-.44,.37-.8,.33-1.25-.12Z" style="fill: #1f2a6e;"/>
      <path d="M17.29,8.98c.29-.38,.59,.08,.88,0-.2,.33-.46,.24-.7,.08-.06-.04-.1-.08-.18-.08Z" style="fill: #18276b;"/>
      <path d="M21.38,8.97c.11-.11,.17-.25,.37-.06,.1,.1,.33,.06,.5,.08-.22,.27-.62,.26-.87-.02Z" style="fill: #0b1e64;"/>
      <path d="M22.18,5.51c-.03,.2-.04,.4-.08,.59-.05,.22-.14,.1-.22,.02,.12-.2-.07-.54,.3-.61Z" style="fill: #3e3568;"/>
      <path d="M19.87,6.22c-.02,.05-.11,.12-.11,.1-.09-.4-.41-.26-.66-.29,.29-.06,.59-.17,.77,.19Z" style="fill: #d7e0ef;"/>
      <path d="M20.07,7.39l-.1-.2-.06-.18c.06-.08,.12-.17,.23-.18,.05,.06,.05,.13,0,.19-.01,.13,0,.26-.08,.37Z" style="fill: #35245f;"/>
      <path d="M18.72,6.57l-.08,.53v-.54s.05,0,.08,0Z" style="fill: #fcad3a;"/>
      <path d="M3.83,8.75c-.02,.14-.09,.23-.24,.23-.54,.17-.68,.06-.63-.48,.03-.38,.07-.75,.17-1.12,.04-.15,.1-.3,.12-.46,0-.04,.03-.07,.03-.11,0-.06-.06-.03,0-.01,.05,.02-.03,.08-.01,.03-.03,.1-.05,.2-.06,.3-.1,.18-.1,.4-.18,.59-.06,.16-.1,.32-.25,.43-.21,.24-.1,.66-.46,.81-.39,.09-.5,.02-.52-.33-.02-.35,0-.7-.04-1.05,.03-.17,.05-.34,.03-.5,.01,.05,0,.12,0,.19-.01,.17-.04,.34-.15,.48-.06,.3-.11,.59-.17,.89-.03,.14-.01,.3-.22,.31-.25,.1-.5,.19-.65-.16,.06-.27,.03-.55,.09-.82,.19-.82,.3-1.66,.47-2.48,.18-.17,.98-.29,1.16-.18,.11,.07,.08,.18,.09,.28,.01,.41,.02,.83,.02,1.24,.1,.13,.08,.25,.01,.38,.09-.13,.04-.3,.11-.43,.17-.41,.24-.86,.5-1.23,.07-.17,.17-.29,.39-.26,.23,.02,.47,.01,.7,0,.2-.01,.25,.06,.21,.26-.06,.33-.1,.66-.15,.99,.13,.36-.1,.71-.03,1.06,0,.07,0,.14-.03,.2-.2,.28-.07,.66-.32,.92Z" style="fill: #fcfbfc;"/>
      <path d="M4.11,7.78v-.11c.21-.61,.76-.66,1.27-.78-.21-.12-.21-.13-.48-.09-.16,.02-.33,.09-.46-.06-.14-.18,0-.33,.08-.49,.37-.44,.87-.31,1.33-.28,.37,.03,.6,.27,.67,.64,.14,.16,.09,.36,.1,.55,0,.07-.01,.14-.03,.2-.06,.31-.14,.63-.12,.95,0,.04,0,.08-.01,.12-.1,.14-.1,.3-.15,.46-.03,.06-.07,.1-.15,.08h-.11c-.15,.13-.32,.09-.48,.03-.13-.05-.26-.13-.4-.03h0c-.33,.15-.65,.19-.93-.1-.32-.33-.3-.7-.14-1.1Z" style="fill: #fbfbfb;"/>
      <path d="M6.42,8.4h0c.03-.24,.23-.22,.4-.24,.16-.01,.32,.09,.48,.01,.26-.24-.03-.28-.14-.35-.3-.18-.54-.39-.56-.77,0-.18,0-.36,.01-.53,.52-.63,1.2-.66,1.93-.55,.06,.04,.07,.1,.07,.17-.03,.15-.03,.3-.07,.44-.02,.04-.04,.08-.07,.11-.07,.05-.16,.06-.24,.07-.18,.04-.4-.08-.55,.1,.19,.28,.57,.34,.72,.66,.07,.12,.06,.25,.03,.38,0,.2,0,.4-.05,.59-.02,.1-.07,.16-.17,.18l-.52,.3c-.44,.09-.89,.23-1.31-.08-.06-.17-.06-.34,.04-.5Z" style="fill: #fbfbfb;"/>
      <path d="M5.53,7.01c-.57,0-1.05,.21-1.42,.65-.19-.39,.06-.73,.1-1.1,.02,0,.04,0,.06,0,.13,.25,.3,.29,.58,.22,.24-.06,.56-.17,.67,.23Z" style="fill: #c6080c;"/>
      <path d="M1.17,5.52c.02,.86-.2,1.67-.43,2.49-.08-.13-.06-.26-.02-.4,.1-.63,.2-1.26,.31-1.89,.01-.08,.04-.18,.14-.2Z" style="fill: #191e68;"/>
      <path d="M5.53,7.01c-.25-.28-.56-.18-.86-.11-.3,.06-.44-.01-.4-.34,.04-.15,.09-.28,.26-.32-.1,.4-.04,.61,.44,.42,.18-.07,.4,0,.6,.05,.1,.03,.16,.05,.16,.16,0,.14-.08,.18-.2,.15Z" style="fill: #111963;"/>
      <path d="M8.55,6.09v-.12c.04-.13,.12-.24,.28-.22,0,.4-.1,.78-.19,1.17-.26-.05-.11-.24-.13-.37,.01-.15-.03-.31,.03-.46Z" style="fill: #152b77;"/>
      <path d="M.65,8.83c.15,.25,.41,.06,.6,.15-.19,.37-.54,.1-.79,.2-.01-.22,.03-.44,.11-.65,.21,.05,.09,.19,.09,.3Z" style="fill: #0f1e68;"/>
      <path d="M3.05,5.58l-.47,1.28h-.04c.1-.46,.11-.94,.51-1.28Z" style="fill: #37276d;"/>
      <path d="M.65,8.83c-.02-.1,0-.22-.09-.3,0-.31,.06-.62,.15-.92l.02,.4c0,.27,.06,.56-.08,.82Z" style="fill: #23206a;"/>
      <path d="M6.62,6.52c.17,.18,.03,.39,.07,.58-.05,.05-.07,.14-.17,.09v-.58l.1-.09Z" style="fill: #3e4895;"/>
      <path d="M2.55,6.85h.04c.04,.17,.02,.31-.13,.46-.06-.16-.05-.3-.02-.45h.11Z" style="fill: #515fa7;"/>
      <path d="M11.77,8.97c-.37,.34-.82,.26-1.25,.2-.36-.1-.61-.35-.78-.67l-.03-.28c-.32-.42-.18-1.13,.26-1.41,.19,.18,.06,.39,.05,.58-.04,.81,.15,1.15,.87,1.49,.23,.11,.47,.07,.7,.03,.07,0,.13,.01,.19,.06Z" style="fill: #13216b;"/>
      <path d="M4.11,7.78c0,.09,0,.18-.01,.26-.03,.73,.27,.99,1.08,.92-.47,.39-.75,.35-1.35-.22,.09-.32-.05-.71,.28-.97Z" style="fill: #19246e;"/>
      <path d="M2.95,7.67l.18-.57c.18-.01,.13,.1,.1,.19-.06,.41-.1,.81-.18,1.21-.07,.33-.01,.51,.37,.44,.05,0,.11,.01,.17,.02-.16,.35-.47,.2-.69,.16-.23-.05-.08-.29-.06-.45,.02-.18,.03-.35,.05-.53-.01-.17,.01-.33,.06-.49Z" style="fill: #132069;"/>
      <path d="M1.64,7.78l.08-.49c.17-.05,.09,.13,.16,.18,.01,.36,.06,.73,.03,1.09-.03,.34,.12,.44,.41,.43-.08,.27-.3,.2-.48,.17-.2-.04-.13-.23-.15-.37-.03-.33,.06-.68-.05-1.01Z" style="fill: #091f68;"/>
      <path d="M8.21,8.67l.09-.15s.07-.14,.17-.08c.17,.52,.28,.58,.99,.53-.4,.45-.96,.31-1.24-.3Z" style="fill: #1a226c;"/>
      <path d="M6.42,8.88c.41,.16,.84,.07,1.26,.09-.45,.3-1.24,.3-1.52,0l.08-.09c.06-.05,.12-.05,.18,0Z" style="fill: #131e6a;"/>
      <path d="M5.17,8.97c.3-.39,.59,.11,.89,0-.17,.36-.44,.19-.68,.11-.06-.02-.12-.11-.21-.12Z" style="fill: #121d66;"/>
      <path d="M2.95,7.67c.03,.17,.02,.33-.06,.49h-.12c.03-.17,.07-.34,.18-.49Z" style="fill: #b92a38;"/>
      <path d="M21.55,8.09c-.4,.2-.59,.12-.62-.29-.03-.32-.02-.64,.24-.9,.38-.1,.49,.17,.55,.45,.06,.27-.02,.52-.18,.74Z" style="fill: #fa9806;"/>
      <path d="M21.55,8.09c.04-.22,.11-.42,.09-.65-.03-.3-.13-.51-.47-.54,.3-.27,.57-.24,.65,.1,.09,.39,.11,.8-.27,1.08Z" style="fill: #11236b;"/>
      <path d="M20.15,7.02v-.19c.03-.09,.06-.17,.17-.18-.03,.14-.07,.27-.17,.38Z" style="fill: #3d4c9b;"/>
      <path d="M17.56,8.1c-.13,.18-.27,.34-.5,.15-.18-.15-.1-.31,.06-.43,.28-.12,.48-.1,.44,.28Z" style="fill: #f29918;"/>
      <path d="M17.56,8.1c-.06-.23-.22-.31-.44-.28,.02-.11,.12-.13,.2-.15,.14-.03,.33-.11,.41,.03,.08,.14,.03,.32-.16,.4Z" style="fill: #132977;"/>
      <path d="M16.22,8.44l-.17,.27c-.09-.21,.19-.43-.02-.63-.01-.15,.1-.22,.19-.3v.67Z" style="fill: #334298;"/>
      <path d="M16.27,6.16c-.03,.16-.06,.27-.28,.19-.21-.07-.44-.16-.67-.05,.26-.44,.62-.23,.95-.13Z" style="fill: #283075;"/>
      <path d="M10,6.8c-.37,.42-.4,.9-.29,1.41-.32,.11-.45-.03-.4-.35,.05-.32,.12-.63,.18-.95,.05-.08,.16-.09,.21-.17l.17-.02,.14,.03v.04Z" style="fill: #c80a0c;"/>
      <path d="M8.56,6.57c.02,.12-.04,.26,.09,.35-.02,.33-.07,.66-.16,.98-.03,.04-.06,.04-.09,0l-.08-.32c-.02-.33-.02-.67,.16-.97h0s.04-.06,.09-.03Z" style="fill: #242d74;"/>
      <path d="M8.4,7.9h.09l-.02,.55-.17,.08,.1-.63Z" style="fill: #5563aa;"/>
      <path d="M9.7,6.75c0,.15-.08,.19-.21,.17-.03-.18,.07-.21,.21-.17Z" style="fill: #021b67;"/>
      <path d="M12.83,9.14c-.14,0-.29,0-.43,.02-.27,.04-.37-.09-.37-.34-.18-.22-.07-.44,0-.66,.06-.15,.07-.31,.07-.47,.01-.17,.02-.34,.2-.44,.08,0,.15,.02,.1,.13,.11,.34-.02,.68-.09,.98-.12,.55,.12,.63,.54,.61l-.02,.16Z" style="fill: #1a2167;"/>
      <path d="M12.4,7.39l-.1-.11c-.14-.17-.13-.34,0-.51,.24-.11-.02-.54,.36-.57-.06,.4-.03,.82-.25,1.19Z" style="fill: #1d2770;"/>
      <path d="M12.29,6.77v.51c-.1,.12-.08,.28-.08,.42-.06,.09-.14,.12-.24,.14-.36,.06-.73-.1-1.07,.1,.17,.32,.46,.16,.7,.19,.18,.02,.37-.13,.53,.07-.11,.2-.11,.41-.1,.63-.09,.05-.17,.1-.26,.14l-.18,.02c-.24,.05-.47,.05-.71,0-.97-.21-1.07-1.02-.94-1.84,.02-.11,.1-.21,.06-.34,.02-.01,.02-.03,.01-.04,.25-.34,.5-.69,.95-.8,.64-.16,1.1,.12,1.33,.81Z" style="fill: #fbfbfb;"/>
      <path d="M1.88,7.46l-.16-.18c-.02-.17,.02-.34,.16-.48v.66Z" style="fill: #334199;"/>
      <path d="M3.23,7.3c-.03-.06-.01-.16-.1-.19l.1-.34c.08-.03,.11,0,.09,.08-.02,.15,0,.32-.09,.46Z" style="fill: #4957a4;"/>
      <path d="M3.33,6.84l-.09-.08c0-.09,.08-.23,.11-.2,.11,.08,.06,.19-.01,.28Z" style="fill: #a9b4d6;"/>
      <path d="M7.4,8.26c-.18,.12-.37,.03-.56,0-.16-.02-.32-.07-.42,.12-.2-.34,.03-.66,.06-.99,.29,.19,.54,.45,.84,.64,.07,.04,.14,.12,.07,.22Z" style="fill: #cb1113;"/>
      <path d="M7.4,8.26c-.23-.37-.78-.4-.91-.86l.03-.21,.17-.09c.1,.37,.39,.56,.71,.73,.28,.15,.27,.24,0,.43Z" style="fill: #0e206b;"/>
      <path d="M5.36,8.23c-.15,.13-.31,.16-.44-.02-.11-.15-.07-.29,.09-.39,.14-.08,.28-.11,.4,.01,.13,.14,.03,.27-.05,.4Z" style="fill: #c81114;"/>
      <path d="M5.36,8.23c.12-.34-.02-.46-.35-.41,0-.01,0-.03,.01-.04,.18-.16,.46-.25,.58-.09,.13,.17-.04,.41-.24,.54Z" style="fill: #152774;"/>
      <path d="M6.42,8.88h-.18c.03-.18-.08-.4,.18-.49v.49Z" style="fill: #4b448c;"/>
      <path d="M8.47,6.6c.03,.34-.02,.66-.16,.97-.12-.22-.33-.32-.53-.45-.12-.07-.3-.08-.26-.29,.21-.18,.5,0,.72-.15l.23-.08Z" style="fill: #c0080d;"/>
      <path d="M8.24,6.68c-.17,.37-.49,.07-.72,.15,.18-.34,.47-.15,.72-.15Z" style="fill: #112370;"/>
      <path d="M8.56,6.57l-.09,.04c-.02-.18,0-.36,.08-.52v.48Z" style="fill: #97011c;"/>
      <path d="M10.88,8.98h.71c-.24,.12-.47,.12-.71,0Z" style="fill: #0f2476;"/>
      <path d="M11.99,7.75l.22-.05c0,.17,.02,.35-.09,.5-.3,.03-.59,.08-.89,.08-.25,0-.5-.05-.54-.37,.23-.18,.5-.06,.75-.1,.18-.02,.37,.05,.54-.07Z" style="fill: #c2060b;"/>
      <path d="M11.99,7.75c.03,.2-.12,.16-.23,.16-.36,0-.71,0-1.07,0-.04-.18,.08-.18,.21-.18,.36,0,.73,.01,1.09,.02Z" style="fill: #061a65;"/>
      <path d="M10.88,6.83c.2-.27,.43-.29,.61,0,.1,.15,.09,.32-.18,.27-.13-.11-.32-.12-.43-.26Z" style="fill: #15226c;"/>
      <path d="M10.88,6.83c.22-.03,.35,.07,.43,.26-.11,0-.23,.01-.34,.01-.3,0-.21-.13-.09-.28Z" style="fill: #c1090f;"/>
    </g>
  </g>
</svg>