<?xml version="1.0" encoding="UTF-8"?>
<svg id="b" data-name="圖層 2" xmlns="http://www.w3.org/2000/svg" width="24" height="24" xmlns:xlink="http://www.w3.org/1999/xlink" viewBox="0 0 24 24">
  <defs>
    <style>
      .e {
        clip-path: url(#d);
      }

      .f {
        fill: #dbdcdc;
      }

      .g {
        fill: #9e9e9f;
      }

      .h {
        fill: none;
      }
    </style>
    <clipPath id="d">
      <circle class="h" cx="12" cy="12" r="12"/>
    </clipPath>
  </defs>
  <g id="c" data-name="文字">
    <g class="e">
      <circle class="f" cx="12" cy="12" r="12"/>
      <path class="g" d="M4.18,21.1c.18-.19,.41-.32,.64-.45,1.15-.63,2.29-1.25,3.44-1.87,.61-.33,.91-.82,.9-1.51,0-.41,.04-.83-.01-1.24-.05-.41-.41-.68-.61-1.03-.34-.63-.64-1.28-.82-1.98-.03-.11-.08-.2-.17-.27-.29-.24-.44-.56-.44-.94,0-.54,0-1.08,0-1.63,0-.3,.1-.57,.3-.79,.09-.1,.12-.21,.12-.34,0-.8-.02-1.59-.02-2.39,.02-1.4,.64-2.45,1.94-2.97,1.74-.7,3.52-.7,5.25,.04,1.24,.53,1.9,1.73,1.84,3.08-.03,.77,0,1.55-.01,2.32,0,.1,.04,.16,.1,.23,.22,.25,.32,.54,.32,.88,0,.5,0,1,0,1.51,0,.54-.24,.95-.74,1.18-.11,.05-.16,.12-.19,.22-.33,.97-.8,1.86-1.44,2.65-.07,.09-.09,.18-.09,.29,0,.44,0,.88,0,1.31,0,.65,.31,1.12,.89,1.41,1.26,.63,2.52,1.26,3.78,1.89,.24,.12,.48,.25,.67,.45-.01,.06-.05,.09-.1,.13-1.64,1.32-3.49,2.17-5.57,2.54-.41,.07-.82,.07-1.22,.19h-1.82c-.06-.04-.13-.04-.21-.05-.39-.05-.79-.09-1.18-.17-1.6-.3-3.08-.91-4.44-1.8-.4-.26-.81-.51-1.12-.88Z"/>
    </g>
  </g>
</svg>