<?xml version="1.0" encoding="UTF-8"?>
<svg id="b" data-name="圖層 2" xmlns="http://www.w3.org/2000/svg" width="49.37" height="49.37" xmlns:xlink="http://www.w3.org/1999/xlink" viewBox="0 0 49.37 49.37">
  <defs>
    <style>
      .e {
        clip-path: url(#d);
      }

      .f {
        fill: #dbdcdc;
      }

      .g {
        fill: #9e9e9f;
      }

      .h {
        fill: none;
      }
    </style>
    <clipPath id="d">
      <circle class="h" cx="24.68" cy="24.68" r="24.68"/>
    </clipPath>
  </defs>
  <g id="c" data-name="bar">
    <g class="e">
      <circle class="f" cx="24.68" cy="24.68" r="24.68"/>
      <path class="g" d="M8.59,43.41c.38-.4,.85-.67,1.32-.93,2.36-1.29,4.71-2.58,7.07-3.85,1.25-.67,1.88-1.68,1.85-3.1-.02-.85,.08-1.72-.03-2.55-.11-.84-.85-1.4-1.25-2.13-.7-1.3-1.32-2.63-1.68-4.07-.06-.23-.16-.41-.35-.56-.6-.5-.9-1.16-.91-1.94-.01-1.11,0-2.23,0-3.34,0-.61,.2-1.17,.61-1.62,.19-.21,.26-.43,.25-.7-.02-1.64-.05-3.28-.03-4.92,.03-2.87,1.32-5.03,3.98-6.11,3.58-1.44,7.24-1.44,10.81,.09,2.56,1.09,3.9,3.55,3.78,6.34-.07,1.59-.02,3.18-.03,4.77,0,.2,.08,.34,.2,.48,.46,.51,.66,1.12,.66,1.8,0,1.03,0,2.07,0,3.1,0,1.12-.49,1.95-1.52,2.43-.22,.1-.33,.24-.4,.45-.67,1.99-1.64,3.82-2.96,5.45-.14,.18-.19,.36-.19,.59,0,.9,0,1.8,0,2.7,.02,1.34,.63,2.31,1.83,2.9,2.59,1.29,5.18,2.59,7.77,3.89,.5,.25,.98,.52,1.38,.92-.03,.12-.11,.19-.2,.27-3.38,2.71-7.19,4.46-11.45,5.23-.84,.15-1.69,.15-2.51,.38h-3.74c-.13-.09-.28-.08-.42-.1-.81-.11-1.62-.19-2.42-.35-3.29-.63-6.33-1.87-9.12-3.71-.81-.54-1.66-1.05-2.3-1.8Z"/>
    </g>
  </g>
</svg>