<?xml version="1.0" encoding="UTF-8"?>
<svg id="b" data-name="圖層 2" xmlns="http://www.w3.org/2000/svg" width="34.06" height="80.19" viewBox="0 0 34.06 80.19">
  <defs>
    <style>
      .d {
        fill: #9e3147;
      }
    </style>
  </defs>
  <g id="c" data-name="bar">
    <g>
      <path class="d" d="M22.76,32.35c5.95-2.29,10.12-7.77,10.17-14.03,0-.05,0-.09,0-.14h0C32.94,8.14,24.63,0,14.38,0H0V48.57c6.04-9.21,19.42-14.93,22.76-16.22Z"/>
      <path class="d" d="M32.26,69.1V34.28c-5.05,1.14-21.44,6.77-28.58,16.79C1.38,54.29,0,58.07,0,62.02h0c0,10.03,8.12,18.16,18.15,18.16h15.9c-1.19-3.58-1.8-7.32-1.8-11.09Z"/>
    </g>
  </g>
</svg>