<?xml version="1.0" encoding="UTF-8"?>
<svg id="b" data-name="圖層 2" xmlns="http://www.w3.org/2000/svg" width="111.61" height="16.42" viewBox="0 0 111.61 16.42">
  <defs>
    <style>
      .d {
        fill: #fbe4e7;
      }
    </style>
  </defs>
  <g id="c" data-name="圖層 1">
    <g>
      <g>
        <path class="d" d="M12.83,4.68V2.48c0-.17-.14-.31-.31-.31H7.1l.02-.03c.26-.38,.44-.72,.54-1.04v-.04l-.02-.03c-.27-.22-.96-.56-2.13-1.03h-.21l.03,.08c.24,.72,.58,1.41,1.01,2.06l.02,.03H.48v2.5h1.71v-1.73H11.12v1.73h1.71Z"/>
        <path class="d" d="M7.04,8.83v-2.68h.02c1.73-.17,3.28-.38,4.62-.63h.06v-.16l-.03-.02c-.9-.56-1.57-.92-2.05-1.1h-.06c-2.28,.89-5.17,1.45-8.59,1.66h-.07v.58h.07c1.34,0,2.78-.04,4.29-.12h.02v2.62h-.02l-5.31,.38,.09,.77,5.24-.45v5.5h.69c2.25,.02,4.4,.17,6.38,.44h.08l.02-2.95h-1.11v1.53h-.02c-1-.02-2.56-.04-4.3,0h-.02v-4.68l5.88-.45-.09-.77-5.78,.51Z"/>
        <path class="d" d="M46.57,1.19l-.02-.02c-.64-.52-1.1-.84-1.43-.97h-.07c-1.14,.64-2.76,1.11-4.83,1.4h-.06v.26h2.35v1.02h-2.5v.77h2.17v.03c-.38,1.31-1.15,2.51-2.31,3.57l-.12,.11h.75l.02-.02c.83-.68,1.49-1.27,1.96-1.75l.04-.04v2.19h1.55v-3.06l.04,.05c.39,.49,.86,.98,1.41,1.46l.08,.07,.04-.1c.16-.43,.26-.82,.32-1.16v-.04l-.03-.02c-.6-.37-1.22-.71-1.83-1h-.01v-.28h2.19v-.77h-2.19V1.73h.02c.57-.05,1.39-.18,2.43-.38h.06v-.16Z"/>
        <path class="d" d="M53.55,9.48c-3.16-.42-5.37-1.23-6.56-2.43h-.01l.19-.32h.22l.02-.02s2.41-2.96,2.74-4.07h.82c0,.33,0,1.6,0,1.65,0,.7-.16,1.31-.48,1.79-.72,1.1-1.39,1.37-1.63,1.43,.09,.02,.16,.04,.21,.06,.19,.05,.3,.08,.56,.08,.58,0,1.15-.25,1.71-.75,.87-.77,1.34-1.81,1.34-2.92V1.98h-3.72l.02-.03c.33-.56,.57-1.12,.71-1.68l.02-.08h-2.04v.06c-.05,1.6-.63,2.96-1.71,4.06l-.11,.11h.74l.02-.02c.2-.2,.48-.47,.85-.83,.5-.41,.83-.72,1-.94h.28v.02c-.22,1.34-.84,2.6-1.82,3.74h-1.59l-.02,.05c-.62,1.85-2.5,3.52-5.6,4.95l-.27,.13h1.27c.74-.29,1.5-.66,2.25-1.1h.03s.03,.06,.05,.09c.32,.73,.61,1.32,.87,1.74l.02,.03h.15l.02-.02c.65-.71,.72-.95,.72-1.07v-.03l-.02-.02c-.21-.22-.59-.46-1.11-.71-.13-.08-.25-.15-.34-.19l-.03-.02,.03-.02c1.22-.78,2.36-1.75,3.4-2.9l.02-.02v.02c.72,1.24,1.71,2.16,2.93,2.75h.02l-1.4,1.76h-.01c-.41-.21-.68-.34-.82-.4h-.01v-2.46h-1.71v2.72h0c-1.21,.9-2.84,1.44-4.84,1.62h-.11l.88,1.39,.06-.02c1.76-.56,3.1-1.35,3.99-2.34l.04-.04v.76c0,.63-.17,1.25-.48,1.79-.37,.63-.82,.99-1.13,1.18-.23,.14-.42,.21-.52,.25,.09,.02,.16,.04,.23,.06,.19,.05,.3,.08,.56,.08,.58,0,1.15-.25,1.71-.75,.87-.77,1.34-1.81,1.34-2.92v-.79l.04,.03c.82,.8,2.3,1.87,4.39,3.18h.18v-.04c.06-.31,.09-.81,.09-1.48v-.04l-.04-.02c-.43-.22-1.32-.65-2.65-1.27h-.02s-.14-.07-.29-.15h-.02l1.41-1.77h.01c.14,.04,.32,.1,.56,.18,.73,.27,1.34,.47,1.8,.61l.5,.17,.16-1.86h-.07Z"/>
        <path class="d" d="M29.22,8.07c.53,0,1.07-.06,1.58-.2,.15-.04,.29-.08,.39-.13,1.35-.58,2.19-1.8,2.19-3.18,0-3.54-3.34-3.54-3.34-3.54h-8.1V15.18h1.71c3.23,.05,6.53,.27,9.06,.61h.08v-3.11h-1.1v1.65h-.02c-2.02-.05-5.18-.06-8,.04h-.02v-6.3h5.56Zm.26-6.14s2.17-.24,2.17,2.74c0,.05,0-.15,0-.1s0,.1,0,.15c-.07,1.39-1.27,2.46-2.66,2.46h-2.79v-.02c.02-.19,.05-.36,.08-.51,.34-1.69,1.41-3.27,3.2-4.7Zm-5.82,0h3.61l-.02,.03c-1.05,1.53-1.73,3.16-2,4.85-.02,.11-.03,.22-.05,.34v.02h-1.54V1.92Z"/>
      </g>
      <g>
        <g>
          <path class="d" d="M85.17,.7h-3.24v7.9h1.01v-3.4h2.24c1.46,0,2.56-.97,2.56-2.25s-1.06-2.25-2.57-2.25Zm1.55,2.25c0,1.09-.91,1.98-2.04,1.98h-1.74V.96h1.74c1.12,0,2.04,.89,2.04,1.98Z"/>
          <rect class="d" x="103.17" y=".7" width="1.01" height="7.9"/>
          <path class="d" d="M110.47,4.72l-2.84-1.52c-.4-.19-.81-.46-.81-1,0-.61,.66-1.27,1.64-1.28,1.1,0,1.65,.41,2.19,1.06l.09,.11,.5-.7-.1-.06c-.77-.44-1.68-.68-2.65-.68-.27,0-.56,.03-.9,.08-1.13,.21-1.67,1.01-1.69,1.71,0,.68,.31,1.16,.99,1.52l2.7,1.45c.6,.32,.96,.8,.96,1.28,0,1.04-1.04,1.66-2.05,1.66s-1.8-.9-1.99-1.3l-.07-.15-.58,.66,.08,.07c.43,.38,1.51,.99,2.56,.99,1.22,0,1.95-.39,2.36-.72,.48-.39,.76-.92,.76-1.43,0-.76-.39-1.36-1.14-1.76Z"/>
          <path class="d" d="M93.37,6.39l-1.98-5.62-.02-.07h-.81l-2.78,7.9h.37l.63-1.79c.25-.37,.59-.67,1-.9,.63-.35,1.39-.45,2.26-.31l.25,.72h0l.8,2.28h1.07l-.76-2.17-.02-.04Zm-1.54-1.37c-.83,.07-1.6,.31-2.29,.71-.19,.11-.36,.23-.52,.36l1.59-4.52,1.22,3.45Z"/>
          <path class="d" d="M99.01,5.19c1.36-.08,2.36-1.02,2.36-2.24,0-1.33-1.06-2.25-2.57-2.25h-3.24v7.9h1.01v-3.4s.66,0,1.15,.01c.54,0,1.04,.31,1.28,.79,.55,1.1,.82,2.65,2.22,2.65,.22,0,.26-.04,.53-.12-1.25,.15-1.15-2.49-2.75-3.34Zm-2.43-4.23h1.74c1.12,0,2.04,.89,2.04,1.98s-.91,1.98-2.04,1.98h-1.74V.96Z"/>
          <path class="d" d="M71.33,8.56c.9-.18,1.91-.27,2.98-.27,1.14,0,2.22,.11,3.16,.31v-.88c-1.16-.06-3.04-.07-4.56,.19l4.53-6.99,.02-.03v-.19h-6.11v.27h4.87l-4.88,7.59Z"/>
          <path class="d" d="M80.05,8.59h-.83v-.89h.52c.2,0,.31,.11,.31,.34v.55Z"/>
        </g>
        <g>
          <path class="d" d="M71.33,12.94h.48v2.33h1.45v.44h-1.94v-2.77Z"/>
          <path class="d" d="M77.41,14.51c0,.21-.03,.39-.08,.54-.06,.16-.14,.29-.24,.39s-.23,.18-.37,.23-.31,.08-.49,.08-.34-.03-.49-.08-.27-.13-.37-.23c-.1-.1-.18-.23-.24-.38-.06-.15-.08-.33-.08-.53v-1.59h.48v1.57c0,.26,.06,.45,.19,.59,.12,.13,.3,.2,.52,.2s.39-.06,.51-.19c.12-.13,.19-.32,.19-.58v-1.59h.48v1.57Z"/>
          <path class="d" d="M81.23,15.71l-.73-1.05-.73,1.05h-.56l1.01-1.41-.97-1.36h.57l.69,.99,.69-.99h.56l-.96,1.35,1,1.42h-.57Z"/>
          <path class="d" d="M85.97,14.51c0,.21-.03,.39-.08,.54-.06,.16-.14,.29-.24,.39s-.23,.18-.37,.23-.31,.08-.49,.08-.34-.03-.49-.08-.27-.13-.37-.23c-.1-.1-.18-.23-.24-.38-.06-.15-.08-.33-.08-.53v-1.59h.48v1.57c0,.26,.06,.45,.19,.59,.12,.13,.3,.2,.52,.2s.39-.06,.51-.19c.12-.13,.19-.32,.19-.58v-1.59h.48v1.57Z"/>
          <path class="d" d="M89.8,15.71l-.68-.96h-.61v.96h-.48v-2.77h1.23c.16,0,.3,.02,.43,.06,.13,.04,.24,.1,.32,.17,.09,.08,.16,.17,.2,.28s.07,.23,.07,.37c0,.12-.02,.22-.05,.31-.03,.09-.08,.17-.14,.24-.06,.07-.13,.13-.21,.18-.08,.05-.17,.09-.27,.11l.75,1.05h-.57Zm-.16-2.21c-.1-.08-.24-.12-.42-.12h-.71v.93h.71c.17,0,.31-.04,.42-.13,.1-.08,.15-.2,.15-.34,0-.15-.05-.27-.15-.35Z"/>
          <path class="d" d="M93.47,15.71h-.49v-1.09l-1.1-1.68h.57l.77,1.23,.78-1.23h.56l-1.1,1.66v1.1Z"/>
        </g>
      </g>
    </g>
  </g>
</svg>