<?xml version="1.0" encoding="UTF-8"?>
<svg id="b" data-name="圖層 2" xmlns="http://www.w3.org/2000/svg" width="158.44" height="11.95" viewBox="0 0 158.44 11.95">
  <defs>
    <style>
      .d {
        fill: #231815;
      }

      .e {
        fill: #e95529;
      }
    </style>
  </defs>
  <g id="c" data-name="b">
    <g>
      <g>
        <path class="d" d="M68.28,11.2h-1.68V1.33h5.51c.4,0,.82,.02,1.29,.08,.46,.05,.9,.18,1.3,.39,.41,.21,.75,.53,1.02,.95s.41,1.01,.41,1.74c0,.62-.1,1.13-.29,1.54-.2,.4-.47,.72-.82,.95-.35,.24-.77,.4-1.27,.5-.5,.09-1.04,.14-1.64,.14h-3.83v3.58h0Zm3.83-5.26c.4,0,.74-.01,1.03-.04,.29-.02,.54-.09,.73-.19s.34-.25,.44-.44c.09-.19,.14-.45,.14-.78,0-.37-.06-.66-.17-.86-.11-.2-.28-.35-.48-.45s-.46-.15-.74-.16-.6-.02-.95-.02h-3.83v2.93h3.82Z"/>
        <path class="d" d="M88.85,11.2h-1.98l-1.26-2.31h-6.02l-1.22,2.31h-1.91l5.34-9.87h1.68l5.37,9.87h0Zm-6.23-7.98l-2.15,4h4.31l-2.15-4h0Z"/>
        <path class="d" d="M101.72,11.2h-2.1l-2.84-4.04h-3.47v4.04h-1.68V1.33h6.1c.5,0,.97,.05,1.42,.14,.45,.09,.85,.25,1.2,.47,.35,.22,.63,.51,.83,.87,.2,.36,.31,.81,.31,1.36s-.08,1-.25,1.36c-.17,.36-.38,.65-.64,.87s-.55,.38-.86,.48c-.31,.11-.61,.19-.9,.24l2.88,4.08h0Zm-3.81-5.71c.56,0,1.01-.09,1.37-.28,.35-.18,.53-.52,.53-1,0-.28-.04-.5-.13-.66-.09-.16-.22-.28-.39-.36s-.38-.13-.63-.15c-.25-.02-.53-.03-.85-.03h-4.5v2.48h4.59Z"/>
        <path class="d" d="M107.11,11.2h-1.68V1.33h1.68V11.2Z"/>
        <path class="d" d="M120.09,3.84c-.2-.11-.43-.24-.68-.37s-.53-.26-.86-.37c-.33-.11-.69-.21-1.1-.29-.41-.08-.89-.11-1.44-.11-.92,0-1.6,.11-2.07,.34s-.7,.55-.7,.97c0,.24,.03,.44,.09,.6,.07,.16,.21,.29,.43,.38,.22,.09,.54,.17,.96,.21,.42,.04,.99,.07,1.69,.07,1.12,0,2,.08,2.66,.24,.66,.16,1.15,.37,1.49,.64,.34,.26,.57,.57,.67,.92s.15,.71,.15,1.1c0,.71-.15,1.29-.45,1.72-.3,.44-.68,.77-1.15,1.01-.47,.24-.99,.4-1.57,.48s-1.14,.12-1.69,.12c-.84,0-1.58-.07-2.23-.2s-1.21-.29-1.69-.47-.87-.36-1.17-.55-.54-.34-.7-.46l.8-1.47c.28,.18,.57,.35,.88,.53s.65,.33,1.03,.47c.38,.14,.82,.25,1.32,.34s1.1,.13,1.8,.13c.44,0,.85-.02,1.22-.08,.37-.05,.68-.13,.95-.25,.26-.11,.47-.27,.62-.46,.15-.19,.22-.42,.22-.7,0-.32-.05-.56-.16-.73-.11-.17-.32-.3-.63-.39s-.75-.15-1.32-.18c-.57-.03-1.31-.06-2.24-.09-.56-.01-1.08-.07-1.54-.16-.47-.09-.87-.25-1.21-.46s-.6-.48-.78-.83-.28-.77-.28-1.3c0-.42,.08-.82,.25-1.2,.16-.38,.43-.72,.79-1.01,.36-.29,.83-.53,1.41-.7,.58-.18,1.28-.26,2.11-.26,.6,0,1.16,.05,1.68,.16s.99,.23,1.41,.37c.42,.14,.78,.28,1.09,.43,.31,.15,.54,.26,.7,.35l-.78,1.51h.01Z"/>
        <polygon class="d" points="53.1 9.52 59.24 3.55 59.24 1.33 51.12 1.33 51.12 3 57.52 3 51.13 9.28 51.12 11.2 59.24 11.2 60.15 9.52 53.1 9.52"/>
        <polygon class="e" points="63.48 11.2 61.81 11.2 62.69 9.52 64.37 9.52 63.48 11.2"/>
      </g>
      <g>
        <path class="d" d="M5.76,.72v.39h3.15v-.39c0-.3,.02-.4,.06-.63,0-.05-.03-.09-.08-.09h-3.13c-.05,0-.09,.05-.08,.1,.05,.24,.08,.33,.08,.63h0Z"/>
        <path class="d" d="M14.48,8.51h-3.13c-.05,0-.09,.06-.08,.13,.05,.33,.08,.44,.08,.85v.03c-.09,.01-.85,.12-1.12,.14-.15,.01-.4,.04-.78,.04-.25,0-.57-.02-.81-.04-.41-.04-.77-.09-.97-.12v-1.21l5.06-.81h.12s.06-.03,.06-.06l-.17-1.74s-.04-.04-.07-.03c-.05,.02-.09,.03-.12,.04h0c-.2,.08-1.57,.56-3.29,1.08-.47,.14-1.05,.29-1.6,.4v-1.65h3.68v-1.96s-1.04,.16-2.36,.3c-.5,.05-1.17,.09-1.69,.09-.81,0-1.32-.07-1.64-.09-.61-.04-2.36-.3-2.36-.3v1.96h1.9v1.97c-.27,.01-.5,.02-.68,.03-.83,.06-3.13,0-3.4,0h-.12s-.06,.03-.06,.06l.16,1.74s.04,.04,.07,.03c.04-.01,.08-.03,.11-.03l3.91-.62v1.84c0,.66,.53,1.19,1.19,1.19h6.19c1,0,1.82-.77,1.91-1.74h0v-.18h0v-.35c0-.4,.02-.54,.06-.85,0-.07-.03-.13-.08-.13h0Z"/>
        <path class="d" d="M14.47,1.06c-.23,.05-.33,.06-.63,.06H.1c-.05,0-.1,.03-.1,.08v3.17c0,.05,.05,.09,.1,.08,.24-.05,.33-.08,.63-.08h1.9v-1.08c.68-.1,1.33-.19,1.72-.23,.57-.05,1.48-.2,2.93-.2,.93,0,2.13,.09,3.03,.2,.61,.08,1.2,.16,1.72,.23v1.06h2.11c.1,.01,.19,.04,.33,.06,.05,0,.1-.03,.1-.08V1.13c0-.05-.05-.09-.1-.08h0Z"/>
        <path class="d" d="M29.68,.53h-13.21s-.08,.05-.07,.1c.05,.24,.07,.32,.07,.62v.33h-.01v8c0,1.22,.89,2.21,2.01,2.21h9.17c1.12,0,2.03-.98,2.03-2.2h0v-.74c0-.5,.01-.66,.06-1.05,0-.08-.03-.16-.07-.16h-2.88s-.08,.08-.07,.16c.05,.4,.07,.55,.07,1.05v.55c-.62,.09-1.34,.17-1.71,.2-.38,.03-.98,.11-1.94,.11-.62,0-1.41-.05-2.01-.11-.75-.08-1.42-.16-1.92-.23v-2.99h10.51V1.63h0v-.38c0-.3,.01-.4,.06-.63,0-.05-.03-.09-.07-.09h0Zm-5.46,3.89h-.06c-.03-.2-.05-.41-.06-.53,0-.14-.04-.35-.04-.7,0-.22,.02-.51,.04-.73v-.05h2.69v.05c.03,.22,.05,.5,.05,.73,0,.35-.03,.57-.04,.7,0,.12-.03,.32-.06,.52h-2.52Zm-4.85,0h-.06c-.03-.2-.05-.41-.06-.53,0-.14-.04-.35-.04-.7,0-.22,.02-.51,.04-.73v-.05h2.69v.05c.03,.22,.05,.5,.05,.73,0,.35-.03,.57-.04,.7,0,.12-.03,.32-.06,.52h-2.52Z"/>
        <path class="d" d="M45.84,9.5c-1.12,.4-3.9,.41-3.9,.41l1.52-2.1-3.34-.81,.14,4.08s4.66,1.1,5.76,.84c-.17-.86-.22-1.54-.19-2.42h0Z"/>
        <path class="d" d="M35.07,9.91s-2.79-.02-3.9-.41c.03,.87-.02,1.55-.19,2.42,1.1,.26,5.75-.85,5.76-.84l.14-4.08-3.34,.81,1.52,2.1h0Z"/>
        <rect class="d" x="37.5" y="6.51" width="2" height="5.25"/>
        <path class="d" d="M44.32,6.46c-.27-.05-.72-.09-1.41-.26-.2-.05-.43-.11-.65-.18,.64,.04,.94,.06,1.33,.06,1.02,0,1.56-.21,1.87-.72,.29-.46,.49-4.06,.49-4.06h-4.29l.18-.38c.2-.54,.24-.53,.27-.62,0-.03-.01-.06-.05-.06l-2.15-.22s-.06,.02-.06,.05c0,0-.1,.2-.25,.48-.4,.72-1.17,2.03-1.38,2.13,0,0,.66,.66,1.01,.99,.06,.06,.15,.15,.27,.26,.64-.49,.92-.74,1.33-1.24h.73c-.21,.36-.8,1.1-1.53,1.56,.57,.38,1.12,.67,1.41,1.07,.09-.07,.16-.07,.47-.38,.17,.39,.24,.65,.29,1.08-.25-.08-.5-.16-.72-.23-1.02-.37-1.83-.7-1.93-.74h0v-.24c0-.18,0-.24,.04-.38,0-.03-.02-.06-.05-.06h-1.92s-.06,.03-.05,.06c.03,.15,.05,.2,.05,.38v.23h-.02c-.15,.07-.89,.37-1.83,.72,0-.1,0-.21,0-.37v-.54h0v-.92h2.14v-1.5s-1.18,.2-1.68,.24c-.11,0-.24,.02-.41,.03v-.82l2.09-.16-.05-.6c-.03-.46-.02-.61,.03-.98,.01-.08-.06-.14-.15-.14l-5.75,.45c-.09,0-.16,.09-.13,.16,.12,.37,.19,.49,.22,.95l.05,.6,1.81-.14v.67c-.14,0-.28-.02-.4-.03-1.07-.11-1.92-.24-1.92-.24v1.05h0v.49l1.55-.04-1.55,.9,.9,1.32,1.34-1.18v.42c0,.42,0,.55-.04,.88v.05c-.44,.09-.75,.12-.96,.16-.53,.09-2.07,.24-2.07,.24l.27,1.1,6.75-1.66c.54-.1,1.09-.09,1.62,.02l6.67,1.64,.27-1.1s-1.54-.15-2.07-.24h0Zm-.9-3.79h.51c-.04,.89-.18,1.53-.36,1.81-.08,.12-.23,.16-.54,.16-.21,0-.43-.01-.78-.06,.52-.6,.9-1.22,1.17-1.91h0Z"/>
      </g>
      <g>
        <path d="M128.3,9.84c-.15-.32-.54-1.03-.74-1.3v2.76h-.68v-2.82c-.18,.72-.52,1.59-.95,2.03-.08-.18-.23-.46-.34-.63,.33-.36,.68-1.04,.81-1.61l.48,.13v-.46h-1.16v-.58h1.16v-2.21h.68v2.21h.98v.58h-.98v.56l.4-.23c.16,.17,.73,.92,.85,1.1l-.52,.45Zm-2.16-2.73c-.07-.38-.23-.97-.4-1.42l.55-.1c.18,.44,.36,1.02,.43,1.4l-.59,.12Zm7.22,.17v.47h-4.67v-.47h1.91v-.37h-1.6v-.44h1.6v-.34h-1.8v-.34c-.23,.46-.48,1.02-.69,1.36l-.49-.14c.18-.37,.42-.99,.53-1.41l.65,.17v-.09h1.8v-.52h.75v.52h1.91v.45h-1.91v.34h1.76v.44h-1.76v.37h2.01Zm-.44,3.41c0,.27-.08,.42-.32,.5-.23,.09-.61,.09-1.13,.09-.03-.15-.13-.36-.22-.5,.35,.01,.69,.01,.79,0,.11,0,.14-.03,.14-.1v-.44h-2.45c-.08,.41-.27,.81-.6,1.12-.11-.11-.39-.33-.54-.4,.49-.48,.54-1.14,.54-1.66v-1.2h3.78v2.6Zm-.73-.87v-.41h-2.35c0,.13,0,.27-.02,.41h2.37Zm-2.35-1.25v.41h2.35v-.41h-2.35Z"/>
        <path d="M134.4,8.36h3.03v2.88h-.77v-.3h-1.52v.35h-.74v-2.93Zm.74,.6v1.39h1.52v-1.39h-1.52Zm5.12-1.24h-4.67v-2.28h4.67v2.28Zm-.79-1.69h-3.14v1.09h3.14v-1.09Zm1.96,2.34v2.9h-.78v-.31h-1.66v.35h-.74v-2.93h3.18Zm-.78,1.99v-1.39h-1.66v1.39h1.66Z"/>
        <path d="M145.34,5.41c-.23,.44-.53,.88-.84,1.3v4.58h-.8v-3.66c-.32,.33-.65,.62-1,.88-.08-.15-.31-.48-.44-.62,.93-.63,1.82-1.63,2.36-2.66l.74,.19Zm2.22,2.32c.27,1.64,.77,2.74,1.56,2.82,.21,0,.33-.36,.41-1.12,.15,.13,.49,.29,.64,.34-.19,1.21-.58,1.54-1.02,1.52-1.4-.09-2.05-1.42-2.37-3.47l-1.83,.19-.12-.59,1.87-.19c-.07-.61-.12-1.26-.15-1.97h.79c.03,.67,.07,1.3,.13,1.88l2.45-.25,.1,.58-2.48,.25Zm1.71-1.07c-.24-.31-.79-.77-1.25-1.1l.58-.29c.48,.31,1.03,.76,1.3,1.07l-.62,.33Z"/>
        <path d="M152.23,9.85c-.21,.55-.57,1.1-.94,1.45-.13-.09-.43-.25-.59-.32,.38-.31,.69-.78,.84-1.26l.69,.13Zm1.34-.23h-2.43V5.4h2.43v4.22Zm-.7-3.71h-1.05v.74h1.05v-.74Zm0,1.22h-1.05v.76h1.05v-.76Zm0,1.22h-1.05v.76h1.05v-.76Zm.28,1.36c.27,.33,.56,.76,.69,1.05l-.61,.23c-.11-.29-.41-.75-.67-1.08l.59-.2Zm5.3,.5h-.44v.48c0,.27-.08,.42-.32,.51-.25,.09-.64,.09-1.21,.09-.02-.14-.12-.36-.21-.5,.38,.01,.77,.01,.88,0,.12,0,.14-.03,.14-.11v-.48h-2.42v1.09h-.69v-1.09h-.49v-.46h.49v-1.69h1.54v-.32h-2v-.46h1.13v-.35h-.75v-.44h.75v-.33h-.96v-.46h.96v-.54h.69v.54h1.07v-.54h.69v.54h.96v.46h-.96v.33h.83v.44h-.83v.35h1.14v.46h-2.03v.32h1.61v1.69h.44v.46Zm-3.58-1.69v.39h.84v-.39h-.84Zm0,1.23h.84v-.43h-.84v.43Zm.66-3.27h1.07v-.33h-1.07v.33Zm0,.8h1.07v-.35h-1.07v.35Zm.87,1.24v.39h.89v-.39h-.89Zm.89,1.23v-.43h-.89v.43h.89Z"/>
      </g>
    </g>
  </g>
</svg>