<?xml version="1.0" encoding="UTF-8"?>
<svg id="b" data-name="圖層 2" xmlns="http://www.w3.org/2000/svg" width="475.71" height="29" viewBox="0 0 475.71 29">
  <defs>
    <style>
      .d {
        fill: #231815;
      }

      .e {
        fill: #e95529;
      }
    </style>
  </defs>
  <g id="c" data-name="bar">
    <g>
      <path class="d" d="M168.83,26.82h-4.12V2.59h13.52c.97,0,2.02,.06,3.16,.19,1.14,.12,2.21,.44,3.2,.96,1,.51,1.83,1.29,2.5,2.34,.67,1.05,1.01,2.47,1.01,4.28,0,1.53-.24,2.78-.72,3.77-.48,.98-1.15,1.76-2.01,2.34-.86,.58-1.89,.98-3.11,1.22-1.22,.23-2.56,.35-4.02,.35h-9.4v8.79Zm9.4-12.91c.97,0,1.81-.03,2.53-.09,.72-.06,1.32-.22,1.8-.47,.48-.25,.84-.61,1.08-1.08,.23-.47,.35-1.11,.35-1.92,0-.9-.14-1.61-.42-2.1-.28-.5-.68-.87-1.19-1.1s-1.12-.37-1.82-.4c-.7-.03-1.47-.05-2.32-.05h-9.4v7.2h9.4Z"/>
      <path class="d" d="M219.32,26.82h-4.86l-3.09-5.66h-14.78l-2.99,5.66h-4.68l13.1-24.23h4.12l13.19,24.23Zm-15.3-19.6l-5.29,9.82h10.57l-5.29-9.82Z"/>
      <path class="d" d="M250.92,26.82h-5.15l-6.97-9.92h-8.51v9.92h-4.12V2.59h14.97c1.22,0,2.38,.12,3.48,.35,1.11,.23,2.09,.62,2.95,1.15,.86,.53,1.54,1.24,2.03,2.13,.5,.89,.75,2,.75,3.34s-.2,2.46-.61,3.34c-.41,.89-.93,1.6-1.57,2.13-.64,.53-1.34,.93-2.11,1.19-.76,.27-1.5,.46-2.22,.58l7.06,10.01Zm-9.36-14.03c1.37,0,2.49-.23,3.37-.68,.87-.45,1.31-1.27,1.31-2.46,0-.69-.11-1.22-.33-1.61-.22-.39-.54-.69-.96-.89-.42-.2-.94-.33-1.54-.37-.61-.05-1.3-.07-2.08-.07h-11.04v6.08h11.27Z"/>
      <path class="d" d="M264.15,26.82h-4.12V2.59h4.12V26.82Z"/>
      <path class="d" d="M296.02,8.76c-.5-.28-1.05-.58-1.66-.91-.61-.33-1.31-.63-2.11-.91-.8-.28-1.7-.51-2.71-.7-1.01-.19-2.19-.28-3.53-.28-2.25,0-3.94,.28-5.08,.84-1.14,.56-1.71,1.36-1.71,2.39,0,.59,.08,1.08,.23,1.47,.16,.39,.51,.7,1.05,.94,.55,.23,1.33,.41,2.36,.51,1.03,.11,2.42,.16,4.16,.16,2.74,0,4.92,.2,6.53,.58,1.61,.39,2.83,.91,3.67,1.57,.84,.65,1.39,1.41,1.64,2.27,.25,.86,.37,1.75,.37,2.69,0,1.75-.37,3.16-1.1,4.23-.73,1.08-1.68,1.9-2.83,2.48-1.15,.58-2.44,.97-3.86,1.17-1.42,.2-2.8,.3-4.14,.3-2.06,0-3.88-.16-5.47-.49-1.59-.33-2.97-.71-4.14-1.15-1.17-.44-2.13-.89-2.88-1.36s-1.33-.84-1.73-1.12l1.96-3.6c.69,.44,1.4,.87,2.15,1.29s1.59,.8,2.53,1.15c.94,.34,2.02,.62,3.25,.84,1.23,.22,2.71,.33,4.42,.33,1.09,0,2.09-.06,2.99-.19,.9-.12,1.68-.33,2.34-.61,.65-.28,1.16-.66,1.52-1.12,.36-.47,.54-1.04,.54-1.73,0-.78-.13-1.38-.4-1.8-.27-.42-.78-.74-1.54-.96-.76-.22-1.84-.37-3.23-.44-1.39-.08-3.22-.15-5.5-.21-1.37-.03-2.64-.16-3.79-.4-1.15-.23-2.14-.61-2.97-1.12-.83-.51-1.47-1.19-1.92-2.03-.45-.84-.68-1.9-.68-3.18,0-1.03,.2-2.01,.61-2.95,.4-.94,1.05-1.76,1.94-2.48,.89-.72,2.04-1.29,3.46-1.73,1.42-.44,3.14-.65,5.17-.65,1.47,0,2.84,.13,4.12,.4,1.28,.27,2.43,.57,3.46,.91,1.03,.34,1.92,.69,2.67,1.05,.75,.36,1.33,.65,1.73,.87l-1.92,3.7Z"/>
      <polygon class="d" points="131.56 22.7 146.64 8.04 146.62 2.59 126.69 2.59 126.69 6.7 142.41 6.7 126.73 22.1 126.69 26.82 146.64 26.82 148.86 22.7 131.56 22.7"/>
      <polygon class="e" points="157.04 26.82 152.93 26.82 155.11 22.7 159.22 22.7 157.04 26.82"/>
    </g>
    <g>
      <path class="d" d="M13.52,1.69v.91h7.4v-.91c0-.7,.04-.93,.14-1.47,.02-.12-.07-.22-.18-.22h-7.36c-.12,0-.21,.11-.18,.23,.11,.57,.19,.77,.19,1.47Z"/>
      <path class="d" d="M33.99,19.98h-7.36c-.12,0-.21,.15-.18,.31,.11,.77,.19,1.04,.19,2v.08c-.21,.03-1.99,.29-2.64,.33-.36,.03-.93,.1-1.84,.1-.58,0-1.33-.04-1.9-.1-.97-.1-1.8-.21-2.27-.28v-2.83l11.89-1.89h0c.08,0,.17,0,.28,0,.08,0,.15-.06,.15-.13l-.39-4.09c0-.07-.09-.1-.17-.08-.11,.04-.2,.06-.28,.09h0c-.47,.18-3.69,1.32-7.73,2.53-1.11,.33-2.46,.68-3.76,.95v-3.87h8.65v-4.6s-2.44,.37-5.55,.7c-1.18,.12-2.75,.22-3.97,.22-1.9,0-3.09-.16-3.84-.22-1.43-.1-5.55-.7-5.55-.7v4.6h4.46v4.62c-.64,.03-1.17,.04-1.59,.07-1.94,.13-7.35,0-7.98-.02h0c-.08,0-.17,0-.28,0-.08,0-.15,.06-.15,.13l.38,4.09c0,.07,.09,.1,.17,.08,.1-.03,.18-.06,.26-.08l9.19-1.46v4.31c0,1.54,1.25,2.79,2.79,2.79h3s11.53,0,11.53,0c2.35,0,4.28-1.8,4.49-4.09h.02v-.23c0-.07,0-.13,0-.2h0v-.81c0-.95,.04-1.26,.14-2,.02-.16-.07-.31-.18-.31Z"/>
      <path class="d" d="M33.95,2.48c-.55,.11-.78,.15-1.49,.15h-.92s-31.28,0-31.28,0H.27s-.03,0-.04,0c-.12-.02-.23,.07-.23,.19v7.45c0,.12,.11,.21,.23,.19,.57-.12,.78-.19,1.49-.19h.92s3.54,0,3.54,0v-2.54c1.59-.24,3.12-.45,4.03-.53,1.34-.11,3.47-.46,6.87-.46,2.18,0,4.99,.2,7.11,.46,1.44,.18,2.81,.37,4.03,.55v2.48h4.96c.24,.03,.45,.09,.77,.15,.12,.02,.23-.07,.23-.19V2.66c0-.12-.11-.21-.23-.19Z"/>
      <path class="d" d="M69.68,1.24h-31.02c-.11,0-.19,.11-.17,.23,.11,.57,.17,.76,.17,1.46v.78h-.03V22.49c0,2.86,2.09,5.18,4.71,5.18h21.52c2.63,0,4.76-2.31,4.76-5.17h0v-.12s0-.1,0-.1v-1.52c0-1.17,.03-1.55,.13-2.46,.02-.19-.06-.38-.17-.38h-6.75c-.11,0-.19,.19-.17,.38,.11,.95,.17,1.28,.17,2.46v1.29c-1.46,.2-3.15,.41-4.02,.47-.89,.06-2.3,.25-4.56,.26-1.45,0-3.31-.11-4.72-.26-1.75-.18-3.33-.38-4.5-.54v-7.03h24.67V3.83h0v-.9c0-.7,.03-.93,.13-1.47,.02-.12-.06-.22-.17-.22Zm-12.82,9.13c-.05,0-.1-.01-.15-.02-.06-.46-.12-.95-.14-1.22-.02-.32-.09-.83-.09-1.65,0-.52,.04-1.2,.09-1.71,0-.04,0-.08,.01-.12h6.3s0,.08,.01,.12c.05,.51,.09,1.18,.09,1.71,0,.82-.07,1.33-.09,1.65-.02,.27-.08,.75-.14,1.22-.05,0-.11,.01-.17,.02h-5.73Zm-11.38,0c-.05,0-.1-.01-.15-.02-.06-.46-.12-.95-.14-1.22-.02-.32-.09-.83-.09-1.65,0-.52,.04-1.2,.09-1.71,0-.04,0-.08,.01-.12h6.3s0,.08,.01,.12c.05,.51,.09,1.18,.09,1.71,0,.82-.07,1.33-.09,1.65-.02,.27-.08,.75-.14,1.22-.05,0-.11,.01-.17,.02h-5.73Z"/>
      <path class="d" d="M107.6,22.3c-2.62,.93-9.16,.97-9.16,.97l3.58-4.94-7.84-1.9,.34,9.57s10.94,2.59,13.52,1.97c-.41-2.03-.51-3.62-.44-5.67Z"/>
      <path class="d" d="M82.33,23.27s-6.54-.04-9.16-.97c.06,2.05-.04,3.64-.44,5.67,2.58,.62,13.51-2,13.52-1.97l.34-9.57-7.84,1.9,3.58,4.94Z"/>
      <rect class="d" x="88.03" y="15.29" width="4.7" height="12.32"/>
      <path class="d" d="M104.03,15.16c-.64-.11-1.69-.22-3.3-.61-.47-.11-1-.26-1.53-.42,1.5,.1,2.2,.13,3.12,.13,2.39,0,3.66-.49,4.4-1.68,.67-1.09,1.14-9.53,1.14-9.53h-10.07l.42-.89c.48-1.27,.57-1.24,.64-1.45,.02-.07-.03-.14-.11-.15L93.69,.03c-.08-.01-.15,.05-.14,.12,0,.02-.23,.47-.59,1.12-.95,1.7-2.75,4.76-3.23,5,0,0,1.55,1.54,2.36,2.33,.14,.13,.35,.35,.63,.6,1.51-1.16,2.15-1.73,3.13-2.92h1.72c-.49,.84-1.87,2.58-3.59,3.66,1.34,.89,2.62,1.57,3.32,2.52,.22-.16,.38-.17,1.11-.9,.39,.91,.56,1.53,.67,2.54-.59-.18-1.18-.37-1.68-.55-2.4-.86-4.29-1.64-4.53-1.74h0s-.02-.01-.02-.01v-.55c0-.43,.02-.57,.09-.9,.01-.07-.04-.14-.11-.14h-4.51c-.07,0-.13,.07-.11,.14,.07,.35,.12,.47,.12,.9v.55h-.05v.03c-.35,.14-2.09,.85-4.29,1.65-.01-.23-.02-.5-.02-.86v-1.27h0v-2.15l5.03-.02v-3.51s-2.78,.48-3.94,.57c-.25,.02-.57,.05-.96,.08v-1.92l4.91-.38-.11-1.4c-.08-1.08-.04-1.44,.08-2.29,.03-.18-.15-.34-.36-.32l-13.5,1.05c-.22,.02-.37,.2-.31,.38,.28,.86,.44,1.16,.52,2.24l.11,1.4,4.24-.33v1.57c-.33-.02-.65-.05-.94-.08-2.52-.26-4.5-.57-4.5-.57v2.46h.01v1.15l3.63-.1-3.64,2.12,2.11,3.09,3.14-2.76v.98c0,.98-.02,1.3-.09,2.06,0,.04,0,.08,0,.12-1.03,.21-1.75,.29-2.25,.38-1.24,.21-4.85,.56-4.85,.56l.63,2.59,15.85-3.89c1.26-.24,2.55-.22,3.8,.05l15.65,3.84,.63-2.59s-3.62-.35-4.85-.56Zm-2.12-8.89h1.19c-.1,2.08-.42,3.6-.84,4.25-.18,.27-.53,.38-1.27,.38-.49,0-1.02-.03-1.83-.13,1.23-1.41,2.11-2.87,2.75-4.49Z"/>
    </g>
    <g>
      <path class="d" d="M375.7,14.72v1.95h-13.06v-1.95h5.1v-1.01h-4.18v-1.82h4.18v-.92h-4.76v-.87c-.6,1.52-1.24,3.15-1.72,4.23l-1.52-.57v1.22h2.46v2.53h-2.46v1.61l.97-.67c.46,.53,2.02,2.78,2.39,3.33l-1.72,1.98c-.35-.9-1.06-2.41-1.63-3.5v8.55h-2.39v-7.61c-.51,1.95-1.24,3.89-2.21,5.01-.23-.81-.74-2.02-1.13-2.81,.92-1.17,1.79-3.29,2.12-5.04l1.22,.44v-1.31h-2.94v-2.53h2.94V7.36h2.39v5.89c.46-1.29,.94-3.08,1.2-4.37l2.05,.64v-.51h4.76v-1.68h2.64v1.68h5.01v1.95h-5.01v.92h4.55v1.82h-4.55v1.01h5.31Zm-20.35-.51c-.14-1.33-.57-3.38-.99-4.92l1.89-.46c.44,1.54,.92,3.56,1.1,4.88l-2,.51Zm19.25,12.12c0,1.15-.21,1.75-1.01,2.09-.76,.34-1.84,.39-3.29,.37-.09-.64-.41-1.56-.71-2.16,.85,.02,1.82,.02,2.09,.02,.3,0,.39-.09,.39-.34v-.97h-6.23c-.28,1.33-.8,2.64-1.68,3.66-.39-.48-1.4-1.43-1.91-1.72,1.33-1.61,1.47-3.77,1.47-5.56v-4.09h10.88v8.72Zm-2.53-2.76v-1.1h-5.89c-.02,.37-.05,.74-.07,1.1h5.96Zm-5.89-3.96v1.08h5.89v-1.08h-5.89Z"/>
      <path class="d" d="M388.5,18.47h8.76v10.23h-2.74v-1.04h-3.43v1.15h-2.6v-10.35Zm2.6,2.62v3.96h3.43v-3.96h-3.43Zm14.05-4.53h-13.47V8.24h13.47v8.32Zm-2.78-5.7h-8.05v3.1h8.05v-3.1Zm5.89,7.61v10.26h-2.76v-1.06h-3.66v1.15h-2.62v-10.35h9.04Zm-2.76,6.58v-3.96h-3.66v3.96h3.66Z"/>
      <path class="d" d="M429.37,8.37c-.6,1.4-1.31,2.83-2.14,4.23V28.77h-2.85v-12.07c-.78,.97-1.56,1.84-2.39,2.58-.25-.64-1.04-2.12-1.52-2.78,2.48-2.12,4.9-5.5,6.28-8.97l2.62,.85Zm6.3,8.32c.64,5.1,1.86,8.51,3.7,8.74,.53,.05,.8-1.1,.99-3.66,.51,.6,1.72,1.29,2.23,1.56-.58,4.44-1.82,5.5-3.1,5.43-3.89-.37-5.7-4.69-6.53-11.7l-4.53,.62-.39-2.64,4.65-.62c-.16-2.07-.3-4.32-.37-6.74h2.78c.05,2.25,.14,4.42,.3,6.37l6.55-.85,.39,2.58-6.67,.92Zm4.12-4.07c-.58-1.08-1.96-2.69-3.15-3.86l2.05-1.26c1.22,1.1,2.64,2.62,3.31,3.7l-2.21,1.43Z"/>
      <path class="d" d="M458.83,23.71c-.6,1.93-1.66,3.91-2.74,5.15-.46-.39-1.45-1.03-2.02-1.33,1.03-1.08,1.91-2.74,2.37-4.35l2.39,.53Zm3.5-.69h-6.99V8.19h6.99v14.83Zm-2.39-12.67h-2.28v2.12h2.28v-2.12Zm0,4.16h-2.28v2.14h2.28v-2.14Zm0,4.16h-2.28v2.16h2.28v-2.16Zm1.22,4.46c.76,1.15,1.61,2.69,1.98,3.7l-2.12,1.03c-.32-1.06-1.15-2.69-1.89-3.89l2.02-.85Zm14.56,1.98h-1.06v1.22c0,1.15-.23,1.72-.99,2.09-.76,.37-1.84,.39-3.33,.39-.09-.64-.41-1.59-.71-2.18,.9,.02,1.89,.02,2.16,.02,.3,0,.39-.09,.39-.34v-1.2h-5.91v3.73h-2.39v-3.73h-1.24v-1.91h1.24v-5.79h4.14v-.87h-5.27v-1.93h2.87v-.9h-1.95v-1.82h1.95v-.85h-2.48v-1.93h2.48v-1.75h2.39v1.75h2.35v-1.75h2.44v1.75h2.48v1.93h-2.48v.85h2.14v1.82h-2.14v.9h2.9v1.93h-5.31v.87h4.28v5.79h1.06v1.91Zm-9.45-5.79v1.06h1.75v-1.06h-1.75Zm0,3.89h1.75v-1.15h-1.75v1.15Zm1.75-11.31h2.35v-.85h-2.35v.85Zm0,2.71h2.35v-.9h-2.35v.9Zm2.37,4.71v1.06h1.79v-1.06h-1.79Zm1.79,3.89v-1.15h-1.79v1.15h1.79Z"/>
    </g>
  </g>
</svg>