<?xml version="1.0" encoding="UTF-8"?>
<svg id="b" data-name="圖層 2" xmlns="http://www.w3.org/2000/svg" width="383.12" height="28.07" viewBox="0 0 383.12 28.07">
  <defs>
    <style>
      .d {
        fill: #231815;
      }

      .e {
        fill: #e95529;
      }
    </style>
  </defs>
  <g id="c" data-name="b">
    <g>
      <g>
        <path class="d" d="M162.15,26.82h-4.12V2.59h13.52c.97,0,2.02,.06,3.16,.19,1.14,.12,2.21,.44,3.2,.96,1,.51,1.83,1.29,2.5,2.34s1.01,2.47,1.01,4.28c0,1.53-.24,2.78-.72,3.77-.48,.98-1.15,1.76-2.01,2.34-.86,.58-1.89,.98-3.11,1.22-1.22,.23-2.56,.35-4.02,.35h-9.4v8.79h-.01Zm9.4-12.92c.97,0,1.81-.03,2.53-.09,.72-.06,1.32-.22,1.8-.47s.84-.61,1.08-1.08c.23-.47,.35-1.11,.35-1.92,0-.9-.14-1.61-.42-2.1-.28-.5-.68-.87-1.19-1.1s-1.12-.37-1.82-.4-1.47-.05-2.32-.05h-9.4v7.2h9.39Z"/>
        <path class="d" d="M212.64,26.82h-4.86l-3.09-5.66h-14.78l-2.99,5.66h-4.68l13.1-24.23h4.12l13.19,24.23h-.01Zm-15.3-19.6l-5.29,9.82h10.57l-5.29-9.82h.01Z"/>
        <path class="d" d="M244.24,26.82h-5.15l-6.97-9.92h-8.51v9.92h-4.12V2.59h14.97c1.22,0,2.38,.12,3.48,.35,1.11,.23,2.09,.62,2.95,1.15,.86,.53,1.54,1.24,2.03,2.13,.5,.89,.75,2,.75,3.34s-.2,2.46-.61,3.34c-.41,.89-.93,1.6-1.57,2.13s-1.34,.93-2.11,1.19c-.76,.27-1.5,.46-2.22,.58l7.06,10.01h.02Zm-9.36-14.02c1.37,0,2.49-.23,3.37-.68,.87-.45,1.31-1.27,1.31-2.46,0-.69-.11-1.22-.33-1.61-.22-.39-.54-.69-.96-.89s-.94-.33-1.54-.37c-.61-.05-1.3-.07-2.08-.07h-11.04v6.08h11.27Z"/>
        <path class="d" d="M257.47,26.82h-4.12V2.59h4.12V26.82Z"/>
        <path class="d" d="M289.34,8.76c-.5-.28-1.05-.58-1.66-.91s-1.31-.63-2.11-.91c-.8-.28-1.7-.51-2.71-.7-1.01-.19-2.19-.28-3.53-.28-2.25,0-3.94,.28-5.08,.84s-1.71,1.36-1.71,2.39c0,.59,.08,1.08,.23,1.47,.16,.39,.51,.7,1.05,.94,.55,.23,1.33,.41,2.36,.51,1.03,.11,2.42,.16,4.16,.16,2.74,0,4.92,.2,6.53,.58,1.61,.39,2.83,.91,3.67,1.57,.84,.65,1.39,1.41,1.64,2.27s.37,1.75,.37,2.69c0,1.75-.37,3.16-1.1,4.23-.73,1.08-1.68,1.9-2.83,2.48-1.15,.58-2.44,.97-3.86,1.17s-2.8,.3-4.14,.3c-2.06,0-3.88-.16-5.47-.49s-2.97-.71-4.14-1.15-2.13-.89-2.88-1.36-1.33-.84-1.73-1.12l1.96-3.6c.69,.44,1.4,.87,2.15,1.29s1.59,.8,2.53,1.15c.94,.34,2.02,.62,3.25,.84s2.71,.33,4.42,.33c1.09,0,2.09-.06,2.99-.19,.9-.12,1.68-.33,2.34-.61,.65-.28,1.16-.66,1.52-1.12,.36-.47,.54-1.04,.54-1.73,0-.78-.13-1.38-.4-1.8-.27-.42-.78-.74-1.54-.96s-1.84-.37-3.23-.44c-1.39-.08-3.22-.15-5.5-.21-1.37-.03-2.64-.16-3.79-.4-1.15-.23-2.14-.61-2.97-1.12s-1.47-1.19-1.92-2.03-.68-1.9-.68-3.18c0-1.03,.2-2.01,.61-2.95,.4-.94,1.05-1.76,1.94-2.48,.89-.72,2.04-1.29,3.46-1.73,1.42-.44,3.14-.65,5.17-.65,1.47,0,2.84,.13,4.12,.4s2.43,.57,3.46,.91c1.03,.34,1.92,.69,2.67,1.05,.75,.36,1.33,.65,1.73,.87l-1.92,3.7,.03-.02Z"/>
        <polygon class="d" points="124.87 22.7 139.96 8.04 139.94 2.59 120.01 2.59 120.01 6.7 135.73 6.7 120.05 22.1 120.01 26.82 139.96 26.82 142.18 22.7 124.87 22.7"/>
        <polygon class="e" points="150.36 26.82 146.25 26.82 148.42 22.7 152.54 22.7 150.36 26.82"/>
      </g>
      <g>
        <path class="d" d="M13.53,1.69v.91h7.4v-.91c0-.7,.04-.93,.14-1.47,.02-.12-.07-.22-.18-.22h-7.36c-.12,0-.21,.11-.18,.23,.11,.57,.19,.77,.19,1.47h-.01Z"/>
        <path class="d" d="M34,19.98h-7.36c-.12,0-.21,.15-.18,.31,.11,.77,.19,1.04,.19,2v.08c-.21,.03-1.99,.29-2.64,.33-.36,.03-.93,.1-1.84,.1-.58,0-1.33-.04-1.9-.1-.97-.1-1.8-.21-2.27-.28v-2.83l11.89-1.89h.28c.08,0,.15-.06,.15-.13l-.39-4.09c0-.07-.09-.1-.17-.08-.11,.04-.2,.06-.28,.09h0c-.47,.18-3.69,1.32-7.73,2.53-1.11,.33-2.46,.68-3.76,.95v-3.87h8.65v-4.6s-2.44,.37-5.55,.7c-1.18,.12-2.75,.22-3.97,.22-1.9,0-3.09-.16-3.84-.22-1.43-.1-5.55-.7-5.55-.7v4.6h4.46v4.62c-.64,.03-1.17,.04-1.59,.07-1.94,.13-7.35,0-7.98-.02h-.28c-.08,0-.15,.06-.15,.13l.38,4.09c0,.07,.09,.1,.17,.08,.1-.03,.18-.06,.26-.08l9.19-1.46v4.31c0,1.54,1.25,2.79,2.79,2.79h14.53c2.35,0,4.28-1.8,4.49-4.09h.02v-.43h0v-.81c0-.95,.04-1.26,.14-2,.02-.16-.07-.31-.18-.31h.02Z"/>
        <path class="d" d="M33.96,2.48c-.55,.11-.78,.15-1.49,.15H.23c-.12-.02-.23,.07-.23,.19v7.45c0,.12,.11,.21,.23,.19,.57-.12,.78-.19,1.49-.19H6.18v-2.54c1.59-.24,3.12-.45,4.03-.53,1.34-.11,3.47-.46,6.87-.46,2.18,0,4.99,.2,7.11,.46,1.44,.18,2.81,.37,4.03,.55v2.48h4.96c.24,.03,.45,.09,.77,.15,.12,.02,.23-.07,.23-.19V2.66c0-.12-.11-.21-.23-.19h0Z"/>
        <path class="d" d="M69.69,1.24h-31.02c-.11,0-.19,.11-.17,.23,.11,.57,.17,.76,.17,1.46v.78h-.03V22.49c0,2.86,2.09,5.18,4.71,5.18h21.52c2.63,0,4.76-2.31,4.76-5.17h0v-1.73c0-1.17,.03-1.55,.13-2.46,.02-.19-.06-.38-.17-.38h-6.75c-.11,0-.19,.19-.17,.38,.11,.95,.17,1.28,.17,2.46v1.29c-1.46,.2-3.15,.41-4.02,.47-.89,.06-2.3,.25-4.56,.26-1.45,0-3.31-.11-4.72-.26-1.75-.18-3.33-.38-4.5-.54v-7.03h24.67V3.83h0v-.9c0-.7,.03-.93,.13-1.47,.02-.12-.06-.22-.17-.22h.02Zm-12.82,9.13l-.15-.02c-.06-.46-.12-.95-.14-1.22-.02-.32-.09-.83-.09-1.65,0-.52,.04-1.2,.09-1.71v-.12h6.32v.12c.07,.51,.11,1.18,.11,1.71,0,.82-.07,1.33-.09,1.65-.02,.27-.08,.75-.14,1.22l-.17,.02h-5.74Zm-11.38,0l-.15-.02c-.06-.46-.12-.95-.14-1.22-.02-.32-.09-.83-.09-1.65,0-.52,.04-1.2,.09-1.71v-.12h6.32v.12c.07,.51,.11,1.18,.11,1.71,0,.82-.07,1.33-.09,1.65-.02,.27-.08,.75-.14,1.22l-.17,.02h-5.74Z"/>
        <path class="d" d="M107.61,22.3c-2.62,.93-9.16,.97-9.16,.97l3.58-4.94-7.84-1.9,.34,9.57s10.94,2.59,13.52,1.97c-.41-2.03-.51-3.62-.44-5.67h0Z"/>
        <path class="d" d="M82.34,23.27s-6.54-.04-9.16-.97c.06,2.05-.04,3.64-.44,5.67,2.58,.62,13.51-2,13.52-1.97l.34-9.57-7.84,1.9,3.58,4.94h0Z"/>
        <rect class="d" x="88.04" y="15.29" width="4.7" height="12.32"/>
        <path class="d" d="M104.04,15.16c-.64-.11-1.69-.22-3.3-.61-.47-.11-1-.26-1.53-.42,1.5,.1,2.2,.13,3.12,.13,2.39,0,3.66-.49,4.4-1.68,.67-1.09,1.14-9.53,1.14-9.53h-10.07l.42-.89c.48-1.27,.57-1.24,.64-1.45,.02-.07-.03-.14-.11-.15L93.7,.04c-.08,0-.15,.05-.14,.12,0,.02-.23,.47-.59,1.12-.95,1.7-2.75,4.76-3.23,5,0,0,1.55,1.54,2.36,2.33,.14,.13,.35,.35,.63,.6,1.51-1.16,2.15-1.73,3.13-2.92h1.72c-.49,.84-1.87,2.58-3.59,3.66,1.34,.89,2.62,1.57,3.32,2.52,.22-.16,.38-.17,1.11-.9,.39,.91,.56,1.53,.67,2.54-.59-.18-1.18-.37-1.68-.55-2.4-.86-4.29-1.64-4.53-1.74h-.02v-.57c0-.43,.02-.57,.09-.9,.01-.07-.04-.14-.11-.14h-4.51c-.07,0-.13,.07-.11,.14,.07,.35,.12,.47,.12,.9v.55h-.05v.03c-.35,.14-2.09,.85-4.29,1.65-.01-.23-.02-.5-.02-.86v-1.27h0v-2.15l5.03-.02v-3.51s-2.78,.48-3.94,.57c-.25,.02-.57,.05-.96,.08v-1.92l4.91-.38-.11-1.4c-.08-1.08-.04-1.44,.08-2.29,.03-.18-.15-.34-.36-.32l-13.5,1.05c-.22,.02-.37,.2-.31,.38,.28,.86,.44,1.16,.52,2.24l.11,1.4,4.24-.33v1.57c-.33-.02-.65-.05-.94-.08-2.52-.26-4.5-.57-4.5-.57v2.46h.01v1.15l3.63-.1-3.64,2.12,2.11,3.09,3.14-2.76v.98c0,.98-.02,1.3-.09,2.06v.12c-1.03,.21-1.75,.29-2.25,.38-1.24,.21-4.85,.56-4.85,.56l.63,2.59,15.85-3.89c1.26-.24,2.55-.22,3.8,.05l15.65,3.84,.63-2.59s-3.62-.35-4.85-.56h.02Zm-2.12-8.9h1.19c-.1,2.08-.42,3.6-.84,4.25-.18,.27-.53,.38-1.27,.38-.49,0-1.02-.03-1.83-.13,1.23-1.41,2.11-2.87,2.75-4.49h0Z"/>
      </g>
      <g>
        <path d="M307.65,23.35c-.38-.8-1.36-2.58-1.84-3.27v6.9h-1.7v-7.05c-.46,1.79-1.3,3.97-2.39,5.09-.19-.45-.57-1.16-.86-1.58,.84-.9,1.7-2.61,2.03-4.02l1.21,.33v-1.14h-2.91v-1.46h2.91v-5.55h1.7v5.55h2.45v1.46h-2.45v1.41l1-.57c.4,.42,1.82,2.3,2.14,2.75l-1.3,1.14Zm-5.4-6.83c-.17-.96-.59-2.43-1-3.55l1.38-.25c.46,1.11,.9,2.56,1.09,3.5l-1.47,.3Zm18.07,.44v1.17h-11.68v-1.17h4.77v-.94h-4v-1.11h4v-.85h-4.5v-.85c-.59,1.16-1.19,2.55-1.72,3.4l-1.24-.35c.46-.94,1.05-2.48,1.32-3.54l1.63,.44v-.23h4.5v-1.29h1.88v1.29h4.79v1.14h-4.79v.85h4.4v1.11h-4.4v.94h5.02Zm-1.11,8.53c0,.69-.19,1.06-.79,1.26-.59,.22-1.53,.23-2.83,.22-.08-.37-.31-.9-.54-1.26,.88,.03,1.74,.03,1.99,.02,.27,0,.36-.07,.36-.25v-1.11h-6.13c-.21,1.02-.67,2.03-1.51,2.8-.27-.29-.98-.84-1.36-1,1.24-1.21,1.36-2.85,1.36-4.16v-3.02h9.46v6.5Zm-1.82-2.18v-1.04h-5.88c0,.32-.02,.69-.06,1.04h5.95Zm-5.88-3.13v1.02h5.88v-1.02h-5.88Z"/>
        <path d="M322.92,19.65h7.58v7.22h-1.93v-.75h-3.81v.87h-1.84v-7.34Zm1.84,1.49v3.48h3.81v-3.48h-3.81Zm12.81-3.12h-11.7v-5.71h11.7v5.71Zm-1.99-4.22h-7.85v2.73h7.85v-2.73Zm4.92,5.85v7.25h-1.95v-.79h-4.15v.87h-1.86v-7.34h7.96Zm-1.95,4.98v-3.48h-4.15v3.48h4.15Z"/>
        <path d="M350.31,12.25c-.59,1.11-1.32,2.21-2.11,3.25v11.46h-2.01v-9.16c-.8,.82-1.63,1.56-2.51,2.19-.19-.39-.77-1.21-1.11-1.56,2.32-1.57,4.56-4.09,5.9-6.67l1.84,.49Zm5.57,5.8c.67,4.1,1.93,6.87,3.92,7.05,.52,.02,.84-.91,1.03-2.8,.38,.32,1.23,.74,1.61,.85-.48,3.03-1.44,3.85-2.55,3.8-3.5-.23-5.13-3.55-5.92-8.7l-4.58,.47-.29-1.47,4.69-.47c-.17-1.52-.29-3.17-.38-4.93h1.97c.06,1.68,.17,3.27,.34,4.71l6.13-.62,.25,1.46-6.2,.64Zm4.29-2.68c-.61-.77-1.97-1.93-3.14-2.76l1.44-.74c1.19,.79,2.58,1.91,3.25,2.68l-1.55,.82Z"/>
        <path d="M367.57,23.37c-.52,1.37-1.42,2.75-2.37,3.63-.33-.23-1.07-.62-1.47-.8,.94-.79,1.72-1.96,2.11-3.17l1.72,.34Zm3.35-.59h-6.09V12.23h6.09v10.56Zm-1.76-9.28h-2.64v1.86h2.64v-1.86Zm0,3.05h-2.64v1.89h2.64v-1.89Zm0,3.07h-2.64v1.91h2.64v-1.91Zm.69,3.4c.67,.82,1.4,1.91,1.74,2.63l-1.53,.59c-.27-.72-1.03-1.88-1.67-2.71l1.47-.5Zm13.27,1.26h-1.11v1.21c0,.69-.19,1.06-.8,1.27-.63,.22-1.59,.22-3.04,.22-.06-.35-.29-.9-.52-1.26,.96,.03,1.93,.03,2.2,.02,.29,0,.36-.07,.36-.27v-1.19h-6.05v2.73h-1.74v-2.73h-1.24v-1.14h1.24v-4.24h3.85v-.8h-5v-1.16h2.83v-.89h-1.88v-1.11h1.88v-.82h-2.41v-1.16h2.41v-1.36h1.72v1.36h2.68v-1.36h1.74v1.36h2.41v1.16h-2.41v.82h2.07v1.11h-2.07v.89h2.85v1.16h-5.09v.8h4.02v4.24h1.11v1.14Zm-8.96-4.22v.99h2.11v-.99h-2.11Zm0,3.08h2.11v-1.07h-2.11v1.07Zm1.65-8.19h2.68v-.82h-2.68v.82Zm0,1.99h2.68v-.89h-2.68v.89Zm2.18,3.12v.99h2.22v-.99h-2.22Zm2.22,3.08v-1.07h-2.22v1.07h2.22Z"/>
      </g>
    </g>
  </g>
</svg>