<?xml version="1.0" encoding="UTF-8"?>
<svg id="b" data-name="圖層 2" xmlns="http://www.w3.org/2000/svg" width="238.93" height="35.14" viewBox="0 0 238.93 35.14">
  <defs>
    <style>
      .d {
        fill: #fbe4e7;
      }
    </style>
  </defs>
  <g id="c" data-name="bar">
    <g>
      <path class="d" d="M27.47,10.01V5.31c0-.37-.3-.66-.66-.66H15.21l.05-.06c.56-.8,.95-1.55,1.15-2.22l.03-.09-.07-.06c-.57-.47-2.07-1.19-4.56-2.21h-.45l.06,.17c.52,1.54,1.25,3.02,2.17,4.41l.05,.07H1.02v5.35h3.66v-3.7H23.81v3.7h3.66Z"/>
      <path class="d" d="M15.07,18.9v-5.75h.04c3.7-.36,7.02-.82,9.89-1.36l.12-.02v-.33l-.07-.04c-1.93-1.21-3.37-1.97-4.39-2.34l-.06-.02-.06,.02c-4.88,1.9-11.06,3.1-18.38,3.55h-.15v1.24h.16c2.86,0,5.95-.09,9.18-.26h.05v5.61h-.04l-11.37,.82,.2,1.65,11.21-.96v11.78h1.47c4.83,.04,9.42,.36,13.65,.95l.18,.02,.04-6.33h-2.38v3.27h-.05c-2.15-.05-5.48-.08-9.2,.02h-.05v-10.01l12.58-.96-.2-1.65-12.38,1.09Z"/>
      <path class="d" d="M99.69,2.54l-.05-.04c-1.37-1.12-2.37-1.8-3.06-2.08l-.07-.03-.07,.04c-2.43,1.36-5.91,2.36-10.33,3l-.13,.02v.54h5.03v2.18h-5.36v1.65h4.65l-.02,.06c-.8,2.79-2.45,5.37-4.92,7.65l-.26,.24h1.6l.04-.04c1.79-1.46,3.19-2.72,4.19-3.75l.08-.08v4.69h3.33v-6.55l.08,.1c.83,1.04,1.84,2.09,3.01,3.12l.18,.16,.08-.21c.33-.91,.56-1.75,.68-2.49v-.09l-.07-.05c-1.3-.79-2.62-1.52-3.93-2.15h-.03v-.61h4.69v-1.65h-4.69V3.7h.04c1.22-.11,2.97-.38,5.2-.81l.12-.02v-.31Z"/>
      <path class="d" d="M114.64,20.28c-6.77-.89-11.49-2.64-14.05-5.2l-.02-.02,.4-.66h.47l.04-.04s5.16-6.33,5.87-8.7v-.03h1.75v.04c0,.69,.02,3.42,.02,3.52,0,1.51-.35,2.8-1.03,3.83-1.55,2.35-2.98,2.93-3.49,3.07,.19,.05,.34,.09,.46,.12,.4,.11,.65,.17,1.19,.17,1.23,0,2.46-.54,3.66-1.61,1.86-1.66,2.88-3.88,2.88-6.25l-.02-4.28h-7.94l.04-.07c.7-1.2,1.21-2.41,1.52-3.6l.05-.17h-4.37v.14c-.12,3.42-1.34,6.34-3.65,8.68l-.23,.24h1.59l.05-.05c.42-.44,1.02-1.01,1.83-1.77,1.08-.88,1.78-1.54,2.14-2v-.02h.59v.05c-.48,2.87-1.79,5.56-3.9,8.01v.02h-3.4l-.03,.1c-1.32,3.96-5.35,7.53-11.98,10.61l-.58,.27h2.73c1.59-.62,3.21-1.41,4.81-2.35l.04-.02,.02,.04c.03,.06,.06,.12,.1,.18,.68,1.57,1.3,2.82,1.85,3.72l.04,.07h.33l.05-.05c1.38-1.51,1.54-2.03,1.54-2.28v-.05l-.04-.04c-.46-.47-1.26-.98-2.37-1.53-.28-.17-.53-.31-.72-.42l-.07-.04,.06-.04c2.61-1.66,5.06-3.75,7.27-6.21l.04-.05,.03,.05c1.52,2.65,3.62,4.63,6.25,5.88l.05,.02-3,3.74-.03-.02c-.87-.43-1.46-.71-1.75-.84h-.03v-5.27h-3.66v5.83h-.02c-2.59,1.93-6.08,3.09-10.36,3.47l-.24,.02,1.88,2.96,.12-.04c3.76-1.2,6.64-2.89,8.54-5.02l.08-.09v1.63c0,1.36-.36,2.68-1.03,3.83-.79,1.35-1.75,2.13-2.42,2.54-.49,.3-.89,.46-1.11,.53,.2,.05,.35,.09,.49,.12,.41,.11,.65,.17,1.19,.17,1.23,0,2.46-.54,3.66-1.61,1.86-1.66,2.88-3.88,2.88-6.25v-1.7l.08,.07c1.76,1.7,4.92,3.99,9.4,6.8l.04,.02h.35l.02-.12c.11-.66,.17-1.73,.17-3.17v-.08l-.08-.04c-.92-.47-2.83-1.39-5.67-2.73h-.04c-.1-.06-.29-.15-.62-.32l-.05-.02,3.01-3.76h.03c.3,.09,.69,.22,1.19,.38,1.57,.57,2.86,1.01,3.85,1.31l1.06,.36,.35-3.98-.14-.02Z"/>
      <path class="d" d="M62.56,17.28c1.14,0,2.28-.13,3.39-.42,.32-.08,.61-.17,.84-.27,2.9-1.24,4.7-3.85,4.7-6.81,0-7.58-7.15-7.58-7.15-7.58h-17.33v30.31h3.66c6.9,.11,13.97,.58,19.4,1.3l.18,.02,.03-6.68h-2.38v3.54h-.05c-4.32-.1-11.09-.13-17.13,.08h-.05v-13.48h11.9Zm.56-13.15s4.66-.52,4.66,5.86c0,.11,0-.32,0-.22s0,.21,0,.31c-.16,2.98-2.71,5.26-5.69,5.26h-5.98v-.05c.05-.41,.1-.76,.17-1.1,.72-3.61,3.03-7,6.85-10.07Zm-12.46,0h7.72l-.05,.07c-2.26,3.28-3.69,6.77-4.27,10.39-.04,.23-.07,.47-.1,.74v.04h-3.3V4.12Z"/>
    </g>
    <g>
      <g>
        <path class="d" d="M182.34,1.49h-6.94V18.4h2.17v-7.27h4.79c3.12,0,5.47-2.07,5.47-4.82s-2.26-4.82-5.5-4.82Zm3.33,4.82c0,2.34-1.96,4.25-4.36,4.25h-3.73V2.06h3.73c2.4,0,4.36,1.9,4.36,4.25Z"/>
        <rect class="d" x="220.87" y="1.49" width="2.17" height="16.91"/>
        <path class="d" d="M236.49,10.11l-6.09-3.25c-.86-.41-1.74-.98-1.74-2.13,0-1.31,1.41-2.72,3.5-2.75,2.36,0,3.54,.87,4.69,2.27l.19,.23,1.07-1.5-.21-.12c-1.64-.95-3.6-1.46-5.66-1.46-.58,0-1.19,.06-1.93,.18-2.43,.44-3.57,2.15-3.62,3.66,0,1.46,.67,2.49,2.11,3.24l5.78,3.1c1.28,.68,2.05,1.71,2.05,2.75,0,2.23-2.23,3.56-4.39,3.56s-3.85-1.92-4.26-2.79l-.15-.32-1.24,1.42,.17,.15c.93,.82,3.23,2.12,5.47,2.12,2.61,0,4.18-.84,5.05-1.55,1.02-.84,1.64-1.98,1.64-3.05,0-1.62-.84-2.92-2.44-3.76Z"/>
        <path class="d" d="M199.87,13.67l-4.23-12.03-.05-.15h-1.73l-5.96,16.91h.79l1.34-3.83c.54-.8,1.27-1.44,2.15-1.93,1.36-.74,2.98-.96,4.84-.66l.54,1.54h0l1.7,4.87h2.3l-1.62-4.64-.05-.09Zm-3.31-2.93c-1.78,.14-3.43,.65-4.91,1.52-.4,.24-.78,.49-1.11,.76l3.41-9.67,2.61,7.38Z"/>
        <path class="d" d="M211.95,11.11c2.91-.18,5.06-2.18,5.06-4.8,0-2.84-2.26-4.82-5.5-4.82h-6.94V18.4h2.17v-7.27s1.41,.02,2.46,.03c1.16,.01,2.22,.66,2.74,1.7,1.17,2.36,1.76,5.67,4.76,5.67,.47,0,.55-.09,1.14-.26-2.68,.32-2.47-5.33-5.9-7.15Zm-5.21-9.05h3.73c2.4,0,4.36,1.9,4.36,4.25s-1.96,4.25-4.36,4.25h-3.73V2.06Z"/>
        <path class="d" d="M152.71,18.32c1.93-.38,4.09-.59,6.37-.59,2.45,0,4.75,.24,6.77,.67l.02-1.89c-2.5-.13-6.53-.15-9.79,.4l9.7-14.96,.04-.06v-.41h-13.09v.57h10.43l-10.45,16.26Z"/>
        <path class="d" d="M171.37,18.4h-1.77v-1.9h1.11c.44,0,.66,.24,.66,.72v1.18Z"/>
      </g>
      <g>
        <path class="d" d="M152.71,27.71h1.03v4.98h3.11v.94h-4.15v-5.92Z"/>
        <path class="d" d="M165.71,31.07c0,.44-.06,.83-.18,1.16-.12,.33-.29,.61-.51,.83s-.49,.39-.8,.5-.66,.17-1.05,.17-.73-.06-1.04-.17-.58-.27-.8-.49c-.22-.22-.39-.49-.51-.82-.12-.32-.18-.7-.18-1.13v-3.41h1.03v3.37c0,.55,.13,.97,.4,1.26,.27,.29,.64,.43,1.11,.43s.83-.14,1.1-.41c.27-.28,.4-.69,.4-1.24v-3.41h1.03v3.36Z"/>
        <path class="d" d="M173.89,33.63l-1.56-2.24-1.57,2.24h-1.19l2.16-3.01-2.07-2.91h1.23l1.47,2.12,1.48-2.12h1.19l-2.06,2.89,2.15,3.03h-1.23Z"/>
        <path class="d" d="M184.04,31.07c0,.44-.06,.83-.18,1.16-.12,.33-.29,.61-.51,.83s-.49,.39-.8,.5-.66,.17-1.05,.17-.73-.06-1.04-.17-.58-.27-.8-.49c-.22-.22-.39-.49-.51-.82-.12-.32-.18-.7-.18-1.13v-3.41h1.03v3.37c0,.55,.13,.97,.4,1.26,.27,.29,.64,.43,1.11,.43s.83-.14,1.1-.41c.27-.28,.4-.69,.4-1.24v-3.41h1.03v3.36Z"/>
        <path class="d" d="M192.23,33.63l-1.46-2.06h-1.31v2.06h-1.03v-5.92h2.64c.34,0,.64,.04,.92,.13,.27,.09,.51,.21,.69,.37,.19,.16,.33,.36,.44,.59s.15,.49,.15,.78c0,.25-.04,.47-.11,.66-.07,.19-.17,.37-.29,.52-.12,.15-.27,.28-.44,.38-.17,.1-.36,.18-.57,.24l1.6,2.24h-1.23Zm-.34-4.73c-.21-.17-.52-.25-.91-.25h-1.52v2h1.53c.37,0,.67-.09,.89-.27,.22-.18,.33-.42,.33-.73,0-.33-.11-.58-.32-.74Z"/>
        <path class="d" d="M200.09,33.63h-1.05v-2.34l-2.35-3.59h1.23l1.66,2.62,1.68-2.62h1.19l-2.35,3.56v2.36Z"/>
      </g>
    </g>
  </g>
</svg>