<?xml version="1.0" encoding="UTF-8"?>
<svg id="b" data-name="圖層 2" xmlns="http://www.w3.org/2000/svg" width="86.16" height="12.67" viewBox="0 0 86.16 12.67">
  <defs>
    <style>
      .d {
        fill: #fbe4e7;
      }
    </style>
  </defs>
  <g id="c" data-name="bar">
    <g>
      <path class="d" d="M9.91,3.61V1.91c0-.13-.11-.24-.24-.24H5.48l.02-.02c.2-.29,.34-.56,.42-.8v-.03l-.02-.02c-.21-.17-.74-.43-1.64-.8h-.16l.02,.06c.19,.56,.45,1.09,.78,1.59l.02,.02H.37v1.93H1.69v-1.33h6.9v1.33h1.32Z"/>
      <path class="d" d="M5.44,6.81v-2.07h.01c1.33-.13,2.53-.3,3.57-.49h.04v-.13l-.02-.02c-.7-.43-1.21-.71-1.58-.85h-.04c-1.76,.69-3.99,1.12-6.63,1.28h-.05v.45h.06c1.03,0,2.14-.03,3.31-.09h.02v2.02h-.01l-4.1,.3,.07,.6,4.04-.35v4.25h.53c1.74,.02,3.4,.13,4.92,.34h.06v-2.27h-.84v1.18h-.02c-.77-.02-1.98-.03-3.32,0h-.02v-3.61l4.54-.35-.07-.6-4.47,.39Z"/>
      <path class="d" d="M35.95,.92l-.02-.02c-.49-.4-.85-.65-1.1-.75h-.05c-.88,.49-2.13,.86-3.73,1.08h-.05v.2h1.81v.79h-1.93v.6h1.68v.02c-.29,1.01-.89,1.94-1.78,2.76l-.09,.09h.59c.64-.54,1.15-1,1.51-1.37l.03-.03v1.69h1.2V3.62l.03,.04c.3,.37,.67,.75,1.08,1.12l.06,.06,.03-.08c.12-.33,.2-.63,.24-.9v-.03l-.02-.02c-.47-.29-.94-.55-1.42-.77h0v-.22h1.69v-.6h-1.69v-.89h.01c.44-.04,1.07-.14,1.87-.29h.04v-.12Z"/>
      <path class="d" d="M41.34,7.32c-2.44-.32-4.15-.95-5.07-1.88h0l.15-.25h.19s1.86-2.29,2.12-3.15h.63c0,.25,0,1.24,0,1.28,0,.54-.13,1.01-.37,1.38-.56,.85-1.07,1.06-1.26,1.11,.07,.02,.12,.03,.17,.04,.15,.04,.23,.06,.43,.06,.44,0,.89-.2,1.32-.58,.67-.6,1.04-1.4,1.04-2.25V1.53h-2.87v-.02c.27-.43,.45-.87,.56-1.3l.02-.06h-1.58v.05c-.04,1.23-.48,2.29-1.32,3.13l-.08,.09h.57l.02-.02c.15-.16,.37-.37,.66-.64,.39-.32,.64-.55,.77-.72h.21c-.17,1.05-.64,2.02-1.4,2.9h-1.23v.04c-.49,1.43-1.94,2.72-4.33,3.82l-.21,.1h.98c.57-.22,1.16-.51,1.74-.85h.02s.02,.05,.04,.07c.24,.56,.47,1.02,.67,1.34l.02,.03h.12l.02-.02c.5-.54,.56-.73,.56-.82v-.02h-.01c-.17-.18-.45-.37-.86-.57-.1-.06-.19-.11-.26-.15h-.02l.02-.03c.94-.6,1.82-1.35,2.62-2.24v-.02l.03,.02c.55,.96,1.31,1.67,2.25,2.12h.02l-1.08,1.36h-.01c-.31-.16-.53-.26-.63-.31h0v-1.9h-1.32v2.1h0c-.93,.7-2.19,1.12-3.74,1.25h-.09l.68,1.07h.04c1.36-.45,2.39-1.06,3.08-1.82l.03-.03v.59c0,.49-.13,.97-.37,1.38-.29,.49-.63,.77-.87,.91-.18,.11-.32,.16-.4,.19,.07,.02,.13,.03,.17,.05,.15,.04,.23,.06,.43,.06,.44,0,.89-.2,1.32-.58,.67-.6,1.04-1.4,1.04-2.25v-.61l.03,.03c.64,.61,1.78,1.44,3.39,2.45h.14v-.03c.05-.24,.07-.62,.07-1.14v-.03h-.03c-.33-.18-1.02-.51-2.04-1h-.02s-.1-.05-.22-.12h-.02l1.09-1.37h.01c.11,.03,.25,.08,.43,.14,.57,.21,1.03,.37,1.39,.47l.38,.13,.12-1.44h-.05Z"/>
      <path class="d" d="M22.56,6.23c.41,0,.82-.05,1.22-.15,.11-.03,.22-.06,.3-.1,1.05-.45,1.69-1.39,1.69-2.46,0-2.73-2.58-2.73-2.58-2.73h-6.25V11.72h1.32c2.49,.04,5.04,.21,7,.47h.06v-2.4h-.85v1.28h-.02c-1.56-.04-4-.05-6.18,.03h-.02V6.23h4.29Zm.2-4.74s1.68-.19,1.68,2.11c0,.04,0-.12,0-.08s0,.08,0,.11c-.06,1.07-.98,1.9-2.05,1.9h-2.15v-.02c.02-.15,.04-.27,.06-.4,.26-1.3,1.09-2.52,2.47-3.63Zm-4.49,0h2.79l-.02,.03c-.81,1.18-1.33,2.44-1.54,3.75-.01,.08-.03,.17-.04,.27h-1.19V1.49Z"/>
    </g>
    <g>
      <g>
        <path class="d" d="M65.75,.54h-2.5V6.63h.78v-2.62h1.73c1.13,0,1.97-.75,1.97-1.74s-.82-1.74-1.98-1.74Zm1.2,1.74c0,.84-.71,1.53-1.57,1.53h-1.35V.74h1.35c.87,0,1.57,.69,1.57,1.53Z"/>
        <rect class="d" x="79.65" y=".54" width=".78" height="6.1"/>
        <path class="d" d="M85.28,3.65l-2.2-1.17c-.31-.15-.63-.35-.63-.77,0-.47,.51-.98,1.26-.99,.85,0,1.28,.31,1.69,.82l.07,.08,.39-.54-.08-.04c-.59-.34-1.3-.53-2.04-.53-.21,0-.43,.02-.7,.06-.88,.16-1.29,.78-1.3,1.32,0,.53,.24,.9,.76,1.17l2.08,1.12c.46,.25,.74,.62,.74,.99,0,.8-.8,1.28-1.58,1.28s-1.39-.69-1.53-1.01l-.05-.12-.45,.51,.06,.05c.33,.3,1.17,.76,1.97,.76,.94,0,1.51-.3,1.82-.56,.37-.3,.59-.71,.59-1.1,0-.58-.3-1.05-.88-1.36Z"/>
        <path class="d" d="M72.08,4.93l-1.53-4.34-.02-.05h-.63l-2.15,6.1h.28l.48-1.38c.2-.29,.46-.52,.78-.7,.49-.27,1.08-.35,1.74-.24l.2,.56h0l.61,1.76h.83l-.59-1.67-.02-.03Zm-1.19-1.06c-.64,.05-1.24,.24-1.77,.55-.15,.09-.28,.18-.4,.27l1.23-3.49,.94,2.66Z"/>
        <path class="d" d="M76.43,4.01c1.05-.06,1.82-.79,1.82-1.73,0-1.02-.82-1.74-1.98-1.74h-2.5V6.63h.78v-2.62s.51,0,.89,.01c.42,0,.8,.24,.99,.61,.42,.85,.63,2.04,1.72,2.04,.17,0,.2-.03,.41-.09-.97,.11-.89-1.92-2.13-2.58Zm-1.88-3.26h1.35c.87,0,1.57,.69,1.57,1.53s-.71,1.53-1.57,1.53h-1.35V.74Z"/>
        <path class="d" d="M55.07,6.6c.69-.14,1.47-.21,2.3-.21,.88,0,1.71,.09,2.44,.24v-.68c-.89-.05-2.35-.05-3.52,.15l3.5-5.4v-.17h-4.71v.21h3.76l-3.77,5.86Z"/>
        <path class="d" d="M61.8,6.63h-.64v-.69h.4c.16,0,.24,.08,.24,.26v.42Z"/>
      </g>
      <g>
        <path class="d" d="M55.07,9.99h.37v1.8h1.12v.34h-1.5v-2.14Z"/>
        <path class="d" d="M59.76,11.2c0,.16-.02,.3-.07,.42-.04,.12-.11,.22-.18,.3s-.18,.14-.29,.18-.24,.06-.38,.06-.26-.02-.38-.06-.21-.1-.29-.18c-.08-.08-.14-.18-.18-.29-.04-.12-.06-.25-.06-.41v-1.23h.37v1.21c0,.2,.05,.35,.14,.45,.1,.1,.23,.16,.4,.16s.3-.05,.4-.15c.1-.1,.14-.25,.14-.45v-1.23h.37v1.21Z"/>
        <path class="d" d="M62.71,12.13l-.56-.81-.56,.81h-.43l.78-1.09-.75-1.05h.44l.53,.77,.53-.77h.43l-.74,1.04,.78,1.09h-.44Z"/>
        <path class="d" d="M66.37,11.2c0,.16-.02,.3-.07,.42-.04,.12-.11,.22-.18,.3s-.18,.14-.29,.18-.24,.06-.38,.06-.26-.02-.38-.06-.21-.1-.29-.18c-.08-.08-.14-.18-.18-.29-.04-.12-.06-.25-.06-.41v-1.23h.37v1.21c0,.2,.05,.35,.14,.45,.1,.1,.23,.16,.4,.16s.3-.05,.4-.15c.1-.1,.14-.25,.14-.45v-1.23h.37v1.21Z"/>
        <path class="d" d="M69.32,12.13l-.53-.74h-.47v.74h-.37v-2.14h.95c.12,0,.23,.02,.33,.05,.1,.03,.18,.08,.25,.13,.07,.06,.12,.13,.16,.21s.05,.18,.05,.28c0,.09-.01,.17-.04,.24-.03,.07-.06,.13-.11,.19-.04,.05-.1,.1-.16,.14-.06,.04-.13,.07-.21,.09l.58,.81h-.44Zm-.12-1.71c-.08-.06-.19-.09-.33-.09h-.55v.72h.55c.13,0,.24-.03,.32-.1,.08-.07,.12-.15,.12-.26,0-.12-.04-.21-.12-.27Z"/>
        <path class="d" d="M72.16,12.13h-.38v-.84l-.85-1.29h.44l.6,.95,.6-.95h.43l-.85,1.28v.85Z"/>
      </g>
    </g>
  </g>
</svg>