<?xml version="1.0" encoding="UTF-8"?>
<svg id="b" data-name="圖層 2" xmlns="http://www.w3.org/2000/svg" width="204.97" height="12.33" viewBox="0 0 204.97 12.33">
  <defs>
    <style>
      .d {
        fill: #231815;
      }

      .e {
        fill: #e95529;
      }
    </style>
  </defs>
  <g id="c" data-name="圖層 1">
    <g>
      <path class="d" d="M71.02,11.28h-1.73V1.09h5.69c.41,0,.85,.03,1.33,.08,.48,.05,.93,.19,1.35,.4,.42,.22,.77,.54,1.05,.98,.28,.44,.42,1.04,.42,1.8,0,.64-.1,1.17-.3,1.58-.2,.41-.49,.74-.85,.98-.36,.24-.8,.41-1.31,.51s-1.08,.15-1.69,.15h-3.96v3.7Zm3.96-5.43c.41,0,.76-.01,1.06-.04,.3-.03,.55-.09,.76-.2,.2-.1,.35-.26,.45-.45,.1-.2,.15-.47,.15-.81,0-.38-.06-.68-.18-.89-.12-.21-.29-.36-.5-.46s-.47-.15-.77-.17c-.3-.01-.62-.02-.97-.02h-3.96v3.03h3.96Z"/>
      <path class="d" d="M92.26,11.28h-2.05l-1.3-2.38h-6.22l-1.26,2.38h-1.97l5.51-10.19h1.73l5.55,10.19Zm-6.43-8.25l-2.22,4.13h4.45l-2.22-4.13Z"/>
      <path class="d" d="M105.55,11.28h-2.16l-2.93-4.17h-3.58v4.17h-1.73V1.09h6.3c.51,0,1,.05,1.47,.15,.47,.1,.88,.26,1.24,.48,.36,.22,.65,.52,.86,.9,.21,.37,.31,.84,.31,1.41s-.09,1.03-.26,1.41c-.17,.37-.39,.67-.66,.9-.27,.22-.56,.39-.89,.5-.32,.11-.63,.19-.93,.25l2.97,4.21Zm-3.94-5.9c.58,0,1.05-.09,1.42-.29,.37-.19,.55-.53,.55-1.03,0-.29-.05-.51-.14-.68-.09-.16-.23-.29-.4-.37-.18-.09-.39-.14-.65-.16-.26-.02-.55-.03-.88-.03h-4.64v2.56h4.74Z"/>
      <path class="d" d="M111.12,11.28h-1.73V1.09h1.73V11.28Z"/>
      <path class="d" d="M124.53,3.69c-.21-.12-.44-.25-.7-.38-.26-.14-.55-.27-.89-.38-.33-.12-.72-.22-1.14-.3-.43-.08-.92-.12-1.49-.12-.94,0-1.66,.12-2.13,.35-.48,.24-.72,.57-.72,1,0,.25,.03,.46,.1,.62,.07,.16,.21,.3,.44,.39,.23,.1,.56,.17,.99,.22,.43,.05,1.02,.07,1.75,.07,1.15,0,2.07,.08,2.75,.25,.68,.16,1.19,.38,1.54,.66,.35,.28,.58,.59,.69,.95,.1,.36,.16,.74,.16,1.13,0,.73-.15,1.33-.46,1.78-.31,.45-.71,.8-1.19,1.04-.49,.24-1.03,.41-1.62,.49-.6,.09-1.18,.13-1.74,.13-.87,0-1.63-.07-2.3-.21-.67-.14-1.25-.3-1.74-.48-.49-.18-.9-.37-1.21-.57s-.56-.35-.73-.47l.83-1.52c.29,.18,.59,.36,.91,.54s.67,.34,1.06,.48c.39,.14,.85,.26,1.37,.35,.52,.09,1.14,.14,1.86,.14,.46,0,.88-.03,1.26-.08,.38-.05,.71-.14,.98-.26,.28-.12,.49-.28,.64-.47,.15-.2,.23-.44,.23-.73,0-.33-.06-.58-.17-.76-.11-.18-.33-.31-.65-.4-.32-.09-.77-.15-1.36-.19-.58-.03-1.35-.06-2.31-.09-.58-.01-1.11-.07-1.59-.17-.49-.1-.9-.26-1.25-.47-.35-.22-.62-.5-.81-.86-.19-.35-.29-.8-.29-1.34,0-.43,.09-.85,.26-1.24,.17-.39,.44-.74,.82-1.04,.37-.3,.86-.54,1.46-.73,.6-.18,1.32-.28,2.17-.28,.62,0,1.19,.06,1.73,.17,.54,.11,1.02,.24,1.46,.38,.43,.14,.81,.29,1.12,.44,.31,.15,.56,.27,.73,.36l-.81,1.55Z"/>
      <polygon class="d" points="55.34 9.55 61.69 3.38 61.68 1.09 53.3 1.09 53.3 2.82 59.91 2.82 53.31 9.3 53.3 11.28 61.69 11.28 62.62 9.55 55.34 9.55"/>
      <polygon class="e" points="66.06 11.28 64.33 11.28 65.25 9.55 66.98 9.55 66.06 11.28"/>
    </g>
    <g>
      <path class="d" d="M5.69,.71v.38h3.11v-.38c0-.29,.02-.39,.06-.62,0-.05-.03-.09-.08-.09h-3.1s-.09,.05-.08,.1c.05,.24,.08,.32,.08,.62Z"/>
      <path class="d" d="M14.3,8.41h-3.1s-.09,.06-.08,.13c.05,.32,.08,.44,.08,.84v.03c-.09,.01-.84,.12-1.11,.14-.15,.01-.39,.04-.77,.04-.25,0-.56-.02-.8-.04-.41-.04-.76-.09-.95-.12v-1.19l5-.79h0s.07,0,.12,0c.03,0,.06-.03,.06-.05l-.16-1.72s-.04-.04-.07-.03c-.05,.01-.08,.03-.12,.04h0c-.2,.07-1.55,.56-3.25,1.06-.47,.14-1.04,.28-1.58,.4v-1.63h3.64v-1.93s-1.03,.16-2.33,.29c-.5,.05-1.16,.09-1.67,.09-.8,0-1.3-.07-1.61-.09-.6-.04-2.33-.29-2.33-.29v1.93h1.88v1.94c-.27,.01-.49,.02-.67,.03-.82,.05-3.09,0-3.36,0h0s-.07,0-.12,0c-.03,0-.06,.03-.06,.05l.16,1.72s.04,.04,.07,.03c.04-.01,.08-.02,.11-.04l3.87-.61v1.81c0,.65,.53,1.17,1.17,1.17h1.26s4.85,0,4.85,0c.99,0,1.8-.76,1.89-1.72h0v-.1s0-.05,0-.08h0v-.34c0-.4,.02-.53,.06-.84,0-.07-.03-.13-.08-.13Z"/>
      <path class="d" d="M14.28,1.04c-.23,.05-.33,.06-.63,.06h-.39s-13.16,0-13.16,0H.11s-.01,0-.02,0c-.05,0-.1,.03-.1,.08v3.14c0,.05,.05,.09,.1,.08,.24-.05,.33-.08,.63-.08h.39s1.49,0,1.49,0v-1.07c.67-.1,1.31-.19,1.7-.22,.56-.05,1.46-.19,2.89-.19,.92,0,2.1,.08,2.99,.19,.61,.08,1.18,.15,1.7,.23v1.04h2.09c.1,.01,.19,.04,.32,.06,.05,.01,.1-.03,.1-.08V1.12c0-.05-.05-.09-.1-.08Z"/>
      <path class="d" d="M29.31,.52h-13.05s-.08,.05-.07,.1c.04,.24,.07,.32,.07,.62v.33h-.01v7.9c0,1.2,.88,2.18,1.98,2.18h9.05c1.11,0,2-.97,2-2.17h0v-.05s0-.04,0-.04v-.64c0-.49,.01-.65,.05-1.04,0-.08-.03-.16-.07-.16h-2.84s-.08,.08-.07,.16c.04,.4,.07,.54,.07,1.03v.54c-.61,.08-1.33,.17-1.69,.2-.37,.03-.97,.11-1.92,.11-.61,0-1.39-.05-1.98-.11-.74-.08-1.4-.16-1.89-.23v-2.96h10.38V1.61h0v-.38c0-.29,.01-.39,.05-.62,0-.05-.03-.09-.07-.09Zm-5.39,3.84s-.04,0-.06,0c-.03-.2-.05-.4-.06-.51,0-.14-.04-.35-.04-.69,0-.22,.02-.5,.04-.72,0-.02,0-.03,0-.05h2.65s0,.03,0,.05c.02,.21,.04,.5,.04,.72,0,.34-.03,.56-.04,.69,0,.11-.03,.32-.06,.51-.02,0-.05,0-.07,0h-2.41Zm-4.79,0s-.04,0-.06,0c-.03-.2-.05-.4-.06-.51,0-.14-.04-.35-.04-.69,0-.22,.02-.5,.04-.72,0-.02,0-.03,0-.05h2.65s0,.03,0,.05c.02,.21,.04,.5,.04,.72,0,.34-.03,.56-.04,.69,0,.11-.03,.32-.06,.51-.02,0-.05,0-.07,0h-2.41Z"/>
      <path class="d" d="M45.26,9.38c-1.1,.39-3.85,.41-3.85,.41l1.51-2.08-3.3-.8,.14,4.02s4.6,1.09,5.69,.83c-.17-.86-.21-1.52-.19-2.39Z"/>
      <path class="d" d="M34.63,9.79s-2.75-.02-3.85-.41c.03,.86-.01,1.53-.19,2.39,1.09,.26,5.68-.84,5.69-.83l.14-4.02-3.3,.8,1.51,2.08Z"/>
      <rect class="d" x="37.03" y="6.43" width="1.98" height="5.18"/>
      <path class="d" d="M43.76,6.38c-.27-.05-.71-.09-1.39-.26-.2-.05-.42-.11-.64-.18,.63,.04,.92,.05,1.31,.05,1.01,0,1.54-.2,1.85-.71,.28-.46,.48-4.01,.48-4.01h-4.24l.18-.38c.2-.54,.24-.52,.27-.61,0-.03-.01-.06-.05-.06L39.41,.01s-.06,.02-.06,.05c0,.01-.1,.2-.25,.47-.4,.71-1.16,2-1.36,2.1,0,0,.65,.65,.99,.98,.06,.06,.15,.15,.27,.25,.64-.49,.9-.73,1.32-1.23h.73c-.21,.35-.79,1.09-1.51,1.54,.56,.38,1.1,.66,1.4,1.06,.09-.07,.16-.07,.47-.38,.16,.38,.24,.64,.28,1.07-.25-.08-.49-.16-.7-.23-1.01-.36-1.81-.69-1.91-.73h0s0,0,0,0v-.23c0-.18,0-.24,.04-.38,0-.03-.02-.06-.05-.06h-1.9s-.05,.03-.05,.06c.03,.15,.05,.2,.05,.38v.23h-.02c-.15,.07-.88,.37-1.8,.7,0-.1,0-.21,0-.36v-.53h0v-.91h2.12v-1.49s-1.17,.2-1.66,.24c-.11,0-.24,.02-.41,.04v-.81l2.06-.16-.05-.59c-.04-.45-.02-.6,.04-.96,.01-.08-.06-.14-.15-.13l-5.68,.44c-.09,0-.15,.08-.13,.16,.12,.36,.18,.49,.22,.94l.05,.59,1.78-.14v.66c-.14-.01-.27-.02-.39-.03-1.06-.11-1.89-.24-1.89-.24v1.04h0v.48l1.53-.04-1.53,.89,.89,1.3,1.32-1.16v.41c0,.41,0,.55-.04,.87,0,.02,0,.03,0,.05-.43,.09-.74,.12-.94,.16-.52,.09-2.04,.24-2.04,.24l.27,1.09,6.67-1.64c.53-.1,1.07-.09,1.6,.02l6.58,1.62,.27-1.09s-1.52-.15-2.04-.24Zm-.89-3.74h.5c-.04,.88-.18,1.51-.35,1.79-.07,.11-.22,.16-.53,.16-.21,0-.43-.01-.77-.06,.52-.59,.89-1.21,1.16-1.89Z"/>
    </g>
    <g>
      <path class="d" d="M157.15,5.49v.94h-6.25v-.94h2.44v-.48h-2v-.87h2v-.44h-2.28v-.42c-.29,.73-.59,1.51-.83,2.02l-.73-.28v.58h1.18v1.21h-1.18v.77l.46-.32c.22,.25,.97,1.33,1.14,1.6l-.83,.95c-.17-.43-.51-1.15-.78-1.67v4.09h-1.14v-3.64c-.24,.94-.59,1.86-1.06,2.4-.11-.38-.35-.97-.54-1.34,.44-.56,.86-1.57,1.01-2.41l.58,.21v-.63h-1.41v-1.21h1.41V1.97h1.14v2.82c.22-.62,.45-1.47,.57-2.09l.98,.31v-.24h2.28v-.8h1.26v.8h2.4v.94h-2.4v.44h2.18v.87h-2.18v.48h2.54Zm-9.74-.24c-.07-.64-.28-1.62-.47-2.35l.9-.22c.21,.74,.44,1.71,.53,2.33l-.96,.24Zm9.21,5.8c0,.55-.1,.84-.48,1-.36,.17-.88,.19-1.57,.18-.04-.31-.2-.75-.34-1.03,.41,.01,.87,.01,1,.01,.14,0,.19-.04,.19-.17v-.46h-2.98c-.13,.64-.39,1.27-.8,1.75-.19-.23-.67-.68-.91-.82,.64-.77,.7-1.8,.7-2.66v-1.96h5.2v4.17Zm-1.21-1.32v-.53h-2.82c-.01,.18-.02,.35-.03,.53h2.85Zm-2.82-1.89v.52h2.82v-.52h-2.82Z"/>
      <path class="d" d="M163.26,7.29h4.19v4.9h-1.31v-.5h-1.64v.55h-1.24V7.29Zm1.24,1.25v1.89h1.64v-1.89h-1.64Zm6.72-2.17h-6.45V2.39h6.45v3.98Zm-1.33-2.73h-3.85v1.49h3.85v-1.49Zm2.82,3.64v4.91h-1.32v-.51h-1.75v.55h-1.25V7.29h4.32Zm-1.32,3.15v-1.89h-1.75v1.89h1.75Z"/>
      <path class="d" d="M182.81,2.46c-.29,.67-.63,1.35-1.02,2.02v7.73h-1.36V6.44c-.37,.46-.75,.88-1.14,1.23-.12-.31-.5-1.01-.73-1.33,1.19-1.01,2.34-2.63,3-4.29l1.25,.41Zm3.01,3.98c.31,2.44,.89,4.07,1.77,4.18,.25,.02,.38-.53,.47-1.75,.24,.29,.83,.62,1.07,.75-.28,2.12-.87,2.63-1.49,2.6-1.86-.18-2.73-2.24-3.12-5.6l-2.17,.3-.19-1.27,2.22-.3c-.08-.99-.14-2.07-.18-3.22h1.33c.02,1.08,.07,2.11,.14,3.05l3.13-.41,.19,1.23-3.19,.44Zm1.97-1.95c-.27-.52-.93-1.29-1.51-1.85l.98-.6c.58,.53,1.26,1.25,1.58,1.77l-1.06,.68Z"/>
      <path class="d" d="M196.9,9.8c-.29,.92-.79,1.87-1.31,2.46-.22-.19-.69-.5-.97-.64,.5-.52,.91-1.31,1.13-2.08l1.14,.25Zm1.67-.33h-3.34V2.37h3.34v7.1Zm-1.14-6.06h-1.09v1.01h1.09v-1.01Zm0,1.99h-1.09v1.02h1.09v-1.02Zm0,1.99h-1.09v1.03h1.09v-1.03Zm.58,2.13c.36,.55,.77,1.29,.95,1.77l-1.01,.49c-.15-.51-.55-1.29-.9-1.86l.97-.41Zm6.96,.95h-.51v.58c0,.55-.11,.83-.47,1-.36,.18-.88,.19-1.59,.19-.04-.31-.2-.76-.34-1.04,.43,.01,.9,.01,1.03,.01,.14,0,.19-.04,.19-.17v-.57h-2.83v1.78h-1.14v-1.78h-.59v-.91h.59v-2.77h1.98v-.42h-2.52v-.92h1.38v-.43h-.93v-.87h.93v-.41h-1.19v-.92h1.19v-.84h1.14v.84h1.12v-.84h1.17v.84h1.19v.92h-1.19v.41h1.02v.87h-1.02v.43h1.39v.92h-2.54v.42h2.05v2.77h.51v.91Zm-4.52-2.77v.51h.84v-.51h-.84Zm0,1.86h.84v-.55h-.84v.55Zm.84-5.41h1.12v-.41h-1.12v.41Zm0,1.3h1.12v-.43h-1.12v.43Zm1.13,2.26v.51h.86v-.51h-.86Zm.86,1.86v-.55h-.86v.55h.86Z"/>
    </g>
  </g>
</svg>