<?xml version="1.0" encoding="UTF-8"?>
<svg id="b" data-name="圖層 2" xmlns="http://www.w3.org/2000/svg" width="123.64" height="11.4" viewBox="0 0 123.64 11.4">
  <g id="c" data-name="圖層 1">
    <g>
      <path d="M17.11,10.89h-1.67V1.05h5.49c.39,0,.82,.03,1.28,.08,.46,.05,.9,.18,1.3,.39,.41,.21,.74,.53,1.02,.95,.27,.42,.41,1,.41,1.74,0,.62-.1,1.13-.29,1.53-.2,.4-.47,.72-.82,.95-.35,.23-.77,.4-1.26,.49s-1.04,.14-1.63,.14h-3.82v3.57Zm3.82-5.24c.39,0,.73-.01,1.03-.04,.29-.03,.53-.09,.73-.19,.2-.1,.34-.25,.44-.44,.1-.19,.14-.45,.14-.78,0-.37-.06-.65-.17-.85-.11-.2-.28-.35-.48-.45s-.46-.15-.74-.16c-.28-.01-.6-.02-.94-.02h-3.82v2.93h3.82Z" style="fill: #231815;"/>
      <path d="M37.61,10.89h-1.98l-1.25-2.3h-6l-1.22,2.3h-1.9L30.59,1.05h1.67l5.36,9.84Zm-6.21-7.96l-2.15,3.99h4.29l-2.15-3.99Z" style="fill: #231815;"/>
      <path d="M50.44,10.89h-2.09l-2.83-4.03h-3.46v4.03h-1.67V1.05h6.08c.49,0,.97,.05,1.42,.14,.45,.09,.85,.25,1.2,.47,.35,.22,.62,.5,.83,.86,.2,.36,.3,.81,.3,1.36s-.08,1-.25,1.36c-.16,.36-.38,.65-.64,.86-.26,.22-.54,.38-.85,.48-.31,.11-.61,.19-.9,.24l2.87,4.06Zm-3.8-5.7c.56,0,1.01-.09,1.37-.28,.35-.18,.53-.52,.53-1,0-.28-.04-.5-.13-.66-.09-.16-.22-.28-.39-.36-.17-.08-.38-.13-.63-.15-.25-.02-.53-.03-.85-.03h-4.48v2.47h4.58Z" style="fill: #231815;"/>
      <path d="M55.82,10.89h-1.67V1.05h1.67V10.89Z" style="fill: #231815;"/>
      <path d="M68.76,3.56c-.2-.11-.43-.24-.67-.37-.25-.13-.53-.26-.85-.37-.32-.11-.69-.21-1.1-.28-.41-.08-.89-.11-1.43-.11-.91,0-1.6,.11-2.06,.34-.46,.23-.69,.55-.69,.97,0,.24,.03,.44,.09,.6,.06,.16,.21,.28,.43,.38,.22,.09,.54,.16,.96,.21,.42,.04,.98,.07,1.69,.07,1.11,0,2,.08,2.65,.24,.65,.16,1.15,.37,1.49,.64,.34,.27,.56,.57,.66,.92,.1,.35,.15,.71,.15,1.09,0,.71-.15,1.28-.45,1.72-.3,.44-.68,.77-1.15,1.01-.47,.23-.99,.39-1.57,.47-.58,.08-1.14,.12-1.68,.12-.84,0-1.58-.07-2.22-.2-.65-.13-1.21-.29-1.68-.47-.47-.18-.86-.36-1.17-.55s-.54-.34-.7-.46l.8-1.46c.28,.18,.57,.35,.87,.52s.65,.33,1.03,.47c.38,.14,.82,.25,1.32,.34,.5,.09,1.1,.13,1.8,.13,.44,0,.85-.03,1.22-.08,.37-.05,.68-.13,.95-.25,.27-.11,.47-.27,.62-.46,.15-.19,.22-.42,.22-.7,0-.32-.05-.56-.16-.73-.11-.17-.32-.3-.63-.39-.31-.09-.75-.15-1.31-.18-.56-.03-1.31-.06-2.23-.09-.56-.01-1.07-.07-1.54-.16-.47-.09-.87-.25-1.21-.46-.34-.21-.6-.48-.78-.83-.18-.34-.28-.77-.28-1.29,0-.42,.08-.82,.25-1.2,.16-.38,.43-.72,.79-1.01,.36-.29,.83-.53,1.41-.7,.58-.18,1.28-.27,2.1-.27,.6,0,1.15,.05,1.67,.16,.52,.11,.99,.23,1.41,.37,.42,.14,.78,.28,1.08,.43,.3,.15,.54,.26,.7,.35l-.78,1.5Z" style="fill: #231815;"/>
      <polygon points="1.98 9.22 8.1 3.26 8.09 1.05 0 1.05 0 2.72 6.38 2.72 .02 8.97 0 10.89 8.1 10.89 9 9.22 1.98 9.22" style="fill: #231815;"/>
      <polygon points="12.33 10.89 10.65 10.89 11.54 9.22 13.21 9.22 12.33 10.89" style="fill: #e95529;"/>
      <g>
        <path d="M84.92,.69v.37h3v-.37c0-.28,.01-.38,.06-.6,0-.05-.03-.09-.07-.09h-2.99s-.08,.04-.07,.09c.05,.23,.08,.31,.08,.6Z" style="fill: #231815;"/>
        <path d="M93.24,8.11h-2.99s-.08,.06-.07,.13c.05,.31,.08,.42,.08,.81v.03c-.09,.01-.81,.12-1.07,.13-.15,.01-.38,.04-.75,.04-.24,0-.54-.02-.77-.04-.39-.04-.73-.09-.92-.11v-1.15l4.83-.77h0s.07,0,.11,0c.03,0,.06-.02,.06-.05l-.16-1.66s-.04-.04-.07-.03c-.04,.01-.08,.03-.11,.04h0c-.19,.07-1.5,.54-3.14,1.03-.45,.13-1,.27-1.53,.39v-1.57h3.51v-1.87s-.99,.15-2.25,.28c-.48,.05-1.12,.09-1.61,.09-.77,0-1.25-.07-1.56-.09-.58-.04-2.25-.28-2.25-.28v1.87h1.81v1.88c-.26,.01-.47,.02-.65,.03-.79,.05-2.98,0-3.24,0h0s-.07,0-.11,0c-.03,0-.06,.02-.06,.05l.15,1.66s.04,.04,.07,.03c.04-.01,.07-.02,.11-.03l3.73-.59v1.75c0,.63,.51,1.13,1.13,1.13h5.9c.95,0,1.74-.73,1.83-1.66h0v-.09s0-.05,0-.08h0v-.33c0-.39,.01-.51,.06-.81,0-.06-.03-.12-.07-.12Z" style="fill: #231815;"/>
        <path d="M93.22,1.01c-.22,.04-.32,.06-.6,.06h-13.09s-.09,.03-.09,.08v3.03s.05,.09,.09,.08c.23-.05,.32-.08,.6-.08h1.81v-1.03c.64-.1,1.27-.18,1.64-.22,.54-.05,1.41-.19,2.79-.19,.89,0,2.02,.08,2.89,.19,.59,.07,1.14,.15,1.64,.22v1.01h2.01c.1,.01,.18,.03,.31,.06,.05,0,.09-.03,.09-.08V1.08s-.04-.09-.09-.08Z" style="fill: #231815;"/>
        <path d="M107.73,.5h-12.6s-.08,.04-.07,.09c.04,.23,.07,.31,.07,.59v.32h-.01v7.63c0,1.16,.85,2.1,1.91,2.1h8.74c1.07,0,1.93-.94,1.93-2.1h0v-.7c0-.47,.01-.63,.05-1,0-.08-.02-.15-.07-.15h-2.74s-.08,.08-.07,.15c.04,.39,.07,.52,.07,1v.52c-.59,.08-1.28,.17-1.63,.19-.36,.03-.93,.1-1.85,.11-.59,0-1.34-.04-1.92-.11-.71-.07-1.35-.15-1.83-.22v-2.85h10.02V1.56h0v-.37c0-.28,.01-.38,.05-.6,0-.05-.02-.09-.07-.09Zm-5.21,3.71h-.06c-.02-.2-.05-.39-.06-.5,0-.13-.04-.34-.04-.67,0-.21,.02-.49,.04-.69v-.05h2.57v.05c.03,.21,.04,.48,.04,.69,0,.33-.03,.54-.04,.67,0,.11-.03,.31-.06,.49h-2.4Zm-4.62,0h-.06c-.02-.2-.05-.39-.06-.5,0-.13-.04-.34-.04-.67,0-.21,.02-.49,.04-.69v-.05h2.57v.05c.03,.21,.04,.48,.04,.69,0,.33-.03,.54-.04,.67,0,.11-.03,.31-.06,.49h-2.4Z" style="fill: #231815;"/>
        <path d="M123.12,9.06c-1.06,.38-3.72,.39-3.72,.39l1.45-2.01-3.18-.77,.14,3.88s4.44,1.05,5.49,.8c-.17-.83-.21-1.47-.18-2.3Z" style="fill: #231815;"/>
        <path d="M112.86,9.45s-2.65-.02-3.72-.39c.03,.83-.01,1.48-.18,2.3,1.05,.25,5.49-.81,5.49-.8l.14-3.88-3.18,.77,1.45,2.01Z" style="fill: #231815;"/>
        <rect x="115.18" y="6.21" width="1.91" height="5" style="fill: #231815;"/>
        <path d="M121.67,6.15c-.26-.04-.68-.09-1.34-.25-.19-.05-.41-.11-.62-.17,.61,.04,.89,.05,1.27,.05,.97,0,1.49-.2,1.79-.68,.27-.44,.46-3.87,.46-3.87h-4.09l.17-.36c.2-.52,.23-.51,.26-.59,0-.03-.01-.06-.04-.06l-2.05-.21s-.06,.02-.06,.05c0,0-.1,.19-.24,.45-.39,.69-1.12,1.93-1.31,2.03,0,0,.63,.63,.96,.94,.06,.05,.14,.14,.26,.24,.61-.47,.87-.7,1.27-1.19h.7c-.2,.34-.76,1.05-1.46,1.49,.54,.36,1.06,.64,1.35,1.02,.09-.06,.15-.07,.45-.37,.16,.37,.23,.62,.27,1.03-.24-.07-.48-.15-.68-.22-.97-.35-1.74-.67-1.84-.71h0v-.23c0-.17,0-.23,.04-.37,0-.03-.02-.06-.05-.06h-1.83s-.05,.03-.05,.06c.03,.14,.05,.19,.05,.37v.23h-.02c-.14,.07-.85,.36-1.74,.68,0-.09,0-.2,0-.35v-.51h0v-.87h2.04v-1.43s-1.13,.2-1.6,.23c-.1,0-.23,.02-.39,.03v-.78l1.99-.15-.04-.57c-.03-.44-.02-.58,.03-.93,.01-.07-.06-.14-.15-.13l-5.48,.43c-.09,0-.15,.08-.13,.15,.11,.35,.18,.47,.21,.91l.04,.57,1.72-.13v.64c-.13,0-.26-.02-.38-.03-1.02-.11-1.83-.23-1.83-.23v1h0v.47l1.47-.04-1.48,.86,.86,1.26,1.28-1.12v.4c0,.4,0,.53-.03,.84,0,.02,0,.03,0,.05-.42,.09-.71,.12-.91,.15-.5,.09-1.97,.23-1.97,.23l.26,1.05,6.44-1.58c.51-.1,1.03-.09,1.54,.02l6.35,1.56,.26-1.05s-1.47-.14-1.97-.23Zm-.86-3.61h.48c-.04,.85-.17,1.46-.34,1.73-.07,.11-.22,.15-.52,.15-.2,0-.41-.01-.74-.05,.5-.57,.86-1.17,1.12-1.82Z" style="fill: #231815;"/>
      </g>
    </g>
  </g>
</svg>