<?xml version="1.0" encoding="UTF-8"?>
<svg id="b" data-name="圖層 2" xmlns="http://www.w3.org/2000/svg" width="33.57" height="33.77" viewBox="0 0 33.57 33.77">
  <defs>
    <style>
      .d {
        fill: #fff;
      }
    </style>
  </defs>
  <g id="c" data-name="bar">
    <g>
      <path class="d" d="M33.57,28.12H0c.15-.14,.26-.23,.37-.33,.91-.82,1.88-1.59,2.72-2.49,1.41-1.51,2.02-3.42,2.27-5.42,.21-1.71,.32-3.44,.37-5.16,.06-2.1,.19-4.18,.92-6.18,1.3-3.51,3.82-5.58,7.46-6.34,.18-.04,.37-.08,.55-.11C14.95,.67,15.66-.01,16.85,0c1.18,.01,1.9,.71,2.12,1.97,1.03,.34,2.07,.59,3.02,1.02,2.96,1.32,4.6,3.74,5.38,6.8,.39,1.54,.46,3.12,.53,4.7,.08,1.86,.18,3.72,.4,5.56,.37,3.02,1.88,5.4,4.33,7.21,.32,.23,.61,.5,.91,.76,.02,.01,.02,.05,.04,.1Z"/>
      <path class="d" d="M12.34,30.01h9c-.14,2.09-2.35,3.84-4.72,3.76-2.16-.08-4.29-1.94-4.27-3.76Z"/>
    </g>
  </g>
</svg>