<?xml version="1.0" encoding="UTF-8"?>
<svg id="b" data-name="圖層 2" xmlns="http://www.w3.org/2000/svg" width="15.95" height="16.04" viewBox="0 0 15.95 16.04">
  <defs>
    <style>
      .d {
        fill: #fff;
      }
    </style>
  </defs>
  <g id="c" data-name="文字">
    <g>
      <path class="d" d="M15.95,13.36H0c.07-.06,.12-.11,.18-.16,.43-.39,.9-.76,1.29-1.18,.67-.72,.96-1.63,1.08-2.58,.1-.81,.15-1.63,.18-2.45,.03-1,.09-1.99,.44-2.94,.62-1.67,1.82-2.65,3.54-3.01l.26-.05C7.1,.32,7.44,0,8,0c.56,0,.9,.34,1.01,.94,.49,.16,.98,.28,1.43,.48,1.41,.63,2.19,1.77,2.56,3.23,.19,.73,.22,1.48,.25,2.23,.04,.88,.09,1.77,.19,2.64,.18,1.44,.89,2.57,2.06,3.42,.15,.11,.29,.24,.43,.36,0,0,0,.02,.02,.05Z"/>
      <path class="d" d="M5.86,14.25h4.27c-.07,.99-1.12,1.83-2.24,1.78-1.03-.04-2.04-.92-2.03-1.78Z"/>
    </g>
  </g>
</svg>