<?xml version="1.0" encoding="UTF-8"?>
<svg id="b" data-name="圖層 2" xmlns="http://www.w3.org/2000/svg" width="56.97" height="14.48" viewBox="0 0 56.97 14.48">
  <g id="c" data-name="圖層 2">
    <g>
      <path d="M3.12,12.87c-.86,0-1.72,0-2.58,0-.46,0-.59-.16-.52-.6C.59,8.65,1.16,5.04,1.74,1.43c.05-.29,.08-.59,.14-.88C1.94,.24,2.13,.03,2.46,.03c2,.04,4.01-.16,6,.11,1.2,.16,2.16,.73,2.55,1.97,.17,.52,.11,1.05,.06,1.58,.03,.12,.12,.27-.13,.26-.19-.25-.45-.37-.75-.43-.44-.08-.87-.15-1.32-.15-1.13,0-2.25,0-3.38,0-.56,0-.7,.11-.78,.63-.23,1.43-.47,2.86-.67,4.3-.25,1.25-.42,2.5-.62,3.76-.05,.28,.02,.61-.29,.8Z" style="fill: #003087;"/>
      <path d="M10.97,3.98c.09-.07,.05-.19,.09-.28,.92,.5,1.22,1.32,1.17,2.31-.09,1.74-.66,3.22-2.35,4.02-.75,.35-1.56,.43-2.38,.44-.6,0-.75,.12-.85,.72-.14,.86-.27,1.72-.4,2.59-.09,.57-.23,.7-.82,.7-.65,0-1.3,0-1.96,0-.39,0-.52-.16-.46-.55,.05-.35,.16-.69,.12-1.05,.22-.85,.29-1.74,.45-2.6,.12-.65,.17-1.31,.36-1.95,.13-.31,.38-.38,.69-.38,.74,0,1.48,0,2.22-.08,1.95-.22,3.38-1.41,3.91-3.32,.05-.2,.05-.42,.24-.56Z" style="fill: #019ddf;"/>
      <path d="M35.2,9.9c.61-.89,1.21-1.74,1.76-2.61,.27-.42,.56-.66,1.08-.58,.28,.04,.56,0,.84,0,.16,0,.34-.03,.43,.16,.08,.17-.04,.28-.12,.4-1.23,1.78-2.46,3.56-3.69,5.34-.35,.5-.7,1-1.03,1.5-.16,.24-.35,.37-.66,.36-.38-.02-.77,0-1.16,0-.15,0-.3,0-.38-.16-.07-.15,.03-.25,.11-.36,.42-.59,.82-1.2,1.26-1.78,.17-.22,.17-.4,.08-.64-.49-1.4-.96-2.8-1.44-4.2-.18-.53-.13-.6,.42-.61,.33,0,.65,.02,.98,0,.4-.03,.6,.14,.7,.52,.22,.8,.47,1.59,.71,2.38,.02,.08,.06,.16,.12,.29Z" style="fill: #003087;"/>
      <path d="M56.01,3.85c1.06,0,1.05,0,.87,1.05-.38,2.32-.75,4.65-1.11,6.97-.07,.44-.27,.62-.71,.59-.26-.02-.53-.02-.8,0-.4,.03-.53-.13-.46-.52,.22-1.33,.42-2.66,.64-3.99,.19-1.17,.41-2.33,.55-3.51,.06-.5,.26-.64,.71-.59,.1,.01,.21,0,.31,0Z" style="fill: #019ddf;"/>
      <path d="M10.97,3.98c-.35,2.28-1.92,3.77-4.2,4-.68,.07-1.36,.06-2.04,.06-.31,0-.59,.04-.81,.27,.09-1.1,.33-2.18,.48-3.27,.06-.44,.15-.87,.22-1.3,.06-.35,.26-.5,.61-.5,1.35,0,2.7-.01,4.04,0,.45,0,.9,.12,1.34,.25,.27,.07,.36,.23,.35,.48Z" style="fill: #021b67;"/>
      <path d="M21.97,3.86c-.96,0-1.93,0-2.89,0-.57,0-.65,.07-.74,.65-.36,2.3-.71,4.6-1.08,6.9-.2,1.23-.2,1.04,.9,1.05,.12,0,.24,0,.36,0,.7,0,.73-.03,.84-.74,.08-.53,.18-1.05,.25-1.58,.05-.4,.25-.57,.65-.56,.37,.01,.74,.01,1.11,0,1.65-.06,2.76-.96,3.13-2.52,.48-2.07-.39-3.18-2.52-3.2Zm-.54,3.92c-.27,.07-.55,.1-.84,.09-.04,0-.09,0-.13,0-.39,.05-.55-.05-.44-.49,.12-.47,.16-.96,.23-1.44,.04-.26,.16-.4,.44-.38,.18,.01,.36,0,.53,.01,.68,.03,.99,.25,1.05,.73,.09,.72-.25,1.31-.85,1.48Z" style="fill: #003087;"/>
      <path d="M44.36,3.87c-.52-.02-1.04,0-1.56,0v-.02c-.5,0-1.01,0-1.51,0-.68,0-.73,.04-.84,.74-.17,1.08-.34,2.16-.51,3.25-.21,1.35-.43,2.69-.64,4.04-.08,.52-.03,.57,.49,.58,.39,0,.77-.01,1.16,0,.32,.01,.45-.12,.49-.43,.08-.62,.19-1.23,.28-1.84,.06-.42,.26-.63,.71-.6,.3,.02,.59,0,.89,0,1.87-.03,2.99-.96,3.36-2.79,.36-1.78-.48-2.84-2.3-2.93Zm-.96,3.94c-.22,.05-.44,.05-.53,.06-.25,0-.37,0-.48,0-.21,.02-.3-.06-.26-.28,.1-.57,.18-1.14,.27-1.71,.02-.15,.08-.3,.26-.31,.43-.01,.86-.04,1.28,.1,.23,.08,.36,.24,.43,.47,.23,.74-.21,1.5-.97,1.66Z" style="fill: #019ddf;"/>
      <path d="M31.07,6.72c-.33,0-.65,.02-.98,0-.41-.03-.71,.04-.7,.55-.57-.47-.78-.57-1.26-.64-2.16-.29-3.96,1.29-3.97,3.48,0,1.54,1.01,2.54,2.55,2.5,.72-.02,1.35-.3,1.94-.79-.06,.64-.05,.65,.55,.65,.31,0,.62,0,.93,0,.3,0,.47-.14,.52-.44,.26-1.63,.51-3.25,.77-4.88,.05-.28-.06-.42-.35-.42Zm-3.61,4.3c-.79,0-1.27-.42-1.27-1.15,0-.95,.73-1.7,1.67-1.71,.77,0,1.27,.45,1.28,1.16,.01,.95-.72,1.69-1.67,1.69Z" style="fill: #003087;"/>
      <path d="M53.14,6.71c-.33,0-.65,.02-.98,0-.38-.03-.65,.06-.65,.6-.28-.32-.55-.49-.87-.59-1.79-.58-3.78,.58-4.24,2.49-.25,1.04-.17,2.02,.64,2.8,.79,.77,2.22,.8,3.27,.13,.13-.08,.24-.22,.46-.22-.15,.48,.13,.54,.5,.53,.3-.01,.59-.02,.89,0,.36,.02,.56-.13,.61-.48,.25-1.61,.5-3.22,.76-4.82,.05-.33-.1-.43-.4-.43Zm-3.57,4.3c-.79,0-1.26-.43-1.27-1.16-.01-.92,.75-1.69,1.68-1.7,.78,0,1.25,.45,1.26,1.22,0,.93-.71,1.64-1.66,1.64Z" style="fill: #019ddf;"/>
    </g>
  </g>
</svg>