<?xml version="1.0" encoding="UTF-8"?>
<svg id="b" data-name="圖層 2" xmlns="http://www.w3.org/2000/svg" width="28.86" height="28.73" viewBox="0 0 28.86 28.73">
  <g id="c" data-name="bar">
    <g>
      <path d="M28.86,5.18c-.16,.63-.59,1.07-1.03,1.5-.83,.81-1.63,1.63-2.43,2.42l-5.87-5.87s.07-.08,.13-.14c.74-.74,1.49-1.49,2.23-2.23,1.15-1.14,2.7-1.15,3.85,0,.71,.71,1.41,1.43,2.14,2.13,.44,.42,.84,.86,.98,1.47v.73Z" style="fill: #231815;"/>
      <path d="M0,27.85c.17-.73,.35-1.45,.51-2.18,.33-1.45,.65-2.9,.96-4.3l5.8,5.79c-.39,.09-.84,.2-1.28,.31-1.66,.4-3.33,.8-4.99,1.22-.45,.12-.76-.02-1-.39v-.45Z" style="fill: #231815;"/>
      <path d="M17.97,4.9l5.78,5.79c-4.93,4.93-9.87,9.87-14.8,14.8l-5.79-5.79L17.97,4.9Z" style="fill: #231815;"/>
    </g>
  </g>
</svg>