<?xml version="1.0" encoding="UTF-8"?>
<svg id="b" data-name="圖層 2" xmlns="http://www.w3.org/2000/svg" width="35.41" height="35.41" viewBox="0 0 35.41 35.41">
  <defs>
    <style>
      .e {
        fill: #fff;
      }
    </style>
  </defs>
  <g id="c" data-name="b">
    <g id="d" data-name="c">
      <path class="e" d="M17.71,0C7.93,0,0,7.93,0,17.71s7.93,17.71,17.71,17.71,17.71-7.93,17.71-17.71S27.48,0,17.71,0Zm2.12,30.13h-5.01v-5.2h5.01v5.2Zm4.95-14.62c-.49,.97-1.15,1.85-1.91,2.67-.35,.37-.7,.72-1.03,1.01-.31,.29-.6,.55-.86,.8-.25,.25-.43,.49-.6,.76-.27,.47-.43,.84-.49,1.15-.04,.33-.08,.8-.08,1.42v.43h-5.03v-.43c0-.78,.08-1.54,.23-2.28,.16-.74,.41-1.44,.78-2.07,.31-.62,.68-1.11,1.07-1.48,.37-.35,.8-.72,1.25-1.07,.43-.33,.9-.78,1.44-1.34,.39-.43,.66-.86,.78-1.29,.12-.45,.21-.92,.21-1.44,0-.33-.04-.64-.1-.9-.06-.25-.16-.45-.31-.64-.27-.35-.6-.6-.99-.74-.78-.27-1.75-.31-2.57-.08-.35,.1-.64,.25-.88,.45-.29,.23-.47,.47-.6,.8s-.18,.7-.18,1.09v.43h-5.05l.04-.47c.12-1.13,.43-2.22,.94-3.18,.51-.99,1.21-1.79,2.05-2.38,.66-.47,1.4-.84,2.22-1.09,2.03-.6,4.17-.41,6,.23,1.13,.39,2.1,1.05,2.86,1.97,.51,.6,.92,1.29,1.19,2.05,.27,.78,.41,1.56,.41,2.36,0,1.19-.27,2.3-.78,3.27Z"/>
    </g>
  </g>
</svg>