<?xml version="1.0" encoding="UTF-8"?>
<svg id="b" data-name="圖層 2" xmlns="http://www.w3.org/2000/svg" width="17.23" height="17.23" viewBox="0 0 17.23 17.23">
  <defs>
    <style>
      .d {
        fill: #fff;
      }
    </style>
  </defs>
  <g id="c" data-name="圖層 2">
    <path class="d" d="M8.62,0C3.86,0,0,3.86,0,8.62s3.86,8.62,8.62,8.62,8.62-3.86,8.62-8.62S13.38,0,8.62,0Zm1.03,14.67h-2.44v-2.53h2.44v2.53Zm2.41-7.12c-.24,.47-.56,.9-.93,1.3-.17,.18-.34,.35-.5,.49-.15,.14-.29,.27-.42,.39-.12,.12-.21,.24-.29,.37-.13,.23-.21,.41-.24,.56-.02,.16-.04,.39-.04,.69v.21h-2.45v-.21c0-.38,.04-.75,.11-1.11,.08-.36,.2-.7,.38-1.01,.15-.3,.33-.54,.52-.72,.18-.17,.39-.35,.61-.52,.21-.16,.44-.38,.7-.65,.19-.21,.32-.42,.38-.63,.06-.22,.1-.45,.1-.7,0-.16-.02-.31-.05-.44-.03-.12-.08-.22-.15-.31-.13-.17-.29-.29-.48-.36-.38-.13-.85-.15-1.25-.04-.17,.05-.31,.12-.43,.22-.14,.11-.23,.23-.29,.39-.06,.16-.09,.34-.09,.53v.21h-2.46l.02-.23c.06-.55,.21-1.08,.46-1.55,.25-.48,.59-.87,1-1.16,.32-.23,.68-.41,1.08-.53,.99-.29,2.03-.2,2.92,.11,.55,.19,1.02,.51,1.39,.96,.25,.29,.45,.63,.58,1,.13,.38,.2,.76,.2,1.15,0,.58-.13,1.12-.38,1.59Z"/>
  </g>
</svg>