<?xml version="1.0" encoding="UTF-8"?>
<svg id="b" data-name="圖層 2" xmlns="http://www.w3.org/2000/svg" width="36.39" height="36.39" viewBox="0 0 36.39 36.39">
  <g id="c" data-name="bar">
    <path d="M18.19,0C8.15,0,0,8.15,0,18.19s8.15,18.19,18.19,18.19,18.19-8.15,18.19-18.19S28.24,0,18.19,0Zm2.18,30.98h-5.14v-5.34h5.14v5.34Zm5.08-15.03c-.52,.99-1.18,1.91-1.96,2.74-.36,.39-.72,.73-1.05,1.03-.32,.29-.61,.56-.88,.83-.25,.25-.45,.51-.61,.78-.28,.48-.45,.87-.5,1.18-.05,.34-.08,.83-.08,1.45v.44h-5.18v-.44c0-.8,.08-1.59,.24-2.34,.16-.76,.43-1.48,.8-2.14,.32-.62,.69-1.14,1.09-1.52,.38-.37,.81-.73,1.28-1.09,.44-.34,.93-.8,1.48-1.37,.41-.45,.68-.89,.8-1.32,.13-.46,.2-.95,.2-1.48,0-.33-.04-.65-.11-.94-.06-.26-.17-.47-.33-.66-.28-.37-.61-.61-1.02-.75-.81-.28-1.8-.31-2.63-.08-.36,.1-.66,.25-.9,.46-.29,.23-.49,.5-.61,.82-.13,.33-.2,.71-.19,1.12v.45h-5.2l.05-.49c.12-1.17,.44-2.27,.96-3.28,.53-1.02,1.24-1.84,2.12-2.45,.67-.49,1.44-.87,2.29-1.12,2.1-.62,4.28-.43,6.17,.23,1.16,.41,2.15,1.09,2.93,2.02,.53,.6,.95,1.32,1.23,2.12,.28,.8,.42,1.61,.42,2.43,0,1.22-.27,2.35-.8,3.37Z" style="fill: #595757;"/>
  </g>
</svg>