<?xml version="1.0" encoding="UTF-8"?>
<svg id="b" data-name="圖層 2" xmlns="http://www.w3.org/2000/svg" width="25.22" height="23.19" viewBox="0 0 25.22 23.19">
  <g id="c" data-name="文字">
    <path d="M12.61,23.19c-.23,0-.47-.08-.65-.25l-.6-.56c-.42-.39-.83-.77-1.25-1.14-.71-.63-1.43-1.26-2.15-1.89-1.2-1.05-2.4-2.1-3.58-3.17-1.12-1.01-2.38-2.26-3.25-3.92-.59-1.13-.94-2.35-1.06-3.73-.1-1.18-.17-2.43,.25-3.7C1.17,2.26,2.99,.64,5.58,.15c2.78-.52,5.13,.35,7.02,2.6C13.83,1.27,15.35,.38,17.12,.09c3.29-.53,7.15,1.32,7.89,5.35,.68,3.67-.35,6.97-3,9.55-1.01,.99-2.08,1.94-3.11,2.86l-1.16,1.04c-1,.91-2,1.81-3.01,2.71l-1.49,1.34c-.18,.16-.41,.25-.64,.25ZM7.06,1.92c-.36,0-.74,.04-1.13,.11-1.92,.36-3.15,1.47-3.79,3.39-.3,.92-.25,1.91-.16,2.93,.1,1.13,.38,2.11,.85,3.01,.72,1.39,1.84,2.49,2.83,3.38,1.18,1.06,2.37,2.11,3.56,3.15,.72,.63,1.44,1.26,2.16,1.9,.42,.37,.82,.75,1.23,1.13l.85-.76c1-.9,2-1.8,3-2.7l1.17-1.05c1.02-.91,2.07-1.85,3.05-2.8,2.19-2.14,3.02-4.77,2.45-7.83-.53-2.87-3.32-4.19-5.71-3.81-1.48,.24-2.69,1.03-3.68,2.42l-.36,.52c-.18,.26-.51,.44-.8,.41-.32,0-.61-.16-.79-.43l-.24-.36c-1.25-1.75-2.73-2.61-4.5-2.61Z" style="fill: #595757;"/>
  </g>
</svg>