<?xml version="1.0" encoding="UTF-8"?>
<svg id="b" data-name="圖層 2" xmlns="http://www.w3.org/2000/svg" width="36.57" height="36.67" viewBox="0 0 36.57 36.67">
  <defs>
    <style>
      .d {
        fill: #fff;
      }
    </style>
  </defs>
  <g id="c" data-name="bar">
    <path class="d" d="M28.56,33.67c-1.16-.68-2.12-1.25-3.08-1.82-1.61-.95-2.39-.62-2.87,1.22-.9,3.39-1.28,3.68-4.81,3.59-2.85-.07-3.14-.3-3.85-3.06-.13-.49-.21-1-.4-1.46-.4-1.02-1.13-1.3-2.13-.84-.2,.09-.38,.25-.58,.34-1.05,.44-2.55,1.53-3.06,1.17-1.71-1.18-3.08-2.86-4.52-4.4-.14-.15,.06-.72,.21-1.04,.21-.46,.48-.89,.78-1.3,1.87-2.56,1.24-3.66-1.65-3.98-2.08-.23-2.52-1.49-2.57-3.21-.01-.39-.04-.79-.04-1.18,.02-3.13,.16-3.47,3.13-4.04,2.23-.43,3.1-1.39,1.55-3.69-1.6-2.38-1.43-2.74,1.01-5.18,2.21-2.2,2.52-2.24,5.13-.68,.39,.23,.75,.51,1.16,.69,1,.44,1.73,.13,2.14-.88,.1-.26,.11-.56,.23-.81,.45-1.03,.79-2.81,1.42-2.92,1.99-.35,4.09-.14,6.13,.02,.31,.02,.66,.95,.78,1.51,.85,3.93,1.26,4.49,4.81,2.11,.95-.64,1.72-.67,2.56,.09,.46,.42,.98,.76,1.43,1.18,2.6,2.49,2.63,2.73,.85,5.73-1.23,2.08-.96,2.62,1.33,3.3,1,.3,2.65,.79,2.74,1.37,.3,2.06,.17,4.21-.1,6.28-.05,.39-1.54,.64-2.38,.86-2.92,.75-3.12,1.19-1.63,3.72,1.41,2.4,1.45,2.49-.54,4.56-.96,.99-2.09,1.82-3.18,2.74ZM11.74,18.1c-.03,3.75,2.96,6.79,6.69,6.81,3.7,.02,6.79-3.07,6.78-6.77-.02-3.64-3.02-6.68-6.65-6.72-3.74-.05-6.79,2.94-6.82,6.68Z"/>
  </g>
</svg>