<?xml version="1.0" encoding="UTF-8"?>
<svg id="b" data-name="圖層 2" xmlns="http://www.w3.org/2000/svg" width="17.37" height="17.42" viewBox="0 0 17.37 17.42">
  <defs>
    <style>
      .d {
        fill: #fff;
      }
    </style>
  </defs>
  <g id="c" data-name="文字">
    <path class="d" d="M13.57,15.99c-.55-.33-1.01-.59-1.46-.86-.76-.45-1.13-.3-1.36,.58-.43,1.61-.61,1.75-2.29,1.7-1.35-.03-1.49-.14-1.83-1.45-.06-.23-.1-.47-.19-.69-.19-.48-.54-.62-1.01-.4-.1,.04-.18,.12-.28,.16-.5,.21-1.21,.72-1.46,.56-.81-.56-1.46-1.36-2.15-2.09-.07-.07,.03-.34,.1-.5,.1-.22,.23-.42,.37-.62,.89-1.22,.59-1.74-.78-1.89-.99-.11-1.2-.71-1.22-1.52,0-.19-.02-.37-.02-.56,0-1.49,.07-1.65,1.49-1.92,1.06-.2,1.47-.66,.74-1.75-.76-1.13-.68-1.3,.48-2.46,1.05-1.05,1.2-1.07,2.44-.32,.18,.11,.36,.24,.55,.33,.47,.21,.82,.06,1.02-.42,.05-.12,.05-.26,.11-.39,.21-.49,.37-1.33,.67-1.39,.94-.17,1.94-.07,2.91,0,.14,.01,.31,.45,.37,.72,.4,1.86,.6,2.14,2.28,1,.45-.3,.82-.32,1.21,.04,.22,.2,.47,.36,.68,.56,1.23,1.18,1.25,1.3,.4,2.72-.58,.99-.46,1.24,.63,1.57,.48,.14,1.26,.37,1.3,.65,.14,.98,.08,2-.05,2.98-.02,.19-.73,.3-1.13,.41-1.39,.36-1.48,.56-.78,1.77,.67,1.14,.69,1.18-.26,2.16-.45,.47-.99,.86-1.51,1.3Zm-7.99-7.4c-.02,1.78,1.4,3.23,3.18,3.24,1.76,0,3.23-1.46,3.22-3.22,0-1.73-1.43-3.17-3.16-3.19-1.78-.02-3.23,1.39-3.24,3.17Z"/>
  </g>
</svg>