<?xml version="1.0" encoding="UTF-8"?>
<svg id="b" data-name="圖層 2" xmlns="http://www.w3.org/2000/svg" width="23.7" height="14.48" viewBox="0 0 23.7 14.48">
  <defs>
    <style>
      .d {
        fill: #c8c9ca;
      }
    </style>
  </defs>
  <g id="c" data-name="文字">
    <g>
      <path class="d" d="M11.97,14.48c-4.36-.09-7.74-1.9-10.47-5.03-.48-.55-.89-1.16-1.33-1.75-.23-.31-.23-.63,0-.96C3.05,2.56,6.86-.05,12.1,0c3.85,.03,7.01,1.71,9.62,4.47,.66,.7,1.21,1.51,1.8,2.27,.24,.31,.22,.63,0,.95-2.39,3.55-5.57,5.95-9.88,6.64-.6,.1-1.21,.11-1.68,.15Zm10.13-7.24c-.99-1.44-2.16-2.65-3.57-3.64-2.37-1.66-4.99-2.43-7.87-2.11-3.48,.39-6.21,2.15-8.37,4.83-.87,1.08-.88,.74,.02,1.82,2.87,3.45,6.45,5.34,11.04,4.76,3.79-.48,6.55-2.63,8.76-5.66Z"/>
      <path class="d" d="M15.91,7.23c0,2.26-1.83,4.08-4.08,4.07-2.24,0-4.07-1.86-4.05-4.11,.01-2.23,1.83-4.04,4.06-4.04,2.26,0,4.07,1.81,4.07,4.08Zm-4.06,2.61c1.44,0,2.63-1.19,2.63-2.62,0-1.44-1.19-2.61-2.64-2.61-1.46,0-2.61,1.15-2.61,2.61,0,1.45,1.16,2.61,2.62,2.61Z"/>
    </g>
  </g>
</svg>