<?xml version="1.0" encoding="UTF-8"?>
<svg id="b" data-name="圖層 2" xmlns="http://www.w3.org/2000/svg" width="33.17" height="10.7" viewBox="0 0 33.17 10.7">
  <g id="c" data-name="圖層 2">
    <g>
      <path d="M16.44,7.88c.89,.46,1.77,.72,2.73,.72,.43,0,.86-.03,1.25-.25,.64-.36,.69-1.04,.1-1.48-.55-.41-1.19-.67-1.78-1.01-1.34-.78-1.86-1.97-1.4-3.38,.33-1.01,1.1-1.64,2.06-2.02,1.46-.59,2.95-.57,4.44-.1,.21,.06,.28,.16,.24,.38-.1,.57-.19,1.14-.26,1.71-.03,.25-.12,.25-.31,.16-.73-.34-1.5-.45-2.3-.38-.19,.02-.38,.06-.56,.12-.34,.11-.62,.32-.66,.7-.04,.38,.21,.61,.49,.78,.6,.36,1.22,.67,1.82,1.03,1.84,1.1,1.94,3.62,.21,4.89-.86,.64-1.82,.97-2.9,.95-1.02-.01-2.04,.04-3.04-.28-.38-.12-.56-.26-.44-.71,.15-.58,.2-1.19,.3-1.83Z" style="fill: #2a3894;"/>
      <path d="M6.37,5.44c.23,.55,.29,1.13,.42,1.85,.25-.65,.46-1.17,.65-1.7,.62-1.68,1.25-3.36,1.86-5.04,.1-.26,.21-.37,.5-.36,.7,.02,1.39,.02,2.09,0,.27,0,.41,0,.27,.35-1.11,2.68-2.2,5.37-3.3,8.05-.24,.58-.48,1.15-.7,1.73-.08,.22-.19,.29-.42,.29-.74-.01-1.48,0-2.22,0-.18,0-.33,0-.39-.24-.76-2.92-1.53-5.84-2.29-8.77,.16-.1,.28,.02,.4,.1,1.3,.8,2.28,1.9,3,3.24,.09,.16,.08,.34,.14,.51Z" style="fill: #2a3894;"/>
      <path d="M13.04,10.61h-.4c-.97,0-.96,0-.81-.94,.5-3.04,1-6.08,1.49-9.12,.04-.27,.11-.38,.4-.38,.67,.02,1.33,.02,2,0,.3,0,.34,.09,.29,.36-.41,2.47-.8,4.94-1.2,7.41-.12,.76-.28,1.52-.36,2.28-.04,.34-.17,.41-.47,.39-.31-.02-.62,0-.93,0Z" style="fill: #2a3894;"/>
      <path d="M6.37,5.44c-.79-1.64-1.92-2.96-3.53-3.84C2.13,1.09,1.31,.84,.5,.56c-.08-.03-.17-.04-.25-.07C.15,.44-.03,.46,0,.29c.03-.13,.17-.09,.27-.09,1.36,0,2.73-.01,4.09,0,.72,0,1.12,.34,1.26,1.02,.26,1.3,.51,2.61,.75,3.92,.02,.1,0,.2,0,.31Z" style="fill: #fd9901;"/>
      <path d="M33.15,10.31c-.15-.62-.28-1.24-.41-1.87-.55-2.65-1.11-5.31-1.65-7.96-.05-.22-.13-.29-.35-.28-.52,.01-1.04,0-1.56,0-1.08,0-1.36,.2-1.78,1.19-.91,2.17-1.82,4.34-2.73,6.51-.37,.89-.74,1.77-1.12,2.7,.9,0,1.76,0,2.62,0,.16,0,.23-.07,.28-.22,.12-.35,.27-.69,.38-1.04,.07-.24,.21-.31,.45-.31,.92,.01,1.84,.02,2.76,0,.29,0,.39,.1,.42,.37,.04,.31,.13,.61,.19,.91,.04,.2,.1,.3,.34,.3,.64-.02,1.28-.02,1.91,0,.25,0,.3-.07,.25-.31Zm-3.57-3.39c-.52-.02-1.04,0-1.56,0-.11,0-.32,.07-.23-.18,.43-1.19,.87-2.39,1.3-3.58l.08,.02c.23,1.13,.46,2.26,.7,3.39,.06,.27,0,.37-.29,.36Z" style="fill: #2a3894;"/>
    </g>
  </g>
</svg>